  0
SECTION
  2
HEADER
  9
$ACADVER
  1
AC1009
  9
$INSBASE
 10
0.0
 20
0.0
 30
0.0
  9
$EXTMIN
 10
15.0
 20
5.0
 30
0.0
  9
$EXTMAX
 10
415.0
 20
292.0
 30
0.0
  9
$LIMMIN
 10
0.0
 20
0.0
  9
$LIMMAX
 10
420.0
 20
297.0
  9
$ORTHOMODE
 70
     0
  9
$REGENMODE
 70
     1
  9
$FILLMODE
 70
     1
  9
$QTEXTMODE
 70
     0
  9
$MIRRTEXT
 70
     1
  9
$DRAGMODE
 70
     2
  9
$LTSCALE
 40
1.0
  9
$OSMODE
 70
   423
  9
$ATTMODE
 70
     1
  9
$TEXTSIZE
 40
3.5
  9
$TRACEWID
 40
1.0
  9
$TEXTSTYLE
  7
STANDARD
  9
$CLAYER
  8
FORMAT
  9
$CELTYPE
  6
BYLAYER
  9
$CECOLOR
 62
   256
  9
$DIMSCALE
 40
1.0
  9
$DIMASZ
 40
4.0800000000000001
  9
$DIMEXO
 40
0.0
  9
$DIMDLI
 40
3.75
  9
$DIMRND
 40
0.0
  9
$DIMDLE
 40
0.0
  9
$DIMEXE
 40
2.0
  9
$DIMTP
 40
0.0
  9
$DIMTM
 40
0.0
  9
$DIMTXT
 40
3.5
  9
$DIMCEN
 40
2.5
  9
$DIMTSZ
 40
0.0
  9
$DIMTOL
 70
     0
  9
$DIMLIM
 70
     0
  9
$DIMTIH
 70
     1
  9
$DIMTOH
 70
     1
  9
$DIMSE1
 70
     0
  9
$DIMSE2
 70
     0
  9
$DIMTAD
 70
     1
  9
$DIMZIN
 70
     1
  9
$DIMBLK
  1

  9
$DIMASO
 70
     1
  9
$DIMSHO
 70
     1
  9
$DIMPOST
  1

  9
$DIMAPOST
  1

  9
$DIMALT
 70
     0
  9
$DIMALTD
 70
     3
  9
$DIMALTF
 40
0.0393700787
  9
$DIMLFAC
 40
1.0
  9
$DIMTOFL
 70
     1
  9
$DIMTVP
 40
0.0
  9
$DIMTIX
 70
     0
  9
$DIMSOXD
 70
     0
  9
$DIMSAH
 70
     0
  9
$DIMBLK1
  1

  9
$DIMBLK2
  1

  9
$DIMSTYLE
  2
ISO-25
  9
$DIMCLRD
 70
     0
  9
$DIMCLRE
 70
     0
  9
$DIMCLRT
 70
     0
  9
$DIMTFAC
 40
1.0
  9
$DIMGAP
 40
1.524
  9
$LUNITS
 70
     2
  9
$LUPREC
 70
     2
  9
$SKETCHINC
 40
1.0
  9
$FILLETRAD
 40
10.0
  9
$AUNITS
 70
     0
  9
$AUPREC
 70
     2
  9
$MENU
  1
.
  9
$ELEVATION
 40
0.0
  9
$PELEVATION
 40
0.0
  9
$THICKNESS
 40
0.0
  9
$LIMCHECK
 70
     0
  9
$BLIPMODE
 70
     0
  9
$CHAMFERA
 40
0.0
  9
$CHAMFERB
 40
0.0
  9
$SKPOLY
 70
     0
  9
$TDCREATE
 40
2460356.5069097219966352
  9
$TDUPDATE
 40
2460356.5098495371639729
  9
$TDINDWG
 40
0.0028472338
  9
$TDUSRTIMER
 40
0.0028472338
  9
$USRTIMER
 70
     1
  9
$ANGBASE
 50
0.0
  9
$ANGDIR
 70
     0
  9
$PDMODE
 70
     0
  9
$PDSIZE
 40
-1.0
  9
$PLINEWID
 40
0.0
  9
$COORDS
 70
     1
  9
$SPLFRAME
 70
     0
  9
$SPLINETYPE
 70
     6
  9
$SPLINESEGS
 70
     8
  9
$ATTDIA
 70
     1
  9
$ATTREQ
 70
     1
  9
$HANDLING
 70
     1
  9
$HANDSEED
  5
353
  9
$SURFTAB1
 70
     6
  9
$SURFTAB2
 70
     6
  9
$SURFTYPE
 70
     6
  9
$SURFU
 70
     6
  9
$SURFV
 70
     6
  9
$UCSNAME
  2

  9
$UCSORG
 10
0.0
 20
0.0
 30
0.0
  9
$UCSXDIR
 10
1.0
 20
0.0
 30
0.0
  9
$UCSYDIR
 10
0.0
 20
1.0
 30
0.0
  9
$PUCSNAME
  2

  9
$PUCSORG
 10
0.0
 20
0.0
 30
0.0
  9
$PUCSXDIR
 10
1.0
 20
0.0
 30
0.0
  9
$PUCSYDIR
 10
0.0
 20
1.0
 30
0.0
  9
$USERI1
 70
     0
  9
$USERI2
 70
     0
  9
$USERI3
 70
     0
  9
$USERI4
 70
     0
  9
$USERI5
 70
     0
  9
$USERR1
 40
0.0
  9
$USERR2
 40
0.0
  9
$USERR3
 40
0.0
  9
$USERR4
 40
0.0
  9
$USERR5
 40
0.0
  9
$WORLDVIEW
 70
     1
  9
$SHADEDGE
 70
     3
  9
$SHADEDIF
 70
    70
  9
$TILEMODE
 70
     1
  9
$MAXACTVP
 70
    64
  9
$PLIMCHECK
 70
     0
  9
$PEXTMIN
 10
1.0000000000000000E+20
 20
1.0000000000000000E+20
 30
1.0000000000000000E+20
  9
$PEXTMAX
 10
-1.0000000000000000E+20
 20
-1.0000000000000000E+20
 30
-1.0000000000000000E+20
  9
$PLIMMIN
 10
0.0
 20
0.0
  9
$PLIMMAX
 10
420.0
 20
297.0
  9
$UNITMODE
 70
     0
  9
$VISRETAIN
 70
     1
  9
$PLINEGEN
 70
     0
  9
$PSLTSCALE
 70
     1
  0
ENDSEC
  0
SECTION
  2
TABLES
  0
TABLE
  2
VPORT
 70
     1
  0
VPORT
  2
*ACTIVE
 70
     0
 10
0.0
 20
0.0
 11
1.0
 21
1.0
 12
289.8286714633101155
 22
109.9998384396277942
 13
0.0
 23
0.0
 14
10.0
 24
10.0
 15
10.0
 25
10.0
 16
0.0
 26
0.0
 36
1.0
 17
0.0
 27
0.0
 37
0.0
 40
282.5187883844915859
 41
2.4502868068833652
 42
50.0
 43
0.0
 44
0.0
 50
0.0
 51
0.0
 71
     0
 72
  2000
 73
     1
 74
     3
 75
     0
 76
     0
 77
     0
 78
     0
  0
ENDTAB
  0
TABLE
  2
LTYPE
 70
     7
  0
LTYPE
  2
CONTINUOUS
 70
     0
  3
Solid line
 72
    65
 73
     0
 40
0.0
  0
LTYPE
  2
HIDDEN
 70
     0
  3
Hidden __ __ __ __ __ __ __ __ __ __ __ __ __ __
 72
    65
 73
     2
 40
1.905
 49
1.27
 49
-0.635
  0
LTYPE
  2
PHANTOM
 70
     0
  3
Phantom ______  __  __  ______  __  __  ______
 72
    65
 73
     6
 40
12.6999999999999993
 49
6.3499999999999988
 49
-1.27
 49
1.27
 49
-1.27
 49
1.27
 49
-1.27
  0
LTYPE
  2
CENTER
 70
     0
  3
Center ____ _ ____ _ ____ _ ____ _ ____ _ ____
 72
    65
 73
     4
 40
10.1600000000000001
 49
6.3499999999999988
 49
-1.27
 49
1.27
 49
-1.27
  0
LTYPE
  2
CENTERX2
 70
     0
  3
Center (2x) ________  __  ________  __  _____
 72
    65
 73
     4
 40
20.3200000000000003
 49
12.6999999999999993
 49
-2.54
 49
2.54
 49
-2.54
  0
LTYPE
  2
DOT2
 70
     0
  3
Dot (.5x) ........................................
 72
    65
 73
     2
 40
0.635
 49
0.0
 49
-0.635
  0
ENDTAB
  0
TABLE
  2
LAYER
 70
     3
  0
LAYER
  2
0
 70
     0
 62
     7
  6
CONTINUOUS
  0
LAYER
  2
FORMAT
 70
     0
 62
     7
  6
CENTER
  0
LAYER
  2
DEFPOINTS
 70
     0
 62
     7
  6
CONTINUOUS
  0
ENDTAB
  0
TABLE
  2
STYLE
 70
     6
  0
STYLE
  2
STANDARD
 70
     0
 40
0.0
 41
1.0
 50
0.0
 71
     0
 42
3.5
  3
txt
  4

  0
STYLE
  2
SLDTEXTSTYLE0
 70
     0
 40
0.0
 41
0.75
 50
0.0
 71
     0
 42
3.5
  3
TXT
  4

  0
STYLE
  2
SLDTEXTSTYLE1
 70
     0
 40
0.0
 41
0.75
 50
0.0
 71
     0
 42
3.5
  3
TXT
  4
bigfont
  0
STYLE
  2
SLDTEXTSTYLE2
 70
     0
 40
0.0
 41
0.6944444444000001
 50
0.0
 71
     0
 42
3.5
  3
TXT
  4
bigfont
  0
STYLE
  2
MtXpl_
 70
     0
 40
0.0
 41
1.0
 50
0.0
 71
     0
 42
3.5
  3
txt
  4

  0
STYLE
  2
MtXpl_MS_PGothic
 70
     0
 40
0.0
 41
1.0
 50
0.0
 71
     0
 42
3.5
  3
txt
  4

  0
ENDTAB
  0
TABLE
  2
VIEW
 70
     2
  0
ENDTAB
  0
TABLE
  2
UCS
 70
     0
  0
ENDTAB
  0
TABLE
  2
APPID
 70
     6
  0
APPID
  2
ACAD
 70
     0
  0
APPID
  2
ACAD_EXEMPT_FROM_CAD_STANDARDS
 70
     0
  0
APPID
  2
ACAD_TC
 70
     0
  0
APPID
  2
ACAD_DSTYLE_DIMRADIAL_EXTENSION
 70
     0
  0
APPID
  2
ACAD_NAV_VCDISPLAY
 70
     0
  0
APPID
  2
ACAD_MLEADERVER
 70
     0
  0
ENDTAB
  0
TABLE
  2
DIMSTYLE
 70
     2
  0
DIMSTYLE
  2
ISO-25
 70
     0
  3

  4

  5

  6

  7

 40
1.0
 41
2.5
 42
0.625
 43
3.75
 44
1.25
 45
0.0
 46
0.0
 47
0.0
 48
0.0
140
2.5
141
2.5
142
0.0
143
0.0393700787
144
1.0
145
0.0
146
1.0
147
0.625
 71
     0
 72
     0
 73
     0
 74
     0
 75
     0
 76
     0
 77
     1
 78
     8
170
     0
171
     3
172
     1
173
     0
174
     0
175
     0
176
     0
177
     0
178
     0
  0
ENDTAB
  0
ENDSEC
  0
SECTION
  2
BLOCKS
  0
BLOCK
  8
0
  2
$MODEL_SPACE
 70
     0
 10
0.0
 20
0.0
 30
0.0
  3
$MODEL_SPACE
  1

  0
ENDBLK
  5
21
  8
0
  0
BLOCK
 67
     1
  8
0
  2
$PAPER_SPACE
 70
     0
 10
0.0
 20
0.0
 30
0.0
  3
$PAPER_SPACE
  1

  0
ENDBLK
  5
1D
 67
     1
  8
0
  0
BLOCK
  8
0
  2
SW_NOTE_0
 70
     0
 10
0.0
 20
0.0
 30
0.0
  3
SW_NOTE_0
  1

  0
INSERT
  5
D7
  8
FORMAT
  2
*U43
 10
0.0
 20
0.0
 30
0.0
  0
INSERT
  5
D8
  8
FORMAT
  2
*U44
 10
0.0
 20
0.0
 30
0.0
  0
INSERT
  5
D9
  8
FORMAT
  2
*U45
 10
0.0
 20
0.0
 30
0.0
  0
INSERT
  5
DA
  8
FORMAT
  2
*U46
 10
0.0
 20
0.0
 30
0.0
  0
INSERT
  5
DB
  8
FORMAT
  2
*U47
 10
0.0
 20
0.0
 30
0.0
  0
INSERT
  5
DC
  8
FORMAT
  2
*U48
 10
0.0
 20
0.0
 30
0.0
  0
ENDBLK
  5
D6
  8
0
  0
BLOCK
  8
0
  2
SW_NOTE_0_1
 70
     0
 10
0.0
 20
0.0
 30
0.0
  3
SW_NOTE_0_1
  1

  0
INSERT
  5
E2
  8
FORMAT
  2
*U50
 10
0.0
 20
0.0
 30
0.0
  0
INSERT
  5
E3
  8
FORMAT
  2
*U51
 10
0.0
 20
0.0
 30
0.0
  0
ENDBLK
  5
E1
  8
0
  0
BLOCK
  8
0
  2
SW_CENTERMARKSYMBOL_0
 70
     0
 10
0.0
 20
0.0
 30
0.0
  3
SW_CENTERMARKSYMBOL_0
  1

  0
LINE
  5
F7
  8
0
  6
CONTINUOUS
 62
     0
 10
0.0
 20
0.0
 30
0.0
 11
0.0
 21
2.5
 31
0.0
  0
LINE
  5
F8
  8
0
  6
CONTINUOUS
 62
     0
 10
0.0
 20
0.0
 30
0.0
 11
-2.5
 21
0.0
 31
0.0
  0
LINE
  5
F9
  8
0
  6
CONTINUOUS
 62
     0
 10
0.0
 20
0.0
 30
0.0
 11
0.0
 21
-2.5
 31
0.0
  0
LINE
  5
FA
  8
0
  6
CONTINUOUS
 62
     0
 10
0.0
 20
0.0
 30
0.0
 11
2.5
 21
0.0
 31
0.0
  0
LINE
  5
FB
  8
0
  6
CONTINUOUS
 62
     0
 10
0.0
 20
5.0
 30
0.0
 11
0.0
 21
32.5
 31
0.0
  0
LINE
  5
FC
  8
0
  6
CONTINUOUS
 62
     0
 10
-5.0
 20
0.0
 30
0.0
 11
-32.5
 21
0.0
 31
0.0
  0
LINE
  5
FD
  8
0
  6
CONTINUOUS
 62
     0
 10
0.0
 20
-5.0
 30
0.0
 11
0.0
 21
-32.5
 31
0.0
  0
LINE
  5
FE
  8
0
  6
CONTINUOUS
 62
     0
 10
5.0
 20
0.0
 30
0.0
 11
32.5
 21
0.0
 31
0.0
  0
ENDBLK
  5
F6
  8
0
  0
BLOCK
  8
0
  2
*D5
 70
     1
 10
0.0
 20
0.0
 30
0.0
  3
*D5
  1

  0
LINE
  5
173
  8
FORMAT
 62
     0
 10
160.7617243424934088
 20
148.7164427321110907
 30
0.0
 11
142.9043910091600083
 21
148.7164427321110907
 31
0.0
  0
LINE
  5
174
  8
FORMAT
 62
     0
 10
142.9043910091600083
 20
148.7164427321110907
 30
0.0
 11
113.4356057677393039
 21
125.5657935656810054
 31
0.0
  0
LINE
  5
175
  8
FORMAT
 62
     0
 10
75.5643942322606534
 20
95.8142064343189332
 30
0.0
 11
72.3560357799194662
 21
93.2937231391371
 31
0.0
  0
INSERT
  5
176
  8
FORMAT
  2
*U65
 10
0.0
 20
0.0
 30
0.0
  0
LINE
  5
177
  8
FORMAT
 62
     0
 10
78.7727526846018975
 20
98.3346897295007665
 30
0.0
 11
110.2272473153981025
 21
123.0453102704991011
 31
0.0
  0
SOLID
  5
178
  8
FORMAT
 62
     0
 10
75.1443136830637002
 20
96.3489328430424763
 30
0.0
 11
75.9844747814576351
 21
95.2794800255954044
 31
0.0
 12
78.7727526846018975
 22
98.3346897295007665
 32
0.0
 13
78.7727526846018975
 23
98.3346897295007665
 33
0.0
  0
SOLID
  5
179
  8
FORMAT
 62
     0
 10
113.0155252185422938
 20
126.1005199744045058
 30
0.0
 11
113.8556863169362003
 21
125.0310671569575049
 31
0.0
 12
110.2272473153981025
 22
123.0453102704991011
 32
0.0
 13
110.2272473153981025
 23
123.0453102704991011
 33
0.0
  0
POINT
  5
17A
  8
DEFPOINTS
 62
     0
 10
110.2272473153981025
 20
123.0453102704991011
 30
0.0
  0
POINT
  5
17B
  8
DEFPOINTS
 62
     0
 10
78.7727526846018975
 20
98.3346897295007665
 30
0.0
  0
ENDBLK
  5
172
  8
0
  0
BLOCK
  8
0
  2
*D6
 70
     1
 10
0.0
 20
0.0
 30
0.0
  3
*D6
  1

  0
LINE
  5
180
  8
FORMAT
 62
     0
 10
148.963148435771501
 20
169.9418742949133048
 30
0.0
 11
131.1058151024381004
 21
169.9418742949133048
 31
0.0
  0
LINE
  5
181
  8
FORMAT
 62
     0
 10
131.1058151024381004
 20
169.9418742949133048
 30
0.0
 11
112.4120095704247007
 21
139.6832115011258111
 31
0.0
  0
LINE
  5
182
  8
FORMAT
 62
     0
 10
76.5879904295752425
 20
81.696788498874227
 30
0.0
 11
74.4435949176229741
 21
78.2257702205704533
 31
0.0
  0
INSERT
  5
183
  8
FORMAT
  2
*U66
 10
0.0
 20
0.0
 30
0.0
  0
LINE
  5
184
  8
FORMAT
 62
     0
 10
78.7323859415274967
 20
85.167806777178015
 30
0.0
 11
110.2676140584725033
 21
136.2121932228220089
 31
0.0
  0
SOLID
  5
185
  8
FORMAT
 62
     0
 10
76.0094873831912707
 20
82.0541877508662765
 30
0.0
 11
77.1664934759592001
 21
81.3393892468821917
 31
0.0
 12
78.7323859415274967
 22
85.167806777178015
 32
0.0
 13
78.7323859415274967
 23
85.167806777178015
 33
0.0
  0
SOLID
  5
186
  8
FORMAT
 62
     0
 10
111.8335065240407999
 20
140.0406107531177895
 30
0.0
 11
112.9905126168087008
 21
139.3258122491336906
 31
0.0
 12
110.2676140584725033
 22
136.2121932228220089
 32
0.0
 13
110.2676140584725033
 23
136.2121932228220089
 33
0.0
  0
POINT
  5
187
  8
DEFPOINTS
 62
     0
 10
110.2676140584725033
 20
136.2121932228220089
 30
0.0
  0
POINT
  5
188
  8
DEFPOINTS
 62
     0
 10
78.7323859415274967
 20
85.167806777178015
 30
0.0
  0
ENDBLK
  5
17F
  8
0
  0
BLOCK
  8
0
  2
*D7
 70
     1
 10
0.0
 20
0.0
 30
0.0
  3
*D7
  1

  0
LINE
  5
18D
  8
FORMAT
 62
     0
 10
236.5
 20
130.6899999999999977
 30
0.0
 11
236.5
 21
168.3669496945007893
 31
0.0
  0
LINE
  5
18E
  8
FORMAT
 62
     0
 10
246.5
 20
130.6899999999999977
 30
0.0
 11
246.5
 21
168.3669496945007893
 31
0.0
  0
LINE
  5
18F
  8
FORMAT
 62
     0
 10
232.4199999999999875
 20
166.3669496945007893
 30
0.0
 11
228.3400000000000034
 21
166.3669496945007893
 31
0.0
  0
LINE
  5
190
  8
FORMAT
 62
     0
 10
250.5800000000000125
 20
166.3669496945007893
 30
0.0
 11
269.3746666666667124
 21
166.3669496945007893
 31
0.0
  0
LINE
  5
191
  8
FORMAT
 62
     0
 10
236.5
 20
166.3669496945007893
 30
0.0
 11
246.5
 21
166.3669496945007893
 31
0.0
  0
SOLID
  5
192
  8
FORMAT
 62
     0
 10
232.4199999999999875
 20
167.0469496945007961
 30
0.0
 11
232.4199999999999875
 21
165.6869496945008109
 31
0.0
 12
236.5
 22
166.3669496945007893
 32
0.0
 13
236.5
 23
166.3669496945007893
 33
0.0
  0
SOLID
  5
193
  8
FORMAT
 62
     0
 10
250.5800000000000125
 20
167.0469496945007961
 30
0.0
 11
250.5800000000000125
 21
165.6869496945008109
 31
0.0
 12
246.5
 22
166.3669496945007893
 32
0.0
 13
246.5
 23
166.3669496945007893
 33
0.0
  0
INSERT
  5
194
  8
FORMAT
  2
*U67
 10
0.0
 20
0.0
 30
0.0
  0
POINT
  5
195
  8
DEFPOINTS
 62
     0
 10
236.5
 20
130.6899999999999977
 30
0.0
  0
POINT
  5
196
  8
DEFPOINTS
 62
     0
 10
246.5
 20
130.6899999999999977
 30
0.0
  0
POINT
  5
197
  8
DEFPOINTS
 62
     0
 10
246.5
 20
166.3669496945007893
 30
0.0
  0
ENDBLK
  5
18C
  8
0
  0
BLOCK
  8
0
  2
*D8
 70
     1
 10
0.0
 20
0.0
 30
0.0
  3
*D8
  1

  0
LINE
  5
19C
  8
FORMAT
 62
     0
 10
246.5
 20
140.6899999999999977
 30
0.0
 11
246.5
 21
156.0567314888911881
 31
0.0
  0
LINE
  5
19D
  8
FORMAT
 62
     0
 10
261.5
 20
140.6899999999999977
 30
0.0
 11
261.5
 21
156.0567314888911881
 31
0.0
  0
LINE
  5
19E
  8
FORMAT
 62
     0
 10
250.5800000000000125
 20
154.0567314888911881
 30
0.0
 11
257.4200000000000159
 21
154.0567314888911881
 31
0.0
  0
LINE
  5
19F
  8
FORMAT
 62
     0
 10
261.5
 20
154.0567314888911881
 30
0.0
 11
280.8779999999999859
 21
154.0567314888911881
 31
0.0
  0
SOLID
  5
1A0
  8
FORMAT
 62
     0
 10
250.5800000000000125
 20
154.7367314888913086
 30
0.0
 11
250.5800000000000125
 21
153.3767314888912097
 31
0.0
 12
246.5
 22
154.0567314888911881
 32
0.0
 13
246.5
 23
154.0567314888911881
 33
0.0
  0
SOLID
  5
1A1
  8
FORMAT
 62
     0
 10
257.4200000000000159
 20
154.7367314888913086
 30
0.0
 11
257.4200000000000159
 21
153.3767314888912097
 31
0.0
 12
261.5
 22
154.0567314888911881
 32
0.0
 13
261.5
 23
154.0567314888911881
 33
0.0
  0
INSERT
  5
1A2
  8
FORMAT
  2
*U68
 10
0.0
 20
0.0
 30
0.0
  0
POINT
  5
1A3
  8
DEFPOINTS
 62
     0
 10
246.5
 20
140.6899999999999977
 30
0.0
  0
POINT
  5
1A4
  8
DEFPOINTS
 62
     0
 10
261.5
 20
140.6899999999999977
 30
0.0
  0
POINT
  5
1A5
  8
DEFPOINTS
 62
     0
 10
261.5
 20
154.0567314888911881
 30
0.0
  0
ENDBLK
  5
19B
  8
0
  0
BLOCK
  8
0
  2
*D9
 70
     1
 10
0.0
 20
0.0
 30
0.0
  3
*D9
  1

  0
LINE
  5
1AA
  8
FORMAT
 62
     0
 10
221.5
 20
80.6899999999999977
 30
0.0
 11
221.5
 21
188.7715582846581981
 31
0.0
  0
LINE
  5
1AB
  8
FORMAT
 62
     0
 10
261.5
 20
80.6899999999999977
 30
0.0
 11
261.5
 21
188.7715582846581981
 31
0.0
  0
LINE
  5
1AC
  8
FORMAT
 62
     0
 10
225.5800000000000125
 20
186.7715582846581981
 30
0.0
 11
257.4200000000000159
 21
186.7715582846581981
 31
0.0
  0
SOLID
  5
1AD
  8
FORMAT
 62
     0
 10
225.5800000000000125
 20
187.4515582846582049
 30
0.0
 11
225.5800000000000125
 21
186.0915582846581913
 31
0.0
 12
221.5
 22
186.7715582846581981
 32
0.0
 13
221.5
 23
186.7715582846581981
 33
0.0
  0
SOLID
  5
1AE
  8
FORMAT
 62
     0
 10
257.4200000000000159
 20
187.4515582846582049
 30
0.0
 11
257.4200000000000159
 21
186.0915582846581913
 31
0.0
 12
261.5
 22
186.7715582846581981
 32
0.0
 13
261.5
 23
186.7715582846581981
 33
0.0
  0
INSERT
  5
1AF
  8
FORMAT
  2
*U69
 10
0.0
 20
0.0
 30
0.0
  0
POINT
  5
1B0
  8
DEFPOINTS
 62
     0
 10
221.5
 20
80.6899999999999977
 30
0.0
  0
POINT
  5
1B1
  8
DEFPOINTS
 62
     0
 10
261.5
 20
80.6899999999999977
 30
0.0
  0
POINT
  5
1B2
  8
DEFPOINTS
 62
     0
 10
261.5
 20
186.7715582846581981
 30
0.0
  0
ENDBLK
  5
1A9
  8
0
  0
BLOCK
  8
0
  2
*U10
 70
     1
 10
0.0
 20
0.0
 30
0.0
  3
*U10
  1

  0
TEXT
  5
209
  8
0
 62
     7
 10
16.3475006428
 20
27.2452884839000014
 30
0.0
 40
3.96875
  1
A
 41
0.75
  7
SLDTEXTSTYLE0
  0
ENDBLK
  5
20B
  8
0
  0
BLOCK
  8
0
  2
*U11
 70
     1
 10
0.0
 20
0.0
 30
0.0
  3
*U11
  1

  0
TEXT
  5
20D
  8
0
 62
     7
 10
411.3475006428000142
 20
27.2452884839000014
 30
0.0
 40
3.96875
  1
A
 41
0.75
  7
SLDTEXTSTYLE0
  0
ENDBLK
  5
20F
  8
0
  0
BLOCK
  8
0
  2
*U12
 70
     1
 10
0.0
 20
0.0
 30
0.0
  3
*U12
  1

  0
TEXT
  5
211
  8
0
 62
     7
 10
16.478414324100001
 20
71.4952884838999978
 30
0.0
 40
3.96875
  1
B
 41
0.75
  7
SLDTEXTSTYLE0
  0
ENDBLK
  5
213
  8
0
  0
BLOCK
  8
0
  2
*U13
 70
     1
 10
0.0
 20
0.0
 30
0.0
  3
*U13
  1

  0
TEXT
  5
215
  8
0
 62
     7
 10
411.4784143241000152
 20
71.4952884838999978
 30
0.0
 40
3.96875
  1
B
 41
0.75
  7
SLDTEXTSTYLE0
  0
ENDBLK
  5
217
  8
0
  0
BLOCK
  8
0
  2
*U14
 70
     1
 10
0.0
 20
0.0
 30
0.0
  3
*U14
  1

  0
TEXT
  5
219
  8
0
 62
     7
 10
16.4664714019999998
 20
121.4952884838999978
 30
0.0
 40
3.96875
  1
C
 41
0.75
  7
SLDTEXTSTYLE0
  0
ENDBLK
  5
21B
  8
0
  0
BLOCK
  8
0
  2
*U15
 70
     1
 10
0.0
 20
0.0
 30
0.0
  3
*U15
  1

  0
TEXT
  5
21D
  8
0
 62
     7
 10
411.466471401999911
 20
121.4952884838999978
 30
0.0
 40
3.96875
  1
C
 41
0.75
  7
SLDTEXTSTYLE0
  0
ENDBLK
  5
21F
  8
0
  0
BLOCK
  8
0
  2
*U16
 70
     1
 10
0.0
 20
0.0
 30
0.0
  3
*U16
  1

  0
TEXT
  5
221
  8
0
 62
     7
 10
16.4604997821000012
 20
171.4952884838999978
 30
0.0
 40
3.96875
  1
D
 41
0.75
  7
SLDTEXTSTYLE0
  0
ENDBLK
  5
223
  8
0
  0
BLOCK
  8
0
  2
*U17
 70
     1
 10
0.0
 20
0.0
 30
0.0
  3
*U17
  1

  0
TEXT
  5
225
  8
0
 62
     7
 10
411.4604997820998733
 20
171.4952884838999978
 30
0.0
 40
3.96875
  1
D
 41
0.75
  7
SLDTEXTSTYLE0
  0
ENDBLK
  5
227
  8
0
  0
BLOCK
  8
0
  2
*U18
 70
     1
 10
0.0
 20
0.0
 30
0.0
  3
*U18
  1

  0
TEXT
  5
229
  8
0
 62
     7
 10
16.5156214050999992
 20
221.4952884838999978
 30
0.0
 40
3.96875
  1
E
 41
0.75
  7
SLDTEXTSTYLE0
  0
ENDBLK
  5
22B
  8
0
  0
BLOCK
  8
0
  2
*U19
 70
     1
 10
0.0
 20
0.0
 30
0.0
  3
*U19
  1

  0
TEXT
  5
22D
  8
0
 62
     7
 10
411.5156214050999779
 20
221.4952884838999978
 30
0.0
 40
3.96875
  1
E
 41
0.75
  7
SLDTEXTSTYLE0
  0
ENDBLK
  5
22F
  8
0
  0
BLOCK
  8
0
  2
*U20
 70
     1
 10
0.0
 20
0.0
 30
0.0
  3
*U20
  1

  0
TEXT
  5
231
  8
0
 62
     7
 10
16.4655527090999989
 20
265.7452884838999125
 30
0.0
 40
3.96875
  1
F
 41
0.75
  7
SLDTEXTSTYLE0
  0
ENDBLK
  5
233
  8
0
  0
BLOCK
  8
0
  2
*U21
 70
     1
 10
0.0
 20
0.0
 30
0.0
  3
*U21
  1

  0
TEXT
  5
235
  8
0
 62
     7
 10
411.465552709100109
 20
265.7452884838999125
 30
0.0
 40
3.96875
  1
F
 41
0.75
  7
SLDTEXTSTYLE0
  0
ENDBLK
  5
237
  8
0
  0
BLOCK
  8
0
  2
*U22
 70
     1
 10
0.0
 20
0.0
 30
0.0
  3
*U22
  1

  0
TEXT
  5
239
  8
0
 62
     7
 10
41.4678494464999972
 20
5.4952884838999987
 30
0.0
 40
3.96875
  1
8
 41
0.75
  7
SLDTEXTSTYLE0
  0
ENDBLK
  5
23B
  8
0
  0
BLOCK
  8
0
  2
*U23
 70
     1
 10
0.0
 20
0.0
 30
0.0
  3
*U23
  1

  0
TEXT
  5
23D
  8
0
 62
     7
 10
41.4678494464999972
 20
287.4952884839000262
 30
0.0
 40
3.96875
  1
8
 41
0.75
  7
SLDTEXTSTYLE0
  0
ENDBLK
  5
23F
  8
0
  0
BLOCK
  8
0
  2
*U24
 70
     1
 10
0.0
 20
0.0
 30
0.0
  3
*U24
  1

  0
TEXT
  5
241
  8
0
 62
     7
 10
88.9678494464999829
 20
5.4952884838999987
 30
0.0
 40
3.96875
  1
7
 41
0.75
  7
SLDTEXTSTYLE0
  0
ENDBLK
  5
243
  8
0
  0
BLOCK
  8
0
  2
*U25
 70
     1
 10
0.0
 20
0.0
 30
0.0
  3
*U25
  1

  0
TEXT
  5
245
  8
0
 62
     7
 10
88.9678494464999829
 20
287.4952884839000262
 30
0.0
 40
3.96875
  1
7
 41
0.75
  7
SLDTEXTSTYLE0
  0
ENDBLK
  5
247
  8
0
  0
BLOCK
  8
0
  2
*U26
 70
     1
 10
0.0
 20
0.0
 30
0.0
  3
*U26
  1

  0
TEXT
  5
249
  8
0
 62
     7
 10
138.9678494464999972
 20
5.4952884838999987
 30
0.0
 40
3.96875
  1
6
 41
0.75
  7
SLDTEXTSTYLE0
  0
ENDBLK
  5
24B
  8
0
  0
BLOCK
  8
0
  2
*U27
 70
     1
 10
0.0
 20
0.0
 30
0.0
  3
*U27
  1

  0
TEXT
  5
24D
  8
0
 62
     7
 10
138.9678494464999972
 20
287.4952884839000262
 30
0.0
 40
3.96875
  1
6
 41
0.75
  7
SLDTEXTSTYLE0
  0
ENDBLK
  5
24F
  8
0
  0
BLOCK
  8
0
  2
*U28
 70
     1
 10
0.0
 20
0.0
 30
0.0
  3
*U28
  1

  0
TEXT
  5
251
  8
0
 62
     7
 10
188.9678494464999972
 20
5.4952884838999987
 30
0.0
 40
3.96875
  1
5
 41
0.75
  7
SLDTEXTSTYLE0
  0
ENDBLK
  5
253
  8
0
  0
BLOCK
  8
0
  2
*U29
 70
     1
 10
0.0
 20
0.0
 30
0.0
  3
*U29
  1

  0
TEXT
  5
255
  8
0
 62
     7
 10
188.9678494464999972
 20
287.4952884839000262
 30
0.0
 40
3.96875
  1
5
 41
0.75
  7
SLDTEXTSTYLE0
  0
ENDBLK
  5
257
  8
0
  0
BLOCK
  8
0
  2
*U30
 70
     1
 10
0.0
 20
0.0
 30
0.0
  3
*U30
  1

  0
TEXT
  5
259
  8
0
 62
     7
 10
238.9678494464999972
 20
5.4952884838999987
 30
0.0
 40
3.96875
  1
4
 41
0.75
  7
SLDTEXTSTYLE0
  0
ENDBLK
  5
25B
  8
0
  0
BLOCK
  8
0
  2
*U31
 70
     1
 10
0.0
 20
0.0
 30
0.0
  3
*U31
  1

  0
TEXT
  5
25D
  8
0
 62
     7
 10
238.9678494464999972
 20
287.4952884839000262
 30
0.0
 40
3.96875
  1
4
 41
0.75
  7
SLDTEXTSTYLE0
  0
ENDBLK
  5
25F
  8
0
  0
BLOCK
  8
0
  2
*U32
 70
     1
 10
0.0
 20
0.0
 30
0.0
  3
*U32
  1

  0
TEXT
  5
261
  8
0
 62
     7
 10
288.9678494464999972
 20
5.4952884838999987
 30
0.0
 40
3.96875
  1
3
 41
0.75
  7
SLDTEXTSTYLE0
  0
ENDBLK
  5
263
  8
0
  0
BLOCK
  8
0
  2
*U33
 70
     1
 10
0.0
 20
0.0
 30
0.0
  3
*U33
  1

  0
TEXT
  5
265
  8
0
 62
     7
 10
288.9678494464999972
 20
287.4952884839000262
 30
0.0
 40
3.96875
  1
3
 41
0.75
  7
SLDTEXTSTYLE0
  0
ENDBLK
  5
267
  8
0
  0
BLOCK
  8
0
  2
*U34
 70
     1
 10
0.0
 20
0.0
 30
0.0
  3
*U34
  1

  0
TEXT
  5
269
  8
0
 62
     7
 10
338.9678494464999972
 20
5.4952884838999987
 30
0.0
 40
3.96875
  1
2
 41
0.75
  7
SLDTEXTSTYLE0
  0
ENDBLK
  5
26B
  8
0
  0
BLOCK
  8
0
  2
*U35
 70
     1
 10
0.0
 20
0.0
 30
0.0
  3
*U35
  1

  0
TEXT
  5
26D
  8
0
 62
     7
 10
338.9678494464999972
 20
287.4952884839000262
 30
0.0
 40
3.96875
  1
2
 41
0.75
  7
SLDTEXTSTYLE0
  0
ENDBLK
  5
26F
  8
0
  0
BLOCK
  8
0
  2
*U36
 70
     1
 10
0.0
 20
0.0
 30
0.0
  3
*U36
  1

  0
TEXT
  5
271
  8
0
 62
     7
 10
386.9639431964999972
 20
5.4952884838999987
 30
0.0
 40
3.96875
  1
1
 41
0.75
  7
SLDTEXTSTYLE0
  0
ENDBLK
  5
273
  8
0
  0
BLOCK
  8
0
  2
*U37
 70
     1
 10
0.0
 20
0.0
 30
0.0
  3
*U37
  1

  0
TEXT
  5
275
  8
0
 62
     7
 10
386.9639431964999972
 20
287.4952884839000262
 30
0.0
 40
3.96875
  1
1
 41
0.75
  7
SLDTEXTSTYLE0
  0
ENDBLK
  5
277
  8
0
  0
BLOCK
  8
0
  2
*U38
 70
     1
 10
0.0
 20
0.0
 30
0.0
  3
*U38
  1

  0
TEXT
  5
27A
  8
0
 62
     7
 10
230.6029642160854962
 20
40.686698126123467
 30
0.0
 40
1.5
  1
绘
 41
0.75
  7
MtXpl_
  0
TEXT
  5
27C
  8
0
 62
     7
 10
232.2119027635714872
 20
40.686698126123467
 30
0.0
 40
1.5
  1
制
 41
0.75
  7
SLDTEXTSTYLE1
  0
ENDBLK
  5
27E
  8
0
  0
BLOCK
  8
0
  2
*U39
 70
     1
 10
0.0
 20
0.0
 30
0.0
  3
*U39
  1

  0
TEXT
  5
280
  8
0
 62
     7
 10
230.5607341580887919
 20
36.3862507354189901
 30
0.0
 40
1.5
  1
检查
 41
0.75
  7
MtXpl_
  0
ENDBLK
  5
282
  8
0
  0
BLOCK
  8
0
  2
*U40
 70
     1
 10
0.0
 20
0.0
 30
0.0
  3
*U40
  1

  0
TEXT
  5
284
  8
0
 62
     7
 10
230.621630336599992
 20
32.6768301530000116
 30
0.0
 40
1.5
  1
批准
 41
0.75
  7
SLDTEXTSTYLE1
  0
ENDBLK
  5
286
  8
0
  0
BLOCK
  8
0
  2
*U41
 70
     1
 10
0.0
 20
0.0
 30
0.0
  3
*U41
  1

  0
TEXT
  5
288
  8
0
 62
     7
 10
230.6821940682999923
 20
28.2337046506
 30
0.0
 40
1.5
  1
制造
 41
0.75
  7
SLDTEXTSTYLE1
  0
ENDBLK
  5
28A
  8
0
  0
BLOCK
  8
0
  2
*U42
 70
     1
 10
0.0
 20
0.0
 30
0.0
  3
*U42
  1

  0
TEXT
  5
28C
  8
0
 62
     7
 10
230.6202912485898935
 20
23.5814927827189997
 30
0.0
 40
1.5
  1
验检
 41
0.75
  7
MtXpl_
  0
ENDBLK
  5
28E
  8
0
  0
BLOCK
  8
0
  2
*U43
 70
     1
 10
0.0
 20
0.0
 30
0.0
  3
*U43
  1

  0
TEXT
  5
291
  8
0
 62
     0
 10
0.0
 20
0.2290561551545456
 30
0.0
 40
1.5
  1
除非
 41
0.75
  7
SLDTEXTSTYLE1
  0
TEXT
  5
292
  8
0
 62
     0
 10
2.7000000000000002
 20
0.2290561551545456
 30
0.0
 40
1.5
  1
另
 41
0.75
  7
MtXpl_MS_PGothic
  0
TEXT
  5
294
  8
0
 62
     0
 10
4.3363636363636351
 20
0.2290561551545456
 30
0.0
 40
1.5
  1
外指定:
 41
0.75
  7
SLDTEXTSTYLE1
  0
ENDBLK
  5
296
  8
0
  0
BLOCK
  8
0
  2
*U44
 70
     1
 10
0.0
 20
0.0
 30
0.0
  3
*U44
  1

  0
TEXT
  5
298
  8
0
 62
     0
 10
0.0
 20
-2.3476483344999992
 30
0.0
 40
1.5
  1
尺寸使用
 41
0.75
  7
SLDTEXTSTYLE1
  0
TEXT
  5
299
  8
0
 62
     0
 10
5.4000000000000004
 20
-2.3476483344999992
 30
0.0
 40
1.5
  1
毫
 41
0.75
  7
MtXpl_MS_PGothic
  0
TEXT
  5
29A
  8
0
 62
     0
 10
7.036363636363637
 20
-2.3476483344999992
 30
0.0
 40
1.5
  1
米
 41
0.75
  7
SLDTEXTSTYLE1
  0
ENDBLK
  5
29C
  8
0
  0
BLOCK
  8
0
  2
*U45
 70
     1
 10
0.0
 20
0.0
 30
0.0
  3
*U45
  1

  0
TEXT
  5
29E
  8
0
 62
     0
 10
-0.0000000000000001
 20
-4.8220800967818178
 30
0.0
 40
1.5
  1
表面粗
 41
0.75
  7
SLDTEXTSTYLE1
  0
TEXT
  5
29F
  8
0
 62
     0
 10
4.0499999999999998
 20
-4.8220800967818178
 30
0.0
 40
1.5
  1
糙
 41
0.75
  7
MtXpl_MS_PGothic
  0
TEXT
  5
2A0
  8
0
 62
     0
 10
5.6863636363636374
 20
-4.8220800967818178
 30
0.0
 40
1.5
  1
度:
 41
0.75
  7
SLDTEXTSTYLE1
  0
ENDBLK
  5
2A2
  8
0
  0
BLOCK
  8
0
  2
*U46
 70
     1
 10
0.0
 20
0.0
 30
0.0
  3
*U46
  1

  0
TEXT
  5
2A4
  8
0
 62
     0
 10
0.0
 20
-7.0663982227000002
 30
0.0
 40
1.5
  1
公差:
 41
0.75
  7
SLDTEXTSTYLE1
  0
ENDBLK
  5
2A6
  8
0
  0
BLOCK
  8
0
  2
*U47
 70
     1
 10
0.0
 20
0.0
 30
0.0
  3
*U47
  1

  0
TEXT
  5
2A8
  8
0
 62
     0
 10
1.6057960893854739
 20
-9.8261747031128461
 30
0.0
 40
1.5
  1
线
 41
0.75
  7
MtXpl_
  0
TEXT
  5
2A9
  8
0
 62
     0
 10
3.214734636871508
 20
-9.8261747031128461
 30
0.0
 40
1.5
  1
性:
 41
0.75
  7
SLDTEXTSTYLE1
  0
ENDBLK
  5
2AB
  8
0
  0
BLOCK
  8
0
  2
*U48
 70
     1
 10
0.0
 20
0.0
 30
0.0
  3
*U48
  1

  0
TEXT
  5
2AD
  8
0
 62
     0
 10
1.6125
 20
-12.0663981108999998
 30
0.0
 40
1.5
  1
角度:
 41
0.75
  7
SLDTEXTSTYLE1
  0
ENDBLK
  5
2AF
  8
0
  0
BLOCK
  8
0
  2
*U49
 70
     1
 10
0.0
 20
0.0
 30
0.0
  3
*U49
  1

  0
TEXT
  5
2B1
  8
0
 62
     7
 10
264.3712921668000035
 20
62.1635901769181771
 30
0.0
 40
1.5
  1
表面粗
 41
0.75
  7
SLDTEXTSTYLE1
  0
TEXT
  5
2B2
  8
0
 62
     7
 10
268.4212921668000149
 20
62.1635901769181771
 30
0.0
 40
1.5
  1
糙
 41
0.75
  7
MtXpl_MS_PGothic
  0
TEXT
  5
2B3
  8
0
 62
     7
 10
270.0576558031635841
 20
62.1635901769181771
 30
0.0
 40
1.5
  1
度:
 41
0.75
  7
SLDTEXTSTYLE1
  0
ENDBLK
  5
2B5
  8
0
  0
BLOCK
  8
0
  2
*U50
 70
     1
 10
0.0
 20
0.0
 30
0.0
  3
*U50
  1

  0
TEXT
  5
2B7
  8
0
 62
     0
 10
0.0
 20
0.1738250733871509
 30
0.0
 40
1.5
  1
将
 41
0.75
  7
SLDTEXTSTYLE1
  0
TEXT
  5
2B8
  8
0
 62
     0
 10
1.349999999999999
 20
0.1738250733871509
 30
0.0
 40
1.5
  1
锐边
 41
0.75
  7
MtXpl_
  0
TEXT
  5
2B9
  8
0
 62
     0
 10
4.567877094972066
 20
0.1738250733871509
 30
0.0
 40
1.5
  1
清除
 41
0.75
  7
SLDTEXTSTYLE1
  0
ENDBLK
  5
2BB
  8
0
  0
BLOCK
  8
0
  2
*U51
 70
     1
 10
0.0
 20
0.0
 30
0.0
  3
*U51
  1

  0
TEXT
  5
2BD
  8
0
 62
     0
 10
0.0
 20
-2.3220801526818171
 30
0.0
 40
1.5
  1
毛刺
 41
0.75
  7
SLDTEXTSTYLE1
  0
TEXT
  5
2BE
  8
0
 62
     0
 10
2.7000000000000002
 20
-2.3220801526818171
 30
0.0
 40
1.5
  1
并
 41
0.75
  7
MtXpl_MS_PGothic
  0
TEXT
  5
2BF
  8
0
 62
     0
 10
4.3363636363636351
 20
-2.3220801526818171
 30
0.0
 40
1.5
  1
折断
 41
0.75
  7
SLDTEXTSTYLE1
  0
ENDBLK
  5
2C1
  8
0
  0
BLOCK
  8
0
  2
*U52
 70
     1
 10
0.0
 20
0.0
 30
0.0
  3
*U52
  1

  0
TEXT
  5
2C3
  8
0
 62
     7
 10
244.3222392177000017
 20
45.0014826334999967
 30
0.0
 40
1.5
  1
名称
 41
0.75
  7
SLDTEXTSTYLE1
  0
ENDBLK
  5
2C5
  8
0
  0
BLOCK
  8
0
  2
*U53
 70
     1
 10
0.0
 20
0.0
 30
0.0
  3
*U53
  1

  0
TEXT
  5
2C7
  8
0
 62
     7
 10
259.9707384011887825
 20
44.8103597314552999
 30
0.0
 40
1.5
  1
签
 41
0.75
  7
MtXpl_
  0
TEXT
  5
2C8
  8
0
 62
     7
 10
261.5796769486748872
 20
44.8103597314552999
 30
0.0
 40
1.5
  1
名
 41
0.75
  7
SLDTEXTSTYLE1
  0
ENDBLK
  5
2CA
  8
0
  0
BLOCK
  8
0
  2
*U54
 70
     1
 10
0.0
 20
0.0
 30
0.0
  3
*U54
  1

  0
TEXT
  5
2CC
  8
0
 62
     7
 10
277.0647019657000101
 20
45.0761792212000003
 30
0.0
 40
1.5
  1
日期
 41
0.75
  7
SLDTEXTSTYLE1
  0
ENDBLK
  5
2CE
  8
0
  0
BLOCK
  8
0
  2
*U55
 70
     1
 10
0.0
 20
0.0
 30
0.0
  3
*U55
  1

  0
TEXT
  5
2D0
  8
0
 62
     7
 10
285.6458623088000195
 20
24.4860562892000004
 30
0.0
 40
1.5
  1
材料:
 41
0.75
  7
SLDTEXTSTYLE1
  0
ENDBLK
  5
2D2
  8
0
  0
BLOCK
  8
0
  2
*U56
 70
     1
 10
0.0
 20
0.0
 30
0.0
  3
*U56
  1

  0
TEXT
  5
2D4
  8
0
 62
     7
 10
342.6146405229000038
 20
60.7983567035916224
 30
0.0
 40
1.5
  1
不
 41
0.75
  7
SLDTEXTSTYLE1
  0
TEXT
  5
2D5
  8
0
 62
     7
 10
343.9646405229000266
 20
60.7983567035916224
 30
0.0
 40
1.5
  1
调
 41
0.75
  7
MtXpl_
  0
TEXT
  5
2D6
  8
0
 62
     7
 10
345.5735790703860744
 20
60.7983567035916224
 30
0.0
 40
1.5
  1
整工程
 41
0.75
  7
SLDTEXTSTYLE1
  0
TEXT
  5
2D7
  8
0
 62
     7
 10
349.6235790703860857
 20
60.7983567035916224
 30
0.0
 40
1.5
  1
图
 41
0.75
  7
MtXpl_
  0
TEXT
  5
2D8
  8
0
 62
     7
 10
351.2325176178720767
 20
60.7983567035916224
 30
0.0
 40
1.5
  1
比例
 41
0.75
  7
SLDTEXTSTYLE1
  0
ENDBLK
  5
2DA
  8
0
  0
BLOCK
  8
0
  2
*U57
 70
     1
 10
0.0
 20
0.0
 30
0.0
  3
*U57
  1

  0
TEXT
  5
2DC
  8
0
 62
     7
 10
383.3275816993000262
 20
60.6421712503324031
 30
0.0
 40
1.5
  1
修
 41
0.75
  7
SLDTEXTSTYLE1
  0
TEXT
  5
2DD
  8
0
 62
     7
 10
384.6775816992999921
 20
60.6421712503324031
 30
0.0
 40
1.5
  1
订
 41
0.75
  7
MtXpl_
  0
ENDBLK
  5
2DF
  8
0
  0
BLOCK
  8
0
  2
*U58
 70
     1
 10
0.0
 20
0.0
 30
0.0
  3
*U58
  1

  0
TEXT
  5
2E1
  8
0
 62
     7
 10
329.8870528583876762
 20
44.8080227966189923
 30
0.0
 40
1.5
  1
标题
 41
0.75
  7
MtXpl_
  0
TEXT
  5
2E2
  8
0
 62
     7
 10
333.1049299533597718
 20
44.8080227966189923
 30
0.0
 40
1.5
  1
:
 41
0.75
  7
SLDTEXTSTYLE1
  0
ENDBLK
  5
2E4
  8
0
  0
BLOCK
  8
0
  2
*U59
 70
     1
 10
0.0
 20
0.0
 30
0.0
  3
*U59
  1

  0
TEXT
  5
2E6
  8
0
 62
     7
 10
329.6286535299000207
 20
24.2514194176916185
 30
0.0
 40
1.5
  1
工程
 41
0.75
  7
SLDTEXTSTYLE1
  0
TEXT
  5
2E7
  8
0
 62
     7
 10
332.3286535299000093
 20
24.2514194176916185
 30
0.0
 40
1.5
  1
图
 41
0.75
  7
MtXpl_
  0
TEXT
  5
2E8
  8
0
 62
     7
 10
333.9375920773861139
 20
24.2514194176916185
 30
0.0
 40
1.5
  1
号
 41
0.75
  7
SLDTEXTSTYLE1
  0
ENDBLK
  5
2EA
  8
0
  0
BLOCK
  8
0
  2
*U60
 70
     1
 10
0.0
 20
0.0
 30
0.0
  3
*U60
  1

  0
TEXT
  5
2EC
  8
0
 62
     7
 10
330.0739661174999924
 20
11.4000872745000006
 30
0.0
 40
1.5
  1
比例:1:1
 41
0.75
  7
SLDTEXTSTYLE1
  0
ENDBLK
  5
2EE
  8
0
  0
BLOCK
  8
0
  2
*U61
 70
     1
 10
0.0
 20
0.0
 30
0.0
  3
*U61
  1

  0
TEXT
  5
2F0
  8
0
 62
     7
 10
374.2746165879619866
 20
11.1654504029916204
 30
0.0
 40
1.5
  1
图纸 
 41
0.6944444444000001
  7
MtXpl_
  0
TEXT
  5
2F1
  8
0
 62
     7
 10
377.9990113735710224
 20
11.1654504029916204
 30
0.0
 40
1.5
  1
1 (共1)
 41
0.6944444444000001
  7
SLDTEXTSTYLE2
  0
ENDBLK
  5
2F3
  8
0
  0
BLOCK
  8
0
  2
*U62
 70
     1
 10
0.0
 20
0.0
 30
0.0
  3
*U62
  1

  0
TEXT
  5
2F5
  8
0
 62
     7
 10
400.8711564345999818
 20
21.4959719022999991
 30
0.0
 40
2.9104166667000002
  1
A3
 41
0.75
  7
SLDTEXTSTYLE0
  0
ENDBLK
  5
2F7
  8
0
  0
BLOCK
  8
0
  2
*U63
 70
     1
 10
0.0
 20
0.0
 30
0.0
  3
*U63
  1

  0
TEXT
  5
2F9
  8
0
 62
     7
 10
285.6178111281000156
 20
11.4507119036000002
 30
0.0
 40
1.498599999999999
  1
重量:
 41
0.75
  7
SLDTEXTSTYLE1
  0
ENDBLK
  5
2FB
  8
0
  0
BLOCK
  8
0
  2
*U64
 70
     1
 10
0.0
 20
0.0
 30
0.0
  3
*U64
  1

  0
TEXT
  5
2FD
  8
0
 62
     7
 10
328.8990986689000238
 20
17.2569109673000014
 30
0.0
 40
6.3499999999999988
  1
cylindrical_groove
 41
0.75
  7
SLDTEXTSTYLE0
  0
ENDBLK
  5
2FF
  8
0
  0
BLOCK
  8
0
  2
*U65
 70
     1
 10
0.0
 20
0.0
 30
0.0
  3
*U65
  1

  0
TEXT
  5
340
  8
FORMAT
 62
     0
 10
144.4283910091600092
 20
150.823776065444406
 30
0.0
 40
3.5
  1
\U+220540,00
  0
ENDBLK
  5
342
  8
0
  0
BLOCK
  8
0
  2
*U66
 70
     1
 10
0.0
 20
0.0
 30
0.0
  3
*U66
  1

  0
TEXT
  5
344
  8
FORMAT
 62
     0
 10
132.6298151024381866
 20
172.0492076282465916
 30
0.0
 40
3.5
  1
\U+220560,00
  0
ENDBLK
  5
346
  8
0
  0
BLOCK
  8
0
  2
*U67
 70
     1
 10
0.0
 20
0.0
 30
0.0
  3
*U67
  1

  0
TEXT
  5
348
  8
FORMAT
 62
     0
 10
256.1840000000000259
 20
168.4742830278341046
 30
0.0
 40
3.5
  1
10,00
  0
ENDBLK
  5
34A
  8
0
  0
BLOCK
  8
0
  2
*U68
 70
     1
 10
0.0
 20
0.0
 30
0.0
  3
*U68
  1

  0
TEXT
  5
34C
  8
FORMAT
 62
     0
 10
267.103999999999985
 20
156.1640648222245886
 30
0.0
 40
3.5
  1
15,00
  0
ENDBLK
  5
34E
  8
0
  0
BLOCK
  8
0
  2
*U69
 70
     1
 10
0.0
 20
0.0
 30
0.0
  3
*U69
  1

  0
TEXT
  5
350
  8
FORMAT
 62
     0
 10
235.083333333333286
 20
188.8788916179915134
 30
0.0
 40
3.5
  1
40,00
  0
ENDBLK
  5
352
  8
0
  0
ENDSEC
  0
SECTION
  2
ENTITIES
  0
LINE
  5
74
  8
0
  6
CONTINUOUS
 62
     7
 10
230.0
 20
14.25
 30
0.0
 11
410.0
 21
14.25
 31
0.0
  0
LINE
  5
75
  8
0
  6
CONTINUOUS
 62
     7
 10
410.0
 20
48.25
 30
0.0
 11
230.0
 21
48.25
 31
0.0
  0
LINE
  5
76
  8
0
  6
CONTINUOUS
 62
     7
 10
230.0
 20
65.25
 30
0.0
 11
410.0
 21
65.25
 31
0.0
  0
LINE
  5
77
  8
0
  6
CONTINUOUS
 62
     7
 10
256.9909524338000892
 20
48.25
 30
0.0
 11
256.9909524338000892
 21
10.0
 31
0.0
  0
LINE
  5
78
  8
0
  6
CONTINUOUS
 62
     7
 10
328.8000000000000114
 20
31.25
 30
0.0
 11
230.0
 21
31.25
 31
0.0
  0
LINE
  5
79
  8
0
  6
CONTINUOUS
 62
     7
 10
328.8000000000000114
 20
35.5
 30
0.0
 11
230.0
 21
35.5
 31
0.0
  0
LINE
  5
7A
  8
0
  6
CONTINUOUS
 62
     7
 10
328.8000000000000114
 20
39.75
 30
0.0
 11
230.0
 21
39.75
 31
0.0
  0
LINE
  5
7B
  8
0
  6
CONTINUOUS
 62
     7
 10
328.8000000000000114
 20
44.0
 30
0.0
 11
230.0
 21
44.0
 31
0.0
  0
LINE
  5
7C
  8
0
  6
CONTINUOUS
 62
     7
 10
284.6000000000000227
 20
10.0
 30
0.0
 11
284.6000000000000227
 21
48.25
 31
0.0
  0
LINE
  5
7D
  8
0
  6
CONTINUOUS
 62
     7
 10
230.0
 20
65.25
 30
0.0
 11
230.0
 21
10.0
 31
0.0
  0
LINE
  5
7E
  8
0
  6
CONTINUOUS
 62
     7
 10
237.8000000000000114
 20
48.25
 30
0.0
 11
237.8000000000000114
 21
10.0
 31
0.0
  0
LINE
  5
7F
  8
0
  6
CONTINUOUS
 62
     7
 10
263.8000000000000114
 20
48.25
 30
0.0
 11
263.8000000000000114
 21
65.25
 31
0.0
  0
LINE
  5
80
  8
0
  6
CONTINUOUS
 62
     7
 10
274.3989261634999934
 20
48.25
 30
0.0
 11
274.3989261634999934
 21
10.0
 31
0.0
  0
LINE
  5
81
  8
0
  6
CONTINUOUS
 62
     7
 10
295.0
 20
31.25
 30
0.0
 11
295.0
 21
48.25
 31
0.0
  0
LINE
  5
82
  8
0
  6
CONTINUOUS
 62
     7
 10
284.6000000000000227
 20
18.5
 30
0.0
 11
230.0
 21
18.5
 31
0.0
  0
LINE
  5
83
  8
0
  6
CONTINUOUS
 62
     7
 10
310.6000000000000227
 20
65.25
 30
0.0
 11
310.6000000000000227
 21
27.0
 31
0.0
  0
LINE
  5
84
  8
0
  6
CONTINUOUS
 62
     7
 10
284.6000000000000227
 20
22.7499280000000006
 30
0.0
 11
230.0
 21
22.7499280000000006
 31
0.0
  0
LINE
  5
85
  8
0
  6
CONTINUOUS
 62
     7
 10
284.6000000000000227
 20
27.0
 30
0.0
 11
230.0
 21
27.0
 31
0.0
  0
LINE
  5
86
  8
0
  6
CONTINUOUS
 62
     7
 10
284.6000000000000227
 20
27.0
 30
0.0
 11
410.0
 21
27.0
 31
0.0
  0
LINE
  5
87
  8
0
  6
CONTINUOUS
 62
     7
 10
328.8000000000000114
 20
65.25
 30
0.0
 11
328.8000000000000114
 21
10.0
 31
0.0
  0
LINE
  5
88
  8
0
  6
CONTINUOUS
 62
     7
 10
373.0
 20
10.0
 30
0.0
 11
373.0
 21
14.25
 31
0.0
  0
LINE
  5
89
  8
0
  6
CONTINUOUS
 62
     7
 10
380.8000000000000114
 20
58.875
 30
0.0
 11
380.8000000000000114
 21
65.25
 31
0.0
  0
LINE
  5
8A
  8
0
  6
CONTINUOUS
 62
     7
 10
397.0
 20
14.25
 30
0.0
 11
397.0
 21
27.0
 31
0.0
  0
LINE
  5
8B
  8
0
  6
CONTINUOUS
 62
     7
 10
410.0
 20
58.875
 30
0.0
 11
328.8000000000000114
 21
58.875
 31
0.0
  0
LINE
  5
8C
  8
0
  6
CONTINUOUS
 62
     7
 10
410.0
 20
18.5
 30
0.0
 11
397.0
 21
18.5
 31
0.0
  0
LINE
  5
8D
  8
0
  6
CONTINUOUS
 62
     7
 10
20.0
 20
10.0
 30
0.0
 11
20.0
 21
287.0
 31
0.0
  0
LINE
  5
8E
  8
0
  6
CONTINUOUS
 62
     7
 10
20.0
 20
287.0
 30
0.0
 11
410.0
 21
287.0
 31
0.0
  0
LINE
  5
8F
  8
0
  6
CONTINUOUS
 62
     7
 10
410.0
 20
287.0
 30
0.0
 11
410.0
 21
10.0
 31
0.0
  0
LINE
  5
90
  8
0
  6
CONTINUOUS
 62
     7
 10
410.0
 20
10.0
 30
0.0
 11
20.0
 21
10.0
 31
0.0
  0
LINE
  5
91
  8
0
  6
CONTINUOUS
 62
     7
 10
15.0
 20
5.0
 30
0.0
 11
15.0
 21
292.0
 31
0.0
  0
LINE
  5
92
  8
0
  6
CONTINUOUS
 62
     7
 10
15.0
 20
292.0
 30
0.0
 11
415.0
 21
292.0
 31
0.0
  0
LINE
  5
93
  8
0
  6
CONTINUOUS
 62
     7
 10
415.0
 20
292.0
 30
0.0
 11
415.0
 21
5.0
 31
0.0
  0
LINE
  5
94
  8
0
  6
CONTINUOUS
 62
     7
 10
415.0
 20
5.0
 30
0.0
 11
15.0
 21
5.0
 31
0.0
  0
LINE
  5
95
  8
0
  6
CONTINUOUS
 62
     7
 10
15.0
 20
148.5
 30
0.0
 11
25.0
 21
148.5
 31
0.0
  0
LINE
  5
96
  8
0
  6
CONTINUOUS
 62
     7
 10
215.0
 20
292.0
 30
0.0
 11
215.0
 21
282.0
 31
0.0
  0
LINE
  5
97
  8
0
  6
CONTINUOUS
 62
     7
 10
415.0
 20
148.5
 30
0.0
 11
405.0
 21
148.5
 31
0.0
  0
LINE
  5
98
  8
0
  6
CONTINUOUS
 62
     7
 10
215.0
 20
5.0
 30
0.0
 11
215.0
 21
15.0
 31
0.0
  0
LINE
  5
99
  8
0
  6
CONTINUOUS
 62
     7
 10
20.0
 20
48.5
 30
0.0
 11
15.0
 21
48.5
 31
0.0
  0
LINE
  5
9A
  8
0
  6
CONTINUOUS
 62
     7
 10
410.0
 20
48.5
 30
0.0
 11
415.0
 21
48.5
 31
0.0
  0
LINE
  5
9B
  8
0
  6
CONTINUOUS
 62
     7
 10
20.0
 20
98.5000000000000142
 30
0.0
 11
15.0
 21
98.5000000000000142
 31
0.0
  0
LINE
  5
9C
  8
0
  6
CONTINUOUS
 62
     7
 10
410.0
 20
98.5000000000000142
 30
0.0
 11
415.0
 21
98.5000000000000142
 31
0.0
  0
LINE
  5
9D
  8
0
  6
CONTINUOUS
 62
     7
 10
20.0
 20
148.5
 30
0.0
 11
15.0
 21
148.5
 31
0.0
  0
LINE
  5
9E
  8
0
  6
CONTINUOUS
 62
     7
 10
410.0
 20
148.5
 30
0.0
 11
415.0
 21
148.5
 31
0.0
  0
LINE
  5
9F
  8
0
  6
CONTINUOUS
 62
     7
 10
20.0
 20
198.5
 30
0.0
 11
15.0
 21
198.5
 31
0.0
  0
LINE
  5
A0
  8
0
  6
CONTINUOUS
 62
     7
 10
410.0
 20
198.5
 30
0.0
 11
415.0
 21
198.5
 31
0.0
  0
LINE
  5
A1
  8
0
  6
CONTINUOUS
 62
     7
 10
20.0
 20
248.5
 30
0.0
 11
15.0
 21
248.5
 31
0.0
  0
LINE
  5
A2
  8
0
  6
CONTINUOUS
 62
     7
 10
410.0
 20
248.5
 30
0.0
 11
415.0
 21
248.5
 31
0.0
  0
LINE
  5
A3
  8
0
  6
CONTINUOUS
 62
     7
 10
65.0
 20
287.0
 30
0.0
 11
65.0
 21
292.0
 31
0.0
  0
LINE
  5
A4
  8
0
  6
CONTINUOUS
 62
     7
 10
65.0
 20
10.0
 30
0.0
 11
65.0
 21
5.0
 31
0.0
  0
LINE
  5
A5
  8
0
  6
CONTINUOUS
 62
     7
 10
115.0
 20
287.0
 30
0.0
 11
115.0
 21
292.0
 31
0.0
  0
LINE
  5
A6
  8
0
  6
CONTINUOUS
 62
     7
 10
115.0
 20
10.0
 30
0.0
 11
115.0
 21
5.0
 31
0.0
  0
LINE
  5
A7
  8
0
  6
CONTINUOUS
 62
     7
 10
165.0
 20
287.0
 30
0.0
 11
165.0
 21
292.0
 31
0.0
  0
LINE
  5
A8
  8
0
  6
CONTINUOUS
 62
     7
 10
165.0
 20
10.0
 30
0.0
 11
165.0
 21
5.0
 31
0.0
  0
LINE
  5
A9
  8
0
  6
CONTINUOUS
 62
     7
 10
215.0
 20
287.0
 30
0.0
 11
215.0
 21
292.0
 31
0.0
  0
LINE
  5
AA
  8
0
  6
CONTINUOUS
 62
     7
 10
215.0
 20
10.0
 30
0.0
 11
215.0
 21
5.0
 31
0.0
  0
LINE
  5
AB
  8
0
  6
CONTINUOUS
 62
     7
 10
265.0
 20
287.0
 30
0.0
 11
265.0
 21
292.0
 31
0.0
  0
LINE
  5
AC
  8
0
  6
CONTINUOUS
 62
     7
 10
265.0
 20
10.0
 30
0.0
 11
265.0
 21
5.0
 31
0.0
  0
LINE
  5
AD
  8
0
  6
CONTINUOUS
 62
     7
 10
315.0
 20
287.0
 30
0.0
 11
315.0
 21
292.0
 31
0.0
  0
LINE
  5
AE
  8
0
  6
CONTINUOUS
 62
     7
 10
315.0
 20
10.0
 30
0.0
 11
315.0
 21
5.0
 31
0.0
  0
LINE
  5
AF
  8
0
  6
CONTINUOUS
 62
     7
 10
365.0
 20
287.0
 30
0.0
 11
365.0
 21
292.0
 31
0.0
  0
LINE
  5
B0
  8
0
  6
CONTINUOUS
 62
     7
 10
365.0
 20
10.0
 30
0.0
 11
365.0
 21
5.0
 31
0.0
  0
INSERT
  5
B2
  8
FORMAT
  2
*U10
 10
0.0
 20
0.0
 30
0.0
  0
INSERT
  5
B3
  8
FORMAT
  2
*U11
 10
0.0
 20
0.0
 30
0.0
  0
INSERT
  5
B4
  8
FORMAT
  2
*U12
 10
0.0
 20
0.0
 30
0.0
  0
INSERT
  5
B5
  8
FORMAT
  2
*U13
 10
0.0
 20
0.0
 30
0.0
  0
INSERT
  5
B6
  8
FORMAT
  2
*U14
 10
0.0
 20
0.0
 30
0.0
  0
INSERT
  5
B7
  8
FORMAT
  2
*U15
 10
0.0
 20
0.0
 30
0.0
  0
INSERT
  5
B8
  8
FORMAT
  2
*U16
 10
0.0
 20
0.0
 30
0.0
  0
INSERT
  5
B9
  8
FORMAT
  2
*U17
 10
0.0
 20
0.0
 30
0.0
  0
INSERT
  5
BA
  8
FORMAT
  2
*U18
 10
0.0
 20
0.0
 30
0.0
  0
INSERT
  5
BB
  8
FORMAT
  2
*U19
 10
0.0
 20
0.0
 30
0.0
  0
INSERT
  5
BC
  8
FORMAT
  2
*U20
 10
0.0
 20
0.0
 30
0.0
  0
INSERT
  5
BD
  8
FORMAT
  2
*U21
 10
0.0
 20
0.0
 30
0.0
  0
INSERT
  5
BE
  8
FORMAT
  2
*U22
 10
0.0
 20
0.0
 30
0.0
  0
INSERT
  5
BF
  8
FORMAT
  2
*U23
 10
0.0
 20
0.0
 30
0.0
  0
INSERT
  5
C0
  8
FORMAT
  2
*U24
 10
0.0
 20
0.0
 30
0.0
  0
INSERT
  5
C1
  8
FORMAT
  2
*U25
 10
0.0
 20
0.0
 30
0.0
  0
INSERT
  5
C2
  8
FORMAT
  2
*U26
 10
0.0
 20
0.0
 30
0.0
  0
INSERT
  5
C3
  8
FORMAT
  2
*U27
 10
0.0
 20
0.0
 30
0.0
  0
INSERT
  5
C4
  8
FORMAT
  2
*U28
 10
0.0
 20
0.0
 30
0.0
  0
INSERT
  5
C5
  8
FORMAT
  2
*U29
 10
0.0
 20
0.0
 30
0.0
  0
INSERT
  5
C6
  8
FORMAT
  2
*U30
 10
0.0
 20
0.0
 30
0.0
  0
INSERT
  5
C7
  8
FORMAT
  2
*U31
 10
0.0
 20
0.0
 30
0.0
  0
INSERT
  5
C8
  8
FORMAT
  2
*U32
 10
0.0
 20
0.0
 30
0.0
  0
INSERT
  5
C9
  8
FORMAT
  2
*U33
 10
0.0
 20
0.0
 30
0.0
  0
INSERT
  5
CA
  8
FORMAT
  2
*U34
 10
0.0
 20
0.0
 30
0.0
  0
INSERT
  5
CB
  8
FORMAT
  2
*U35
 10
0.0
 20
0.0
 30
0.0
  0
INSERT
  5
CC
  8
FORMAT
  2
*U36
 10
0.0
 20
0.0
 30
0.0
  0
INSERT
  5
CD
  8
FORMAT
  2
*U37
 10
0.0
 20
0.0
 30
0.0
  0
INSERT
  5
CF
  8
FORMAT
  2
*U38
 10
0.0
 20
0.0
 30
0.0
  0
INSERT
  5
D0
  8
FORMAT
  2
*U39
 10
0.0
 20
0.0
 30
0.0
  0
INSERT
  5
D1
  8
FORMAT
  2
*U40
 10
0.0
 20
0.0
 30
0.0
  0
INSERT
  5
D2
  8
FORMAT
  2
*U41
 10
0.0
 20
0.0
 30
0.0
  0
INSERT
  5
D3
  8
FORMAT
  2
*U42
 10
0.0
 20
0.0
 30
0.0
  0
INSERT
  5
DD
  8
0
  6
CONTINUOUS
 62
     7
  2
SW_NOTE_0
 10
230.5936687456000129
 20
61.9873698743000006
 30
0.0
  0
INSERT
  5
DE
  8
FORMAT
  2
*U49
 10
0.0
 20
0.0
 30
0.0
  0
INSERT
  5
E4
  8
0
  6
CONTINUOUS
 62
     7
  2
SW_NOTE_0_1
 10
311.3092156862999786
 20
62.0694896429999972
 30
0.0
  0
INSERT
  5
E5
  8
FORMAT
  2
*U52
 10
0.0
 20
0.0
 30
0.0
  0
INSERT
  5
E6
  8
FORMAT
  2
*U53
 10
0.0
 20
0.0
 30
0.0
  0
INSERT
  5
E7
  8
FORMAT
  2
*U54
 10
0.0
 20
0.0
 30
0.0
  0
INSERT
  5
E8
  8
FORMAT
  2
*U55
 10
0.0
 20
0.0
 30
0.0
  0
INSERT
  5
E9
  8
FORMAT
  2
*U56
 10
0.0
 20
0.0
 30
0.0
  0
INSERT
  5
EA
  8
FORMAT
  2
*U57
 10
0.0
 20
0.0
 30
0.0
  0
INSERT
  5
EB
  8
FORMAT
  2
*U58
 10
0.0
 20
0.0
 30
0.0
  0
INSERT
  5
EC
  8
FORMAT
  2
*U59
 10
0.0
 20
0.0
 30
0.0
  0
INSERT
  5
ED
  8
FORMAT
  2
*U60
 10
0.0
 20
0.0
 30
0.0
  0
INSERT
  5
EF
  8
FORMAT
  2
*U61
 10
0.0
 20
0.0
 30
0.0
  0
INSERT
  5
F0
  8
FORMAT
  2
*U62
 10
0.0
 20
0.0
 30
0.0
  0
INSERT
  5
F1
  8
FORMAT
  2
*U63
 10
0.0
 20
0.0
 30
0.0
  0
INSERT
  5
F2
  8
FORMAT
  2
*U64
 10
0.0
 20
0.0
 30
0.0
  0
CIRCLE
  5
F3
  8
0
  6
CONTINUOUS
 62
     7
 10
94.5000000000000142
 20
110.6899999999999977
 30
0.0
 40
30.0
  0
INSERT
  5
FF
  8
0
  6
CONTINUOUS
 62
     7
  2
SW_CENTERMARKSYMBOL_0
 10
94.5000000000000142
 20
110.6899999999999977
 30
0.0
  0
LINE
  5
100
  8
0
  6
CONTINUOUS
 62
     7
 10
64.5
 20
249.4900000000000091
 30
0.0
 11
64.5
 21
234.4900000000000091
 31
0.0
  0
LINE
  5
101
  8
0
  6
CONTINUOUS
 62
     7
 10
124.5
 20
234.4900000000000091
 30
0.0
 11
124.5
 21
249.4900000000000091
 31
0.0
  0
LINE
  5
102
  8
0
  6
CONTINUOUS
 62
     7
 10
64.5
 20
224.4900000000000091
 30
0.0
 11
64.5
 21
209.4900000000000091
 31
0.0
  0
LINE
  5
103
  8
0
  6
CONTINUOUS
 62
     7
 10
124.5
 20
209.4900000000000091
 30
0.0
 11
124.5
 21
224.4900000000000091
 31
0.0
  0
LINE
  5
104
  8
0
  6
CONTINUOUS
 62
     7
 10
74.5
 20
234.4900000000000091
 30
0.0
 11
74.5
 21
224.4900000000000091
 31
0.0
  0
LINE
  5
105
  8
0
  6
CONTINUOUS
 62
     7
 10
114.5
 20
224.4900000000000091
 30
0.0
 11
114.5
 21
234.4900000000000091
 31
0.0
  0
LINE
  5
106
  8
0
  6
CONTINUOUS
 62
     7
 10
124.5
 20
249.4900000000000091
 30
0.0
 11
64.5
 21
249.4900000000000091
 31
0.0
  0
LINE
  5
107
  8
0
  6
CONTINUOUS
 62
     7
 10
64.5
 20
234.4900000000000091
 30
0.0
 11
124.5
 21
234.4900000000000091
 31
0.0
  0
LINE
  5
108
  8
0
  6
CONTINUOUS
 62
     7
 10
124.5
 20
209.4900000000000091
 30
0.0
 11
64.5
 21
209.4900000000000091
 31
0.0
  0
LINE
  5
109
  8
0
  6
CONTINUOUS
 62
     7
 10
64.5
 20
224.4900000000000091
 30
0.0
 11
124.5
 21
224.4900000000000091
 31
0.0
  0
LINE
  5
10A
  8
0
  6
CONTINUOUS
 62
     7
 10
261.5
 20
140.6899999999999977
 30
0.0
 11
246.5
 21
140.6899999999999977
 31
0.0
  0
LINE
  5
10B
  8
0
  6
CONTINUOUS
 62
     7
 10
246.5
 20
80.6899999999999977
 30
0.0
 11
261.5
 21
80.6899999999999977
 31
0.0
  0
LINE
  5
10C
  8
0
  6
CONTINUOUS
 62
     7
 10
236.5
 20
140.6899999999999977
 30
0.0
 11
221.5
 21
140.6899999999999977
 31
0.0
  0
LINE
  5
10D
  8
0
  6
CONTINUOUS
 62
     7
 10
221.5
 20
80.6899999999999977
 30
0.0
 11
236.5
 21
80.6899999999999977
 31
0.0
  0
LINE
  5
10E
  8
0
  6
CONTINUOUS
 62
     7
 10
246.5
 20
130.6899999999999977
 30
0.0
 11
236.5
 21
130.6899999999999977
 31
0.0
  0
LINE
  5
10F
  8
0
  6
CONTINUOUS
 62
     7
 10
236.5
 20
90.6899999999999977
 30
0.0
 11
246.5
 21
90.6899999999999977
 31
0.0
  0
LINE
  5
110
  8
0
  6
CONTINUOUS
 62
     7
 10
261.5
 20
110.6899999999999977
 30
0.0
 11
261.5
 21
140.6899999999999977
 31
0.0
  0
LINE
  5
111
  8
0
  6
CONTINUOUS
 62
     7
 10
261.5
 20
80.6899999999999977
 30
0.0
 11
261.5
 21
110.6899999999999977
 31
0.0
  0
LINE
  5
112
  8
0
  6
CONTINUOUS
 62
     7
 10
246.5
 20
140.6899999999999977
 30
0.0
 11
246.5
 21
80.6899999999999977
 31
0.0
  0
LINE
  5
113
  8
0
  6
CONTINUOUS
 62
     7
 10
221.5
 20
110.6899999999999977
 30
0.0
 11
221.5
 21
140.6899999999999977
 31
0.0
  0
LINE
  5
114
  8
0
  6
CONTINUOUS
 62
     7
 10
221.5
 20
80.6899999999999977
 30
0.0
 11
221.5
 21
110.6899999999999977
 31
0.0
  0
LINE
  5
115
  8
0
  6
CONTINUOUS
 62
     7
 10
236.5
 20
140.6899999999999977
 30
0.0
 11
236.5
 21
80.6899999999999977
 31
0.0
  0
CIRCLE
  5
16B
  8
FORMAT
 10
94.5000000000000142
 20
110.6899999999999977
 30
0.0
 40
20.0
  0
DIMENSION
  5
16E
  8
FORMAT
  2
*D5
 10
78.7727526846018975
 20
98.3346897295007665
 30
0.0
 11
152.5950576758266948
 21
148.7164427321110907
 31
0.0
 70
   131
 15
110.2272473153981025
 25
123.0453102704991011
 35
0.0
 40
0.0
1001
ACAD
1000
DSTYLE
1002
{
1070
    41
1040
4.0800000000000001
1070
    42
1040
0.0
1070
    44
1040
2.0
1070
    73
1070
     1
1070
    74
1070
     1
1070
    78
1070
     1
1070
   140
1040
3.5
1070
   147
1040
1.524
1070
   179
1070
     2
1070
   284
1070
     1
1002
}
1001
ACAD_DSTYLE_DIMRADIAL_EXTENSION
1070
   387
1070
     1
1070
   388
1040
0.0
1070
   390
1040
0.0
  0
DIMENSION
  5
17C
  8
FORMAT
  2
*D6
 10
78.7323859415274967
 20
85.167806777178015
 30
0.0
 11
140.796481769104787
 21
169.9418742949133048
 31
0.0
 70
   131
 15
110.2676140584725033
 25
136.2121932228220089
 35
0.0
 40
0.0
1001
ACAD
1000
DSTYLE
1002
{
1070
    41
1040
4.0800000000000001
1070
    42
1040
0.0
1070
    44
1040
2.0
1070
    73
1070
     1
1070
    74
1070
     1
1070
    78
1070
     1
1070
   140
1040
3.5
1070
   147
1040
1.524
1070
   179
1070
     2
1070
   284
1070
     1
1002
}
1001
ACAD_DSTYLE_DIMRADIAL_EXTENSION
1070
   387
1070
     1
1070
   388
1040
0.0
1070
   390
1040
0.0
  0
DIMENSION
  5
189
  8
FORMAT
  2
*D7
 10
246.5
 20
166.3669496945007893
 30
0.0
 11
262.0173333333332835
 21
169.9326163611673906
 31
0.0
 70
     0
 13
236.5
 23
130.6899999999999977
 33
0.0
 14
246.5
 24
130.6899999999999977
 34
0.0
1001
ACAD
1000
DSTYLE
1002
{
1070
    41
1040
4.0800000000000001
1070
    42
1040
0.0
1070
    44
1040
2.0
1070
    73
1070
     1
1070
    74
1070
     1
1070
    78
1070
     1
1070
   140
1040
3.5
1070
   147
1040
1.524
1070
   179
1070
     2
1070
   284
1070
     1
1002
}
  0
DIMENSION
  5
198
  8
FORMAT
  2
*D8
 10
261.5
 20
154.0567314888911881
 30
0.0
 11
273.228999999999985
 21
157.622398155557903
 31
0.0
 70
     0
 13
246.5
 23
140.6899999999999977
 33
0.0
 14
261.5
 24
140.6899999999999977
 34
0.0
1001
ACAD
1000
DSTYLE
1002
{
1070
    41
1040
4.0800000000000001
1070
    42
1040
0.0
1070
    44
1040
2.0
1070
    73
1070
     1
1070
    74
1070
     1
1070
    78
1070
     1
1070
   140
1040
3.5
1070
   147
1040
1.524
1070
   179
1070
     2
1070
   284
1070
     1
1002
}
  0
DIMENSION
  5
1A6
  8
FORMAT
  2
*D9
 10
261.5
 20
186.7715582846581981
 30
0.0
 11
241.5
 21
190.337224951324913
 31
0.0
 70
     0
 13
221.5
 23
80.6899999999999977
 33
0.0
 14
261.5
 24
80.6899999999999977
 34
0.0
1001
ACAD
1000
DSTYLE
1002
{
1070
    41
1040
4.0800000000000001
1070
    42
1040
0.0
1070
    44
1040
2.0
1070
    73
1070
     1
1070
    74
1070
     1
1070
    78
1070
     1
1070
   140
1040
3.5
1070
   147
1040
1.524
1070
   179
1070
     2
1070
   284
1070
     1
1002
}
  0
ENDSEC
  0
EOF
