  0
SECTION
  2
HEADER
  9
$ACADVER
  1
AC1009
  9
$INSBASE
 10
0.0
 20
0.0
 30
0.0
  9
$EXTMIN
 10
0.0
 20
0.0
 30
0.0
  9
$EXTMAX
 10
610.406572273595657
 20
431.6446475363284208
 30
0.0
  9
$LIMMIN
 10
0.0
 20
0.0
  9
$LIMMAX
 10
297.0
 20
210.0
  9
$ORTHOMODE
 70
     1
  9
$REGENMODE
 70
     1
  9
$FILLMODE
 70
     1
  9
$QTEXTMODE
 70
     0
  9
$MIRRTEXT
 70
     0
  9
$DRAGMODE
 70
     2
  9
$LTSCALE
 40
0.5
  9
$OSMODE
 70
   423
  9
$ATTMODE
 70
     1
  9
$TEXTSIZE
 40
3.5
  9
$TRACEWID
 40
1.0
  9
$TEXTSTYLE
  7
国标汉字3_5
  9
$CLAYER
  8
细实线
  9
$CELTYPE
  6
BYLAYER
  9
$CECOLOR
 62
   256
  9
$DIMSCALE
 40
1.0
  9
$DIMASZ
 40
4.0
  9
$DIMEXO
 40
0.0
  9
$DIMDLI
 40
6.0
  9
$DIMRND
 40
0.0
  9
$DIMDLE
 40
0.0
  9
$DIMEXE
 40
2.0
  9
$DIMTP
 40
0.0
  9
$DIMTM
 40
0.0
  9
$DIMTXT
 40
3.5
  9
$DIMCEN
 40
3.5
  9
$DIMTSZ
 40
0.0
  9
$DIMTOL
 70
     0
  9
$DIMLIM
 70
     0
  9
$DIMTIH
 70
     0
  9
$DIMTOH
 70
     1
  9
$DIMSE1
 70
     0
  9
$DIMSE2
 70
     0
  9
$DIMTAD
 70
     1
  9
$DIMZIN
 70
     8
  9
$DIMBLK
  1

  9
$DIMASO
 70
     1
  9
$DIMSHO
 70
     1
  9
$DIMPOST
  1

  9
$DIMAPOST
  1

  9
$DIMALT
 70
     0
  9
$DIMALTD
 70
     3
  9
$DIMALTF
 40
0.03937007874016
  9
$DIMLFAC
 40
1.0
  9
$DIMTOFL
 70
     1
  9
$DIMTVP
 40
0.0
  9
$DIMTIX
 70
     0
  9
$DIMSOXD
 70
     0
  9
$DIMSAH
 70
     0
  9
$DIMBLK1
  1

  9
$DIMBLK2
  1

  9
$DIMSTYLE
  2
国标尺寸
  9
$DIMCLRD
 70
     0
  9
$DIMCLRE
 70
     0
  9
$DIMCLRT
 70
     0
  9
$DIMTFAC
 40
1.0
  9
$DIMGAP
 40
1.0
  9
$LUNITS
 70
     2
  9
$LUPREC
 70
     1
  9
$SKETCHINC
 40
1.0
  9
$FILLETRAD
 40
4.0
  9
$AUNITS
 70
     1
  9
$AUPREC
 70
     1
  9
$MENU
  1
.
  9
$ELEVATION
 40
0.0
  9
$PELEVATION
 40
0.0
  9
$THICKNESS
 40
0.0
  9
$LIMCHECK
 70
     0
  9
$BLIPMODE
 70
     0
  9
$CHAMFERA
 40
0.0
  9
$CHAMFERB
 40
0.0
  9
$SKPOLY
 70
     0
  9
$TDCREATE
 40
2456549.6271874997764826
  9
$TDUPDATE
 40
2460358.8357523148879409
  9
$TDINDWG
 40
0.4440746296
  9
$TDUSRTIMER
 40
0.4440746296
  9
$USRTIMER
 70
     1
  9
$ANGBASE
 50
0.0
  9
$ANGDIR
 70
     0
  9
$PDMODE
 70
     0
  9
$PDSIZE
 40
0.0
  9
$PLINEWID
 40
0.0
  9
$COORDS
 70
     1
  9
$SPLFRAME
 70
     0
  9
$SPLINETYPE
 70
     6
  9
$SPLINESEGS
 70
     8
  9
$ATTDIA
 70
     1
  9
$ATTREQ
 70
     1
  9
$HANDLING
 70
     1
  9
$HANDSEED
  5
17CF
  9
$SURFTAB1
 70
     6
  9
$SURFTAB2
 70
     6
  9
$SURFTYPE
 70
     6
  9
$SURFU
 70
     6
  9
$SURFV
 70
     6
  9
$UCSNAME
  2

  9
$UCSORG
 10
0.0
 20
0.0
 30
0.0
  9
$UCSXDIR
 10
1.0
 20
0.0
 30
0.0
  9
$UCSYDIR
 10
0.0
 20
1.0
 30
0.0
  9
$PUCSNAME
  2

  9
$PUCSORG
 10
0.0
 20
0.0
 30
0.0
  9
$PUCSXDIR
 10
1.0
 20
0.0
 30
0.0
  9
$PUCSYDIR
 10
0.0
 20
1.0
 30
0.0
  9
$USERI1
 70
     0
  9
$USERI2
 70
     0
  9
$USERI3
 70
     0
  9
$USERI4
 70
     0
  9
$USERI5
 70
     0
  9
$USERR1
 40
0.0
  9
$USERR2
 40
0.0
  9
$USERR3
 40
0.0
  9
$USERR4
 40
0.0
  9
$USERR5
 40
0.0
  9
$WORLDVIEW
 70
     1
  9
$SHADEDGE
 70
     3
  9
$SHADEDIF
 70
    70
  9
$TILEMODE
 70
     1
  9
$MAXACTVP
 70
    64
  9
$PLIMCHECK
 70
     0
  9
$PEXTMIN
 10
0.0
 20
0.0
 30
0.0
  9
$PEXTMAX
 10
0.0
 20
0.0
 30
0.0
  9
$PLIMMIN
 10
0.0
 20
0.0
  9
$PLIMMAX
 10
12.0
 20
9.0
  9
$UNITMODE
 70
     0
  9
$VISRETAIN
 70
     1
  9
$PLINEGEN
 70
     0
  9
$PSLTSCALE
 70
     1
  0
ENDSEC
  0
SECTION
  2
TABLES
  0
TABLE
  2
VPORT
 70
     1
  0
VPORT
  2
*ACTIVE
 70
     0
 10
0.0
 20
0.0
 11
1.0
 21
1.0
 12
297.0730786889653245
 22
215.5730173418785114
 13
0.0
 23
0.0
 14
10.0
 24
10.0
 15
10.0
 25
10.0
 16
0.0
 26
0.0
 36
1.0
 17
0.0
 27
0.0
 37
0.0
 40
359.056115465013022
 41
2.4502868068833652
 42
50.0
 43
0.0
 44
0.0
 50
0.0
 51
0.0
 71
     0
 72
  1000
 73
     1
 74
     3
 75
     0
 76
     0
 77
     0
 78
     0
  0
ENDTAB
  0
TABLE
  2
LTYPE
 70
     6
  0
LTYPE
  2
CONTINUOUS
 70
     0
  3
Solid line
 72
    65
 73
     0
 40
0.0
  0
LTYPE
  2
CENTER
 70
     0
  3
Center ____ _ ____ _ ____ _ ____ _ ____ _ ____
 72
    65
 73
     4
 40
50.7999999999999972
 49
31.75
 49
-6.3499999999999988
 49
6.3499999999999988
 49
-6.3499999999999988
  0
LTYPE
  2
DASHED
 70
     0
  3
Dashed __ __ __ __ __ __ __ __ __ __ __ __ __ _
 72
    65
 73
     2
 40
19.0500000000000007
 49
12.6999999999999993
 49
-6.3499999999999988
  0
LTYPE
  2
PHANTOM
 70
     0
  3
Phantom ______  __  __  ______  __  __  ______
 72
    65
 73
     6
 40
12.6999999999999993
 49
6.3499999999999988
 49
-1.27
 49
1.27
 49
-1.27
 49
1.27
 49
-1.27
  0
LTYPE
  2
CENTERX2
 70
     0
  3
Center (2x) ________  __  ________  __  _____
 72
    65
 73
     4
 40
20.3200000000000003
 49
12.6999999999999993
 49
-2.54
 49
2.54
 49
-2.54
  0
ENDTAB
  0
TABLE
  2
LAYER
 70
     9
  0
LAYER
  2
0
 70
     0
 62
     7
  6
CONTINUOUS
  0
LAYER
  2
点画线
 70
     0
 62
     1
  6
CENTER
  0
LAYER
  2
粗实线
 70
     0
 62
     7
  6
CONTINUOUS
  0
LAYER
  2
剖面线
 70
     0
 62
     3
  6
CONTINUOUS
  0
LAYER
  2
虚线
 70
     0
 62
     2
  6
DASHED
  0
LAYER
  2
细实线
 70
     0
 62
     3
  6
CONTINUOUS
  0
LAYER
  2
尺寸标注
 70
     0
 62
     7
  6
CONTINUOUS
  0
LAYER
  2
文字标注
 70
     0
 62
     7
  6
CONTINUOUS
  0
LAYER
  2
DEFPOINTS
 70
     0
 62
     7
  6
CONTINUOUS
  0
ENDTAB
  0
TABLE
  2
STYLE
 70
    12
  0
STYLE
  2
STANDARD
 70
     0
 40
0.0
 41
1.0
 50
0.0
 71
     0
 42
2.5
  3
txt
  4

  0
STYLE
  2
ANNOTATIVE
 70
     0
 40
0.0
 41
1.0
 50
0.0
 71
     0
 42
2.5
  3
txt
  4

  0
STYLE
  2

 70
     1
 40
0.0
 41
1.0
 50
0.0
 71
     0
 42
2.5
  3
ltypeshp.shx
  4

  0
STYLE
  2
国标汉字3_5
 70
     0
 40
3.5
 41
1.0
 50
0.0
 71
     0
 42
3.5
  3
gbeitc.shx
  4
gbcbig.shx
  0
STYLE
  2
SLDTEXTSTYLE0
 70
     0
 40
0.0
 41
0.75
 50
0.0
 71
     0
 42
3.5
  3
TXT
  4

  0
STYLE
  2
SLDTEXTSTYLE1
 70
     0
 40
0.0
 41
0.75
 50
0.0
 71
     0
 42
3.5
  3
TXT
  4
bigfont
  0
STYLE
  2
SLDTEXTSTYLE2
 70
     0
 40
0.0
 41
0.6944444444444445
 50
0.0
 71
     0
 42
3.5
  3
TXT
  4
bigfont
  0
STYLE
  2
SLDTEXTSTYLE3
 70
     0
 40
0.0
 41
0.7
 50
0.0
 71
     0
 42
3.5
  3
TXT
  4

  0
STYLE
  2
SLDTEXTSTYLE4
 70
     0
 40
0.0
 41
0.7
 50
0.0
 71
     0
 42
3.5
  3
TXT
  4
bigfont
  0
STYLE
  2
SLDTEXTSTYLE5
 70
     0
 40
0.0
 41
0.62
 50
0.0
 71
     0
 42
3.5
  3
TXT
  4

  0
STYLE
  2
MtXpl_MS_PGothic
 70
     0
 40
0.0
 41
1.0
 50
0.0
 71
     0
 42
3.5
  3
txt
  4

  0
STYLE
  2
MtXpl_
 70
     0
 40
0.0
 41
1.0
 50
0.0
 71
     0
 42
3.5
  3
txt
  4

  0
ENDTAB
  0
TABLE
  2
VIEW
 70
     1
  0
ENDTAB
  0
TABLE
  2
UCS
 70
     0
  0
ENDTAB
  0
TABLE
  2
APPID
 70
    16
  0
APPID
  2
ACAD
 70
     0
  0
APPID
  2
ACAD_PSEXT
 70
     0
  0
APPID
  2
ACADANNOPO
 70
     0
  0
APPID
  2
ACADANNOTATIVE
 70
     0
  0
APPID
  2
ACAD_DSTYLE_DIMJAG
 70
     0
  0
APPID
  2
ACAD_DSTYLE_DIMTALN
 70
     0
  0
APPID
  2
ACAD_MLEADERVER
 70
     0
  0
APPID
  2
ACAD_NAV_VCDISPLAY
 70
     0
  0
APPID
  2
ACAECLAYERSTANDARD
 70
     0
  0
APPID
  2
ACCMTRANSPARENCY
 70
     0
  0
APPID
  2
ACAD_DSTYLE_DIMBREAK
 70
     0
  0
APPID
  2
ACAD_EXEMPT_FROM_CAD_STANDARDS
 70
     0
  0
APPID
  2
GRADIENTCOLOR1ACI
 70
     0
  0
APPID
  2
GRADIENTCOLOR2ACI
 70
     0
  0
APPID
  2
ACAD_DSTYLE_DIMRADIAL_EXTENSION
 70
     0
  0
APPID
  2
ACAD_TC
 70
     0
  0
ENDTAB
  0
TABLE
  2
DIMSTYLE
 70
     5
  0
DIMSTYLE
  2
STANDARD
 70
     0
  3

  4

  5

  6

  7

 40
1.0
 41
0.18
 42
0.0625
 43
0.38
 44
0.18
 45
0.0
 46
0.0
 47
0.0
 48
0.0
140
0.18
141
0.09
142
0.0
143
25.3999999999999986
144
1.0
145
0.0
146
1.0
147
0.09
 71
     0
 72
     0
 73
     1
 74
     1
 75
     0
 76
     0
 77
     0
 78
     0
170
     0
171
     2
172
     0
173
     0
174
     0
175
     0
176
     0
177
     0
178
     0
  0
DIMSTYLE
  2
ANNOTATIVE
 70
     0
  3

  4

  5

  6

  7

 40
0.0
 41
2.5
 42
0.625
 43
3.75
 44
1.25
 45
0.0
 46
0.0
 47
0.0
 48
0.0
140
2.5
141
2.5
142
0.0
143
0.03937007874016
144
1.0
145
0.0
146
1.0
147
0.625
 71
     0
 72
     0
 73
     0
 74
     0
 75
     0
 76
     0
 77
     1
 78
     8
170
     0
171
     3
172
     1
173
     0
174
     0
175
     0
176
     0
177
     0
178
     0
  0
DIMSTYLE
  2
ISO-25
 70
     0
  3

  4

  5

  6

  7

 40
1.0
 41
2.5
 42
0.625
 43
3.75
 44
1.25
 45
0.0
 46
0.0
 47
0.0
 48
0.0
140
2.5
141
2.5
142
0.0
143
0.03937007874016
144
1.0
145
0.0
146
1.0
147
0.625
 71
     0
 72
     0
 73
     0
 74
     0
 75
     0
 76
     0
 77
     1
 78
     8
170
     0
171
     3
172
     1
173
     0
174
     0
175
     0
176
     0
177
     0
178
     0
  0
DIMSTYLE
  2
国标尺寸
 70
     0
  3

  4

  5

  6

  7

 40
1.0
 41
4.0
 42
0.0
 43
6.0
 44
2.0
 45
0.0
 46
0.0
 47
0.0
 48
0.0
140
3.5
141
3.5
142
0.0
143
0.03937007874016
144
1.0
145
0.0
146
1.0
147
1.0
 71
     0
 72
     0
 73
     0
 74
     1
 75
     0
 76
     0
 77
     1
 78
     8
170
     0
171
     3
172
     1
173
     0
174
     0
175
     0
176
     0
177
     0
178
     0
  0
ENDTAB
  0
ENDSEC
  0
SECTION
  2
BLOCKS
  0
BLOCK
  8
0
  2
$MODEL_SPACE
 70
     0
 10
0.0
 20
0.0
 30
0.0
  3
$MODEL_SPACE
  1

  0
ENDBLK
  5
21
  8
0
  0
BLOCK
 67
     1
  8
0
  2
$PAPER_SPACE
 70
     0
 10
0.0
 20
0.0
 30
0.0
  3
$PAPER_SPACE
  1

  0
ENDBLK
  5
D5
 67
     1
  8
0
  0
BLOCK
  8
0
  2
SW_NOTE_0
 70
     0
 10
0.0
 20
0.0
 30
0.0
  3
SW_NOTE_0
  1

  0
INSERT
  5
D40
  8
细实线
  2
*U15
 10
0.0
 20
0.0
 30
0.0
  0
INSERT
  5
D41
  8
细实线
  2
*U16
 10
0.0
 20
0.0
 30
0.0
  0
INSERT
  5
D42
  8
细实线
  2
*U17
 10
0.0
 20
0.0
 30
0.0
  0
INSERT
  5
D43
  8
细实线
  2
*U18
 10
0.0
 20
0.0
 30
0.0
  0
INSERT
  5
D44
  8
细实线
  2
*U19
 10
0.0
 20
0.0
 30
0.0
  0
INSERT
  5
D45
  8
细实线
  2
*U20
 10
0.0
 20
0.0
 30
0.0
  0
ENDBLK
  5
D46
  8
0
  0
BLOCK
  8
0
  2
SW_NOTE_0_1
 70
     0
 10
0.0
 20
0.0
 30
0.0
  3
SW_NOTE_0_1
  1

  0
INSERT
  5
D49
  8
细实线
  2
*U21
 10
0.0
 20
0.0
 30
0.0
  0
INSERT
  5
D4A
  8
细实线
  2
*U22
 10
0.0
 20
0.0
 30
0.0
  0
ENDBLK
  5
D4B
  8
0
  0
BLOCK
  8
0
  2
SW_CENTERMARKSYMBOL_0
 70
     0
 10
0.0
 20
0.0
 30
0.0
  3
SW_CENTERMARKSYMBOL_0
  1

  0
LINE
  5
D4E
  8
0
  6
CONTINUOUS
 62
     0
 10
0.0
 20
0.0
 30
0.0
 11
0.0
 21
2.5000000000000022
 31
0.0
  0
LINE
  5
D4F
  8
0
  6
CONTINUOUS
 62
     0
 10
0.0
 20
0.0
 30
0.0
 11
-2.5000000000000022
 21
0.0
 31
0.0
  0
LINE
  5
D50
  8
0
  6
CONTINUOUS
 62
     0
 10
0.0
 20
0.0
 30
0.0
 11
0.0
 21
-2.5000000000000022
 31
0.0
  0
LINE
  5
D51
  8
0
  6
CONTINUOUS
 62
     0
 10
0.0
 20
0.0
 30
0.0
 11
2.5000000000000022
 21
0.0
 31
0.0
  0
LINE
  5
D52
  8
0
  6
CONTINUOUS
 62
     0
 10
0.0
 20
5.0000000000000044
 30
0.0
 11
0.0
 21
27.5
 31
0.0
  0
LINE
  5
D53
  8
0
  6
CONTINUOUS
 62
     0
 10
-5.0000000000000044
 20
0.0
 30
0.0
 11
-27.5
 21
0.0
 31
0.0
  0
LINE
  5
D54
  8
0
  6
CONTINUOUS
 62
     0
 10
0.0
 20
-5.0000000000000044
 30
0.0
 11
0.0
 21
-27.5
 31
0.0
  0
LINE
  5
D55
  8
0
  6
CONTINUOUS
 62
     0
 10
5.0000000000000044
 20
0.0
 30
0.0
 11
27.5
 21
0.0
 31
0.0
  0
ENDBLK
  5
D56
  8
0
  0
BLOCK
  8
0
  2
SW_CENTERMARKSYMBOL_1
 70
     0
 10
0.0
 20
0.0
 30
0.0
  3
SW_CENTERMARKSYMBOL_1
  1

  0
LINE
  5
D59
  8
0
  6
CONTINUOUS
 62
     0
 10
0.0
 20
0.0
 30
0.0
 11
0.0
 21
2.4999999999999738
 31
0.0
  0
LINE
  5
D5A
  8
0
  6
CONTINUOUS
 62
     0
 10
0.0
 20
0.0
 30
0.0
 11
-2.5000000000000022
 21
0.0
 31
0.0
  0
LINE
  5
D5B
  8
0
  6
CONTINUOUS
 62
     0
 10
0.0
 20
0.0
 30
0.0
 11
0.0
 21
-2.5000000000000022
 31
0.0
  0
LINE
  5
D5C
  8
0
  6
CONTINUOUS
 62
     0
 10
0.0
 20
0.0
 30
0.0
 11
2.5000000000000022
 21
0.0
 31
0.0
  0
LINE
  5
D5D
  8
0
  6
CONTINUOUS
 62
     0
 10
0.0
 20
2.4999999999999738
 30
0.0
 11
0.0
 21
4.599999999999965
 31
0.0
  0
LINE
  5
D5E
  8
0
  6
CONTINUOUS
 62
     0
 10
-2.5000000000000022
 20
0.0
 30
0.0
 11
-4.5999999999999917
 21
0.0
 31
0.0
  0
LINE
  5
D5F
  8
0
  6
CONTINUOUS
 62
     0
 10
0.0
 20
-2.5000000000000022
 30
0.0
 11
0.0
 21
-4.5999999999999917
 31
0.0
  0
LINE
  5
D60
  8
0
  6
CONTINUOUS
 62
     0
 10
2.5000000000000022
 20
0.0
 30
0.0
 11
4.5999999999999917
 21
0.0
 31
0.0
  0
ENDBLK
  5
D61
  8
0
  0
BLOCK
  8
0
  2
SW_CENTERMARKSYMBOL_2
 70
     0
 10
0.0
 20
0.0
 30
0.0
  3
SW_CENTERMARKSYMBOL_2
  1

  0
LINE
  5
D64
  8
0
  6
CONTINUOUS
 62
     0
 10
0.0
 20
0.0
 30
0.0
 11
0.0
 21
2.5000000000000022
 31
0.0
  0
LINE
  5
D65
  8
0
  6
CONTINUOUS
 62
     0
 10
0.0
 20
0.0
 30
0.0
 11
-2.5000000000000022
 21
0.0
 31
0.0
  0
LINE
  5
D66
  8
0
  6
CONTINUOUS
 62
     0
 10
0.0
 20
0.0
 30
0.0
 11
0.0
 21
-2.5000000000000022
 31
0.0
  0
LINE
  5
D67
  8
0
  6
CONTINUOUS
 62
     0
 10
0.0
 20
0.0
 30
0.0
 11
2.5000000000000022
 21
0.0
 31
0.0
  0
LINE
  5
D68
  8
0
  6
CONTINUOUS
 62
     0
 10
0.0
 20
2.5000000000000022
 30
0.0
 11
0.0
 21
4.5999999999999917
 31
0.0
  0
LINE
  5
D69
  8
0
  6
CONTINUOUS
 62
     0
 10
-2.5000000000000022
 20
0.0
 30
0.0
 11
-4.599999999999965
 21
0.0
 31
0.0
  0
LINE
  5
D6A
  8
0
  6
CONTINUOUS
 62
     0
 10
0.0
 20
-2.5000000000000022
 30
0.0
 11
0.0
 21
-4.5999999999999917
 31
0.0
  0
LINE
  5
D6B
  8
0
  6
CONTINUOUS
 62
     0
 10
2.5000000000000022
 20
0.0
 30
0.0
 11
4.5999999999999917
 21
0.0
 31
0.0
  0
ENDBLK
  5
D6C
  8
0
  0
BLOCK
  8
0
  2
SW_CENTERMARKSYMBOL_3
 70
     0
 10
0.0
 20
0.0
 30
0.0
  3
SW_CENTERMARKSYMBOL_3
  1

  0
LINE
  5
D6F
  8
0
  6
CONTINUOUS
 62
     0
 10
0.0
 20
0.0
 30
0.0
 11
0.0
 21
2.5000000000000022
 31
0.0
  0
LINE
  5
D70
  8
0
  6
CONTINUOUS
 62
     0
 10
0.0
 20
0.0
 30
0.0
 11
-2.5000000000000022
 21
0.0
 31
0.0
  0
LINE
  5
D71
  8
0
  6
CONTINUOUS
 62
     0
 10
0.0
 20
0.0
 30
0.0
 11
0.0
 21
-2.5000000000000022
 31
0.0
  0
LINE
  5
D72
  8
0
  6
CONTINUOUS
 62
     0
 10
0.0
 20
0.0
 30
0.0
 11
2.5000000000000022
 21
0.0
 31
0.0
  0
LINE
  5
D73
  8
0
  6
CONTINUOUS
 62
     0
 10
0.0
 20
2.5000000000000022
 30
0.0
 11
0.0
 21
4.599999999999965
 31
0.0
  0
LINE
  5
D74
  8
0
  6
CONTINUOUS
 62
     0
 10
-2.5000000000000022
 20
0.0
 30
0.0
 11
-4.5999999999999917
 21
0.0
 31
0.0
  0
LINE
  5
D75
  8
0
  6
CONTINUOUS
 62
     0
 10
0.0
 20
-2.5000000000000022
 30
0.0
 11
0.0
 21
-4.5999999999999917
 31
0.0
  0
LINE
  5
D76
  8
0
  6
CONTINUOUS
 62
     0
 10
2.5000000000000022
 20
0.0
 30
0.0
 11
4.5999999999999917
 21
0.0
 31
0.0
  0
ENDBLK
  5
D77
  8
0
  0
BLOCK
  8
0
  2
_CLOSED
 70
     0
 10
0.0
 20
0.0
 30
0.0
  3
_CLOSED
  1

  0
LINE
  5
D7A
  8
0
  6
BYBLOCK
 62
     0
 10
-1.0
 20
0.166667
 30
0.0
 11
0.0
 21
0.0
 31
0.0
  0
LINE
  5
D7B
  8
0
  6
BYBLOCK
 62
     0
 10
0.0
 20
0.0
 30
0.0
 11
-1.0
 21
-0.166667
 31
0.0
  0
LINE
  5
D7C
  8
0
  6
BYBLOCK
 62
     0
 10
-1.0
 20
0.166667
 30
0.0
 11
-1.0
 21
-0.166667
 31
0.0
  0
LINE
  5
D7D
  8
0
  6
BYBLOCK
 62
     0
 10
0.0
 20
0.0
 30
0.0
 11
-1.0
 21
0.0
 31
0.0
  0
ENDBLK
  5
D7E
  8
0
  0
BLOCK
  8
0
  2
SW_CENTERMARKSYMBOL_4
 70
     0
 10
0.0
 20
0.0
 30
0.0
  3
SW_CENTERMARKSYMBOL_4
  1

  0
LINE
  5
D81
  8
0
  6
CONTINUOUS
 62
     0
 10
0.0
 20
0.0
 30
0.0
 11
0.0
 21
2.5000000000000022
 31
0.0
  0
LINE
  5
D82
  8
0
  6
CONTINUOUS
 62
     0
 10
0.0
 20
0.0
 30
0.0
 11
-2.5000000000000022
 21
0.0
 31
0.0
  0
LINE
  5
D83
  8
0
  6
CONTINUOUS
 62
     0
 10
0.0
 20
0.0
 30
0.0
 11
0.0
 21
-2.4999999999999458
 31
0.0
  0
LINE
  5
D84
  8
0
  6
CONTINUOUS
 62
     0
 10
0.0
 20
0.0
 30
0.0
 11
2.5000000000000022
 21
0.0
 31
0.0
  0
LINE
  5
D85
  8
0
  6
CONTINUOUS
 62
     0
 10
0.0
 20
5.0000000000000044
 30
0.0
 11
0.0
 21
48.4999999999999787
 31
0.0
  0
LINE
  5
D86
  8
0
  6
CONTINUOUS
 62
     0
 10
-5.0000000000000044
 20
0.0
 30
0.0
 11
-48.4999999999999787
 21
0.0
 31
0.0
  0
LINE
  5
D87
  8
0
  6
CONTINUOUS
 62
     0
 10
0.0
 20
-4.9999999999999476
 30
0.0
 11
0.0
 21
-48.4999999999999787
 31
0.0
  0
LINE
  5
D88
  8
0
  6
CONTINUOUS
 62
     0
 10
5.0000000000000044
 20
0.0
 30
0.0
 11
48.4999999999999787
 21
0.0
 31
0.0
  0
ENDBLK
  5
D89
  8
0
  0
BLOCK
  8
0
  2
SW_CENTERMARKSYMBOL_5
 70
     0
 10
0.0
 20
0.0
 30
0.0
  3
SW_CENTERMARKSYMBOL_5
  1

  0
LINE
  5
D8C
  8
0
  6
CONTINUOUS
 62
     0
 10
0.0
 20
0.0
 30
0.0
 11
0.0
 21
2.5000000000000022
 31
0.0
  0
LINE
  5
D8D
  8
0
  6
CONTINUOUS
 62
     0
 10
0.0
 20
0.0
 30
0.0
 11
-2.5000000000000022
 21
0.0
 31
0.0
  0
LINE
  5
D8E
  8
0
  6
CONTINUOUS
 62
     0
 10
0.0
 20
0.0
 30
0.0
 11
0.0
 21
-2.4999999999999458
 31
0.0
  0
LINE
  5
D8F
  8
0
  6
CONTINUOUS
 62
     0
 10
0.0
 20
0.0
 30
0.0
 11
2.5000000000000022
 21
0.0
 31
0.0
  0
LINE
  5
D90
  8
0
  6
CONTINUOUS
 62
     0
 10
0.0
 20
5.0000000000000044
 30
0.0
 11
0.0
 21
10.0000000000000107
 31
0.0
  0
LINE
  5
D91
  8
0
  6
CONTINUOUS
 62
     0
 10
-5.0000000000000044
 20
0.0
 30
0.0
 11
-10.0000000000000107
 21
0.0
 31
0.0
  0
LINE
  5
D92
  8
0
  6
CONTINUOUS
 62
     0
 10
0.0
 20
-4.9999999999999476
 30
0.0
 11
0.0
 21
-9.9999999999999538
 31
0.0
  0
LINE
  5
D93
  8
0
  6
CONTINUOUS
 62
     0
 10
5.0000000000000044
 20
0.0
 30
0.0
 11
10.0000000000000107
 21
0.0
 31
0.0
  0
ENDBLK
  5
D94
  8
0
  0
BLOCK
  8
0
  2
SW_CENTERMARKSYMBOL_6
 70
     0
 10
0.0
 20
0.0
 30
0.0
  3
SW_CENTERMARKSYMBOL_6
  1

  0
LINE
  5
D97
  8
0
  6
CONTINUOUS
 62
     0
 10
0.0
 20
0.0
 30
0.0
 11
0.0
 21
2.5000000000000022
 31
0.0
  0
LINE
  5
D98
  8
0
  6
CONTINUOUS
 62
     0
 10
0.0
 20
0.0
 30
0.0
 11
-2.5000000000000022
 21
0.0
 31
0.0
  0
LINE
  5
D99
  8
0
  6
CONTINUOUS
 62
     0
 10
0.0
 20
0.0
 30
0.0
 11
0.0
 21
-2.4999999999999458
 31
0.0
  0
LINE
  5
D9A
  8
0
  6
CONTINUOUS
 62
     0
 10
0.0
 20
0.0
 30
0.0
 11
2.5000000000000022
 21
0.0
 31
0.0
  0
LINE
  5
D9B
  8
0
  6
CONTINUOUS
 62
     0
 10
0.0
 20
5.0000000000000044
 30
0.0
 11
0.0
 21
10.0000000000000107
 31
0.0
  0
LINE
  5
D9C
  8
0
  6
CONTINUOUS
 62
     0
 10
-4.9999999999999902
 20
0.0
 30
0.0
 11
-9.9999999999999947
 21
0.0
 31
0.0
  0
LINE
  5
D9D
  8
0
  6
CONTINUOUS
 62
     0
 10
0.0
 20
-4.9999999999999476
 30
0.0
 11
0.0
 21
-9.9999999999999538
 31
0.0
  0
LINE
  5
D9E
  8
0
  6
CONTINUOUS
 62
     0
 10
4.9999999999999902
 20
0.0
 30
0.0
 11
9.9999999999999947
 21
0.0
 31
0.0
  0
ENDBLK
  5
D9F
  8
0
  0
BLOCK
  8
0
  2
SW_NOTE_0_2
 70
     0
 10
0.0
 20
0.0
 30
0.0
  3
SW_NOTE_0_2
  1

  0
INSERT
  5
DA2
  8
细实线
  2
*U23
 10
0.0
 20
0.0
 30
0.0
  0
INSERT
  5
DA3
  8
细实线
  2
*U24
 10
0.0
 20
0.0
 30
0.0
  0
INSERT
  5
DA4
  8
细实线
  2
*U25
 10
0.0
 20
0.0
 30
0.0
  0
INSERT
  5
DA5
  8
细实线
  2
*U26
 10
0.0
 20
0.0
 30
0.0
  0
ENDBLK
  5
DA6
  8
0
  0
BLOCK
  8
0
  2
*U15
 70
     1
 10
0.0
 20
0.0
 30
0.0
  3
*U15
  1

  0
TEXT
  5
175A
  8
0
 62
     0
 10
0.0
 20
0.2290561551124879
 30
0.0
 40
1.5
  1
除非
 41
0.75
  7
SLDTEXTSTYLE1
  0
TEXT
  5
175B
  8
0
 62
     0
 10
2.7000000000000002
 20
0.2290561551124879
 30
0.0
 40
1.5
  1
另
 41
0.75
  7
MtXpl_MS_PGothic
  0
TEXT
  5
175D
  8
0
 62
     0
 10
4.3363636363636351
 20
0.2290561551124879
 30
0.0
 40
1.5
  1
外指定:
 41
0.75
  7
SLDTEXTSTYLE1
  0
ENDBLK
  5
175F
  8
0
  0
BLOCK
  8
0
  2
*U16
 70
     1
 10
0.0
 20
0.0
 30
0.0
  3
*U16
  1

  0
TEXT
  5
1761
  8
0
 62
     0
 10
0.0
 20
-2.3476483344626962
 30
0.0
 40
1.5
  1
尺寸使用
 41
0.75
  7
SLDTEXTSTYLE1
  0
TEXT
  5
1762
  8
0
 62
     0
 10
5.4000000000000004
 20
-2.3476483344626962
 30
0.0
 40
1.5
  1
毫
 41
0.75
  7
MtXpl_MS_PGothic
  0
TEXT
  5
1763
  8
0
 62
     0
 10
7.036363636363637
 20
-2.3476483344626962
 30
0.0
 40
1.5
  1
米
 41
0.75
  7
SLDTEXTSTYLE1
  0
ENDBLK
  5
1765
  8
0
  0
BLOCK
  8
0
  2
*U17
 70
     1
 10
0.0
 20
0.0
 30
0.0
  3
*U17
  1

  0
TEXT
  5
1767
  8
0
 62
     0
 10
-0.0000000000000001
 20
-4.82208009676516
 30
0.0
 40
1.5
  1
表面粗
 41
0.75
  7
SLDTEXTSTYLE1
  0
TEXT
  5
1768
  8
0
 62
     0
 10
4.0499999999999998
 20
-4.82208009676516
 30
0.0
 40
1.5
  1
糙
 41
0.75
  7
MtXpl_MS_PGothic
  0
TEXT
  5
1769
  8
0
 62
     0
 10
5.6863636363636374
 20
-4.82208009676516
 30
0.0
 40
1.5
  1
度:
 41
0.75
  7
SLDTEXTSTYLE1
  0
ENDBLK
  5
176B
  8
0
  0
BLOCK
  8
0
  2
*U18
 70
     1
 10
0.0
 20
0.0
 30
0.0
  3
*U18
  1

  0
TEXT
  5
176D
  8
0
 62
     0
 10
0.0
 20
-7.0663982227039872
 30
0.0
 40
1.5
  1
公差:
 41
0.75
  7
SLDTEXTSTYLE1
  0
ENDBLK
  5
176F
  8
0
  0
BLOCK
  8
0
  2
*U19
 70
     1
 10
0.0
 20
0.0
 30
0.0
  3
*U19
  1

  0
TEXT
  5
1772
  8
0
 62
     0
 10
1.605796089385483
 20
-9.8261747031374824
 30
0.0
 40
1.5
  1
线
 41
0.75
  7
MtXpl_
  0
TEXT
  5
1774
  8
0
 62
     0
 10
3.2147346368715159
 20
-9.8261747031374824
 30
0.0
 40
1.5
  1
性:
 41
0.75
  7
SLDTEXTSTYLE1
  0
ENDBLK
  5
1776
  8
0
  0
BLOCK
  8
0
  2
*U20
 70
     1
 10
0.0
 20
0.0
 30
0.0
  3
*U20
  1

  0
TEXT
  5
1778
  8
0
 62
     0
 10
1.612500000000008
 20
-12.0663981109452791
 30
0.0
 40
1.5
  1
角度:
 41
0.75
  7
SLDTEXTSTYLE1
  0
ENDBLK
  5
177A
  8
0
  0
BLOCK
  8
0
  2
*U21
 70
     1
 10
0.0
 20
0.0
 30
0.0
  3
*U21
  1

  0
TEXT
  5
177C
  8
0
 62
     0
 10
0.0
 20
0.1738250733450932
 30
0.0
 40
1.5
  1
将
 41
0.75
  7
SLDTEXTSTYLE1
  0
TEXT
  5
177D
  8
0
 62
     0
 10
1.349999999999999
 20
0.1738250733450932
 30
0.0
 40
1.5
  1
锐边
 41
0.75
  7
MtXpl_
  0
TEXT
  5
177E
  8
0
 62
     0
 10
4.567877094972066
 20
0.1738250733450932
 30
0.0
 40
1.5
  1
清除
 41
0.75
  7
SLDTEXTSTYLE1
  0
ENDBLK
  5
1780
  8
0
  0
BLOCK
  8
0
  2
*U22
 70
     1
 10
0.0
 20
0.0
 30
0.0
  3
*U22
  1

  0
TEXT
  5
1782
  8
0
 62
     0
 10
0.0
 20
-2.3220801526445141
 30
0.0
 40
1.5
  1
毛刺
 41
0.75
  7
SLDTEXTSTYLE1
  0
TEXT
  5
1783
  8
0
 62
     0
 10
2.7000000000000002
 20
-2.3220801526445141
 30
0.0
 40
1.5
  1
并
 41
0.75
  7
MtXpl_MS_PGothic
  0
TEXT
  5
1784
  8
0
 62
     0
 10
4.3363636363636351
 20
-2.3220801526445141
 30
0.0
 40
1.5
  1
折断
 41
0.75
  7
SLDTEXTSTYLE1
  0
ENDBLK
  5
1786
  8
0
  0
BLOCK
  8
0
  2
*U23
 70
     1
 10
0.0
 20
0.0
 30
0.0
  3
*U23
  1

  0
TEXT
  5
1788
  8
0
 62
     0
 10
3.254375000000004
 20
1.8355801475519831
 30
0.0
 40
6.3499999999999988
  1
剖面
 41
0.75
  7
SLDTEXTSTYLE1
  0
ENDBLK
  5
178A
  8
0
  0
BLOCK
  8
0
  2
*U24
 70
     1
 10
0.0
 20
0.0
 30
0.0
  3
*U24
  1

  0
TEXT
  5
178C
  8
0
 62
     0
 10
19.1298257251580601
 20
2.2990293126256018
 30
0.0
 40
3.5
  1
A-A
 41
0.7
  7
SLDTEXTSTYLE3
  0
ENDBLK
  5
178E
  8
0
  0
BLOCK
  8
0
  2
*U25
 70
     1
 10
0.0
 20
0.0
 30
0.0
  3
*U25
  1

  0
TEXT
  5
1790
  8
0
 62
     0
 10
3.7897915057341311
 20
-5.911873720988563
 30
0.0
 40
3.5
  1
比例
 41
0.7
  7
SLDTEXTSTYLE4
  0
ENDBLK
  5
1792
  8
0
  0
BLOCK
  8
0
  2
*U26
 70
     1
 10
0.0
 20
0.0
 30
0.0
  3
*U26
  1

  0
TEXT
  5
1794
  8
0
 62
     0
 10
14.42809035678704
 20
-5.911873720988563
 30
0.0
 40
3.5
  1
1 : 1
 41
0.62
  7
SLDTEXTSTYLE5
  0
ENDBLK
  5
1796
  8
0
  0
BLOCK
  8
0
  2
*U27
 70
     1
 10
0.0
 20
0.0
 30
0.0
  3
*U27
  1

  0
TEXT
  5
1798
  8
粗实线
 62
     0
 10
213.241056073882703
 20
73.0938907343902144
 30
0.0
 40
3.5
  1
50
 50
90.0
  7
国标汉字3_5
  0
ENDBLK
  5
179A
  8
0
  0
BLOCK
  8
0
  2
*U28
 70
     1
 10
0.0
 20
0.0
 30
0.0
  3
*U28
  1

  0
TEXT
  5
179C
  8
粗实线
 62
     0
 10
224.6681394072161879
 20
49.5261824010563529
 30
0.0
 40
3.5
  1
3
  7
国标汉字3_5
  0
ENDBLK
  5
179E
  8
0
  0
BLOCK
  8
0
  2
*X29
 70
     1
 10
0.0
 20
0.0
 30
0.0
  3
*X29
  1

  0
LINE
  5
17A3
  8
0
 62
     0
 10
147.1547823419338101
 20
120.214013978726399
 30
0.0
 11
149.3892998233023093
 21
122.4485314600947987
 31
0.0
  0
LINE
  5
17A4
  8
0
 62
     0
 10
142.6646542813992937
 20
120.214013978726399
 30
0.0
 11
149.3892998233023093
 21
126.9386595206294004
 31
0.0
  0
LINE
  5
17A5
  8
0
 62
     0
 10
138.174526220864692
 20
120.214013978726399
 30
0.0
 11
149.3892998233023093
 21
131.4287875811639879
 31
0.0
  0
LINE
  5
17A6
  8
0
 62
     0
 10
133.6843981603300904
 20
120.214013978726399
 30
0.0
 11
149.3892998233023093
 21
135.9189156416985895
 31
0.0
  0
LINE
  5
17A7
  8
0
 62
     0
 10
129.1942700997954887
 20
120.214013978726399
 30
0.0
 11
149.3892998233023093
 21
140.4090437022331059
 31
0.0
  0
LINE
  5
17A8
  8
0
 62
     0
 10
124.7041420392609012
 20
120.214013978726399
 30
0.0
 11
149.3892998233023093
 21
144.8991717627677076
 31
0.0
  0
LINE
  5
17A9
  8
0
 62
     0
 10
120.214013978726399
 20
120.214013978726399
 30
0.0
 11
149.3892998233023093
 21
149.3892998233023093
 31
0.0
  0
LINE
  5
17AA
  8
0
 62
     0
 10
119.3892998233022951
 20
123.8794278838368967
 30
0.0
 11
149.3892998233023093
 21
153.879427883836911
 31
0.0
  0
LINE
  5
17AB
  8
0
 62
     0
 10
119.3892998233022951
 20
128.3695559443713989
 30
0.0
 11
149.3892998233023093
 21
158.3695559443713989
 31
0.0
  0
LINE
  5
17AC
  8
0
 62
     0
 10
119.3892998233022951
 20
132.8596840049060006
 30
0.0
 11
149.3892998233023093
 21
162.8596840049060006
 31
0.0
  0
LINE
  5
17AD
  8
0
 62
     0
 10
119.3892998233021956
 20
137.3498120654404886
 30
0.0
 11
149.3892998233023093
 21
167.3498120654406023
 31
0.0
  0
LINE
  5
17AE
  8
0
 62
     0
 10
119.3892998233022951
 20
141.839940125975204
 30
0.0
 11
149.3892998233023093
 21
171.839940125975204
 31
0.0
  0
LINE
  5
17AF
  8
0
 62
     0
 10
119.3892998233022951
 20
146.3300681865096919
 30
0.0
 11
149.3892998233023093
 21
176.3300681865096919
 31
0.0
  0
LINE
  5
17B0
  8
0
 62
     0
 10
119.3892998233022951
 20
150.8201962470444073
 30
0.0
 11
149.3892998233021956
 21
180.8201962470442936
 31
0.0
  0
LINE
  5
17B1
  8
0
 62
     0
 10
119.3892998233022951
 20
155.3103243075788953
 30
0.0
 11
147.2929894944496994
 21
183.214013978726399
 31
0.0
  0
LINE
  5
17B2
  8
0
 62
     0
 10
119.3892998233022951
 20
159.800452368113497
 30
0.0
 11
142.8028614339152114
 21
183.214013978726399
 31
0.0
  0
LINE
  5
17B3
  8
0
 62
     0
 10
119.3892998233022951
 20
164.2905804286480134
 30
0.0
 11
138.3127333733806097
 21
183.214013978726399
 31
0.0
  0
LINE
  5
17B4
  8
0
 62
     0
 10
119.3892998233022951
 20
168.7807084891827003
 30
0.0
 11
133.822605312846008
 21
183.214013978726399
 31
0.0
  0
LINE
  5
17B5
  8
0
 62
     0
 10
119.3892998233022951
 20
173.2708365497171883
 30
0.0
 11
129.3324772523114916
 21
183.214013978726399
 31
0.0
  0
LINE
  5
17B6
  8
0
 62
     0
 10
119.3892998233022951
 20
177.76096461025179
 30
0.0
 11
124.8423491917769041
 21
183.214013978726399
 31
0.0
  0
LINE
  5
17B7
  8
0
 62
     0
 10
119.3892998233022951
 20
182.2510926707863064
 30
0.0
 11
120.3522211312423025
 21
183.214013978726399
 31
0.0
  0
LINE
  5
17B8
  8
0
 62
     0
 10
148.9213247075001902
 20
243.214013978726399
 30
0.0
 11
149.3892998233023093
 21
243.6819890945284044
 31
0.0
  0
LINE
  5
17B9
  8
0
 62
     0
 10
144.4311966469657023
 20
243.214013978726399
 30
0.0
 11
149.3892998233023093
 21
248.1721171550630061
 31
0.0
  0
LINE
  5
17BA
  8
0
 62
     0
 10
139.9410685864311006
 20
243.214013978726399
 30
0.0
 11
149.3892998233023093
 21
252.6622452155976077
 31
0.0
  0
LINE
  5
17BB
  8
0
 62
     0
 10
135.4509405258964989
 20
243.214013978726399
 30
0.0
 11
149.3892998233023093
 21
257.1523732761320957
 31
0.0
  0
LINE
  5
17BC
  8
0
 62
     0
 10
130.9608124653618972
 20
243.214013978726399
 30
0.0
 11
149.3892998233023093
 21
261.6425013366667827
 31
0.0
  0
LINE
  5
17BD
  8
0
 62
     0
 10
126.470684404827395
 20
243.214013978726399
 30
0.0
 11
149.3892998233023093
 21
266.1326293972012991
 31
0.0
  0
LINE
  5
17BE
  8
0
 62
     0
 10
121.9805563442927934
 20
243.214013978726399
 30
0.0
 11
149.3892998233023093
 21
270.6227574577358723
 31
0.0
  0
LINE
  5
17BF
  8
0
 62
     0
 10
119.3892998233022951
 20
245.1128855182703887
 30
0.0
 11
149.3892998233023093
 21
275.1128855182705024
 31
0.0
  0
LINE
  5
17C0
  8
0
 62
     0
 10
119.3892998233021956
 20
249.6030135788049904
 30
0.0
 11
149.3892998233023093
 21
279.6030135788050188
 31
0.0
  0
LINE
  5
17C1
  8
0
 62
     0
 10
119.3892998233022951
 20
254.0931416393397058
 30
0.0
 11
149.3892998233023093
 21
284.0931416393397058
 31
0.0
  0
LINE
  5
17C2
  8
0
 62
     0
 10
119.3892998233022951
 20
258.5832696998742222
 30
0.0
 11
149.3892998233023093
 21
288.5832696998742222
 31
0.0
  0
LINE
  5
17C3
  8
0
 62
     0
 10
119.3892998233022951
 20
263.0733977604087954
 30
0.0
 11
149.3892998233023093
 21
293.0733977604087954
 31
0.0
  0
LINE
  5
17C4
  8
0
 62
     0
 10
119.3892998233022951
 20
267.5635258209434255
 30
0.0
 11
149.3892998233023093
 21
297.5635258209434255
 31
0.0
  0
LINE
  5
17C5
  8
0
 62
     0
 10
119.3892998233022951
 20
272.0536538814778851
 30
0.0
 11
149.3892998233023093
 21
302.0536538814778851
 31
0.0
  0
LINE
  5
17C6
  8
0
 62
     0
 10
119.3892998233022951
 20
276.5437819420125152
 30
0.0
 11
149.0595318600161079
 21
306.2140139787264275
 31
0.0
  0
LINE
  5
17C7
  8
0
 62
     0
 10
119.3892998233022951
 20
281.0339100025470884
 30
0.0
 11
144.5694037994815915
 21
306.2140139787264275
 31
0.0
  0
LINE
  5
17C8
  8
0
 62
     0
 10
119.3892998233022951
 20
285.5240380630817185
 30
0.0
 11
140.0792757389469898
 21
306.2140139787264275
 31
0.0
  0
LINE
  5
17C9
  8
0
 62
     0
 10
119.3892998233022951
 20
290.0141661236162918
 30
0.0
 11
135.5891476784123881
 21
306.2140139787264275
 31
0.0
  0
LINE
  5
17CA
  8
0
 62
     0
 10
119.3892998233022951
 20
294.5042941841508082
 30
0.0
 11
131.0990196178777865
 21
306.2140139787264275
 31
0.0
  0
LINE
  5
17CB
  8
0
 62
     0
 10
119.3892998233022951
 20
298.9944222446854951
 30
0.0
 11
126.6088915573432985
 21
306.2140139787264275
 31
0.0
  0
LINE
  5
17CC
  8
0
 62
     0
 10
119.3892998233022951
 20
303.4845503052200115
 30
0.0
 11
122.1187634968086968
 21
306.2140139787264275
 31
0.0
  0
ENDBLK
  5
17CE
  8
0
  0
ENDSEC
  0
SECTION
  2
ENTITIES
  0
LINE
  5
24B
  8
细实线
 10
0.0
 20
0.0
 30
0.0
 11
610.406572273595657
 21
0.0
 31
0.0
  0
LINE
  5
24C
  8
细实线
 10
610.406572273595657
 20
0.0
 30
0.0
 11
610.406572273595657
 21
431.6446475363284208
 31
0.0
  0
LINE
  5
24D
  8
细实线
 10
610.406572273595657
 20
431.6446475363284208
 30
0.0
 11
0.0
 21
431.6446475363284208
 31
0.0
  0
LINE
  5
24E
  8
细实线
 10
0.0
 20
431.6446475363284208
 30
0.0
 11
0.0
 21
0.0
 31
0.0
  0
LINE
  5
264
  8
粗实线
 10
36.3337245400949769
 20
7.2667449080189961
 30
0.0
 11
603.1398273655768207
 21
7.2667449080189961
 31
0.0
  0
LINE
  5
265
  8
粗实线
 10
603.1398273655768207
 20
7.2667449080189961
 30
0.0
 11
603.1398273655768207
 21
424.3779026283093003
 31
0.0
  0
LINE
  5
266
  8
粗实线
 10
603.1398273655768207
 20
424.3779026283093003
 30
0.0
 11
36.3337245400949769
 21
424.3779026283093003
 31
0.0
  0
LINE
  5
267
  8
粗实线
 10
36.3337245400949769
 20
424.3779026283093003
 30
0.0
 11
36.3337245400949769
 21
7.2667449080189961
 31
0.0
  0
LINE
  5
26A
  8
粗实线
 10
428.7379495731207726
 20
7.2667449080189961
 30
0.0
 11
428.7379495731207726
 21
37.7870735216987867
 31
0.0
  0
LINE
  5
26F
  8
细实线
 10
428.7379495731207726
 20
17.4401877792455906
 30
0.0
 11
603.1398273655768207
 21
17.4401877792455906
 31
0.0
  0
LINE
  5
270
  8
细实线
 10
428.7379495731207726
 20
27.6136306504721887
 30
0.0
 11
495.5920027268954868
 21
27.6136306504721887
 31
0.0
  0
LINE
  5
271
  8
粗实线
 10
428.7379495731207726
 20
37.7870735216987867
 30
0.0
 11
603.1398273655768207
 21
37.7870735216987867
 31
0.0
  0
LINE
  5
272
  8
粗实线
 10
449.0848353155739119
 20
17.4401877792455906
 30
0.0
 11
449.0848353155739119
 21
37.7870735216987867
 31
0.0
  0
LINE
  5
273
  8
粗实线
 10
478.151814947649882
 20
17.4401877792455906
 30
0.0
 11
478.151814947649882
 21
37.7870735216987867
 31
0.0
  0
LINE
  5
274
  8
粗实线
 10
495.5920027268954868
 20
7.2667449080189961
 30
0.0
 11
495.5920027268954868
 21
37.7870735216987867
 31
0.0
  0
LINE
  5
275
  8
粗实线
 10
566.8061028254817302
 20
7.2667449080189961
 30
0.0
 11
566.8061028254817302
 21
37.7870735216987867
 31
0.0
  0
LINE
  5
276
  8
细实线
 10
566.8061028254817302
 20
27.6136306504721887
 30
0.0
 11
603.1398273655768207
 21
27.6136306504721887
 31
0.0
  0
TEXT
  5
281
  8
文字标注
 10
434.5918874718416873
 20
30.4181881965226992
 30
0.0
 40
5.0867214356132981
  1
制图
  7
国标汉字3_5
 72
     1
 11
438.2105661401917018
 21
30.4181881965226992
 31
0.0
  0
TEXT
  5
282
  8
文字标注
 10
434.5508444790772273
 20
20.5690835366081402
 30
0.0
 40
5.0867214356132981
  1
校验
  7
国标汉字3_5
 72
     4
 11
438.3097820105414257
 21
22.8693288916832707
 31
0.0
  0
TEXT
  5
283
  8
文字标注
 10
462.6776650657131995
 20
9.3846780082046717
 30
0.0
 40
5.0867214356132981
  1
系             班
  7
国标汉字3_5
  0
TEXT
  5
284
  8
文字标注
 10
499.2388581323446033
 20
9.6108451104030586
 30
0.0
 40
5.0867214356132981
  1
材料
  7
国标汉字3_5
  0
TEXT
  5
285
  8
文字标注
 10
568.7594447547699019
 20
30.3043612688819906
 30
0.0
 40
5.0867214356132981
  1
数量
  7
国标汉字3_5
  0
TEXT
  5
286
  8
文字标注
 10
568.4003891349907462
 20
20.3530226670469112
 30
0.0
 40
5.0867214356132981
  1
比例
  7
国标汉字3_5
  0
LINE
  5
386
  8
点画线
 10
152.6016430683988858
 20
7.6544835004395377
 30
0.0
 11
152.6016430683988858
 21
7.2667449080189961
 31
0.0
  0
LINE
  5
732
  8
点画线
 10
152.6016430683988858
 20
9.2741327295430551
 30
0.0
 11
152.6016430683988858
 21
7.2667449080189961
 31
0.0
  0
LINE
  5
16CF
  8
粗实线
 10
119.3892998233022951
 20
333.2140139787264275
 30
0.0
 11
119.3892998233022951
 21
93.2140139787263706
 31
0.0
1001
ACAD
1000
ASC_BOUNDS
1002
{
1070
    19
1005
16F3
1002
}
  0
LINE
  5
16D0
  8
粗实线
 10
119.3892998233022951
 20
93.2140139787263706
 30
0.0
 11
149.3892998233023093
 21
93.2140139787263706
 31
0.0
  0
LINE
  5
16D1
  8
粗实线
 10
149.3892998233023093
 20
93.2140139787263706
 30
0.0
 11
149.3892998233023093
 21
333.2140139787264275
 31
0.0
1001
ACAD
1000
ASC_BOUNDS
1002
{
1070
    19
1005
16F3
1005
16F3
1002
}
  0
LINE
  5
16D2
  8
粗实线
 10
149.3892998233023093
 20
333.2140139787264275
 30
0.0
 11
119.3892998233022951
 21
333.2140139787264275
 31
0.0
  0
LINE
  5
16D3
  8
点画线
 10
92.6195227877929028
 20
213.214013978726399
 30
0.0
 11
174.0214963241774058
 21
213.214013978726399
 31
0.0
  0
LINE
  5
16D4
  8
粗实线
 10
119.3892998233022951
 20
333.2140139787264275
 30
0.0
 11
119.3892998233022951
 21
306.2140139787264275
 31
0.0
  0
LINE
  5
16D5
  8
粗实线
 10
119.3892998233022951
 20
306.2140139787264275
 30
0.0
 11
149.3892998233023093
 21
306.2140139787264275
 31
0.0
1001
ACAD
1000
ASC_BOUNDS
1002
{
1070
    19
1005
16F3
1002
}
  0
LINE
  5
16D6
  8
粗实线
 10
119.3892998233022951
 20
93.2140139787263706
 30
0.0
 11
119.3892998233022951
 21
120.2140139787262996
 31
0.0
  0
LINE
  5
16D7
  8
粗实线
 10
119.3892998233022951
 20
120.2140139787262996
 30
0.0
 11
149.3892998233023093
 21
120.2140139787262996
 31
0.0
1001
ACAD
1000
ASC_BOUNDS
1002
{
1070
    19
1005
16F3
1002
}
  0
LINE
  5
16D8
  8
粗实线
 10
119.3892998233022951
 20
213.214013978726399
 30
0.0
 11
119.3892998233022951
 21
321.2140139787264275
 31
0.0
1001
ACAD
1000
ASC_BOUNDS
1002
{
1070
    19
1005
16F3
1002
}
  0
LINE
  5
16D9
  8
点画线
 10
113.5744009640560961
 20
321.2140139787264275
 30
0.0
 11
152.9794555193915926
 21
321.2140139787264275
 31
0.0
  0
LINE
  5
16DA
  8
点画线
 10
113.5744009640560961
 20
105.2140139787262996
 30
0.0
 11
152.9794555193915926
 21
105.2140139787262996
 31
0.0
  0
LINE
  5
16DB
  8
粗实线
 10
119.3892998233022951
 20
213.214013978726399
 30
0.0
 11
119.3892998233022951
 21
243.214013978726399
 31
0.0
  0
LINE
  5
16DC
  8
粗实线
 10
119.3892998233022951
 20
243.214013978726399
 30
0.0
 11
149.3892998233023093
 21
243.214013978726399
 31
0.0
1001
ACAD
1000
ASC_BOUNDS
1002
{
1070
    19
1005
16F3
1002
}
  0
LINE
  5
16DD
  8
粗实线
 10
149.3892998233023093
 20
243.214013978726399
 30
0.0
 11
149.3892998233023093
 21
183.2140139787263138
 31
0.0
  0
LINE
  5
16DE
  8
粗实线
 10
149.3892998233023093
 20
183.2140139787263138
 30
0.0
 11
119.3892998233022951
 21
183.214013978726399
 31
0.0
1001
ACAD
1000
ASC_BOUNDS
1002
{
1070
    19
1005
16F3
1002
}
  0
INSERT
  5
16F3
  8
细实线
  6
CONTINUOUS
  2
*X29
 10
0.0
 20
0.0
 30
0.0
1001
GRADIENTCOLOR1ACI
1070
     5
1001
GRADIENTCOLOR2ACI
1070
     2
1001
ACAD
1000
HATCH
1002
{
1070
    19
1000
ANSI31
1040
1.0
1040
0.0
1000
ASC_BOUNDS
1070
     2
1070
     1
1070
     4
1005
16D1
1005
16D7
1005
16CF
1005
16DE
1070
     1
1070
     4
1005
16D1
1005
16DC
1005
16D8
1005
16D5
1000
ASC_SEEDPOINT
1011
132.964147887065792
1021
0.0
1031
0.0
1021
271.134644655487989
1031
0.0
1000
R14_HATCH_DATA
1000
16F3
1011
1.0
1021
0.0
1031
0.0
1021
0.0
1031
0.0
1011
0.0
1021
0.0
1031
0.0
1021
1.0
1031
0.0
1011
0.0
1021
0.0
1031
0.0
1021
0.0
1031
1.0
1040
0.0
1010
0.0
1020
0.0
1030
1.0
1000
ANSI31
1070
     0
1070
     1
1071
        2
1071
        7
1070
     0
1070
     1
1071
        4
1040
149.3892998233023093
1040
306.2140139787264275
1040
119.3892998233022951
1040
306.2140139787264275
1040
119.3892998233022951
1040
243.214013978726399
1040
149.3892998233023093
1040
243.214013978726399
1071
        4
1005
16D5
1005
16D8
1005
16DC
1005
16D1
1071
        7
1070
     0
1070
     1
1071
        4
1040
149.3892998233023093
1040
183.2140139787263138
1040
119.3892998233022951
1040
183.214013978726399
1040
119.3892998233022951
1040
120.2140139787262996
1040
149.3892998233023093
1040
120.2140139787262996
1071
        4
1005
16DE
1005
16CF
1005
16D7
1005
16D1
1070
     1
1070
     1
1040
0.0
1040
1.0
1070
     0
1070
     1
1040
0.7853981633974483
1040
0.0
1040
0.0
1040
-2.245064030267288
1040
2.245064030267288
1070
     0
1040
0.214317620879373
1071
        2
1040
132.964147887065792
1040
271.134644655487989
1040
0.0
1040
138.9684355788099026
1040
165.0474215111559886
1040
0.0
1002
}
  0
CIRCLE
  5
16F4
  8
粗实线
 10
359.8012539868182103
 20
213.214013978726399
 30
0.0
 40
120.0
  0
LINE
  5
16F5
  8
点画线
 10
214.3515437697851951
 20
213.214013978726399
 30
0.0
 11
503.1927136491044052
 21
213.214013978726399
 31
0.0
  0
LINE
  5
16F6
  8
点画线
 10
358.7721287094448144
 20
349.1493147042925216
 30
0.0
 11
358.7721287094448144
 21
75.8995851910369765
 31
0.0
  0
CIRCLE
  5
16F7
  8
点画线
 10
358.7721287094448144
 20
213.214013978726399
 30
0.0
 40
108.0
  0
CIRCLE
  5
16F8
  8
粗实线
 10
358.7721287094448144
 20
212.5244499476646922
 30
0.0
 40
30.0
  0
CIRCLE
  5
16F9
  8
细实线
 10
359.8012539868182103
 20
213.214013978726399
 30
0.0
 40
93.0
  0
ENDSEC
  0
EOF
