  0
SECTION
  2
HEADER
  9
$ACADVER
  1
AC1009
  9
$INSBASE
 10
0.0
 20
0.0
 30
0.0
  9
$EXTMIN
 10
0.0
 20
0.0
 30
0.0
  9
$EXTMAX
 10
610.406572273595657
 20
431.6446475363284208
 30
0.0
  9
$LIMMIN
 10
0.0
 20
0.0
  9
$LIMMAX
 10
297.0
 20
210.0
  9
$ORTHOMODE
 70
     0
  9
$REGENMODE
 70
     1
  9
$FILLMODE
 70
     1
  9
$QTEXTMODE
 70
     0
  9
$MIRRTEXT
 70
     0
  9
$DRAGMODE
 70
     2
  9
$LTSCALE
 40
0.5
  9
$OSMODE
 70
   423
  9
$ATTMODE
 70
     1
  9
$TEXTSIZE
 40
3.5
  9
$TRACEWID
 40
1.0
  9
$TEXTSTYLE
  7
国标汉字3_5
  9
$CLAYER
  8
虚线
  9
$CELTYPE
  6
BYLAYER
  9
$CECOLOR
 62
   256
  9
$DIMSCALE
 40
1.0
  9
$DIMASZ
 40
4.0
  9
$DIMEXO
 40
0.0
  9
$DIMDLI
 40
6.0
  9
$DIMRND
 40
0.0
  9
$DIMDLE
 40
0.0
  9
$DIMEXE
 40
2.0
  9
$DIMTP
 40
0.0
  9
$DIMTM
 40
0.0
  9
$DIMTXT
 40
3.5
  9
$DIMCEN
 40
3.5
  9
$DIMTSZ
 40
0.0
  9
$DIMTOL
 70
     0
  9
$DIMLIM
 70
     0
  9
$DIMTIH
 70
     0
  9
$DIMTOH
 70
     1
  9
$DIMSE1
 70
     0
  9
$DIMSE2
 70
     0
  9
$DIMTAD
 70
     1
  9
$DIMZIN
 70
     8
  9
$DIMBLK
  1

  9
$DIMASO
 70
     1
  9
$DIMSHO
 70
     1
  9
$DIMPOST
  1

  9
$DIMAPOST
  1

  9
$DIMALT
 70
     0
  9
$DIMALTD
 70
     3
  9
$DIMALTF
 40
0.03937007874016
  9
$DIMLFAC
 40
1.0
  9
$DIMTOFL
 70
     1
  9
$DIMTVP
 40
0.0
  9
$DIMTIX
 70
     0
  9
$DIMSOXD
 70
     0
  9
$DIMSAH
 70
     0
  9
$DIMBLK1
  1

  9
$DIMBLK2
  1

  9
$DIMSTYLE
  2
国标尺寸
  9
$DIMCLRD
 70
     0
  9
$DIMCLRE
 70
     0
  9
$DIMCLRT
 70
     0
  9
$DIMTFAC
 40
1.0
  9
$DIMGAP
 40
1.0
  9
$LUNITS
 70
     2
  9
$LUPREC
 70
     1
  9
$SKETCHINC
 40
1.0
  9
$FILLETRAD
 40
4.0
  9
$AUNITS
 70
     1
  9
$AUPREC
 70
     1
  9
$MENU
  1
.
  9
$ELEVATION
 40
0.0
  9
$PELEVATION
 40
0.0
  9
$THICKNESS
 40
0.0
  9
$LIMCHECK
 70
     0
  9
$BLIPMODE
 70
     0
  9
$CHAMFERA
 40
0.0
  9
$CHAMFERB
 40
0.0
  9
$SKPOLY
 70
     0
  9
$TDCREATE
 40
2456549.6271874997764826
  9
$TDUPDATE
 40
2460356.5377083332277834
  9
$TDINDWG
 40
0.4417598148
  9
$TDUSRTIMER
 40
0.4417598148
  9
$USRTIMER
 70
     1
  9
$ANGBASE
 50
0.0
  9
$ANGDIR
 70
     0
  9
$PDMODE
 70
     0
  9
$PDSIZE
 40
0.0
  9
$PLINEWID
 40
0.0
  9
$COORDS
 70
     1
  9
$SPLFRAME
 70
     0
  9
$SPLINETYPE
 70
     6
  9
$SPLINESEGS
 70
     8
  9
$ATTDIA
 70
     1
  9
$ATTREQ
 70
     1
  9
$HANDLING
 70
     1
  9
$HANDSEED
  5
1BBA
  9
$SURFTAB1
 70
     6
  9
$SURFTAB2
 70
     6
  9
$SURFTYPE
 70
     6
  9
$SURFU
 70
     6
  9
$SURFV
 70
     6
  9
$UCSNAME
  2

  9
$UCSORG
 10
0.0
 20
0.0
 30
0.0
  9
$UCSXDIR
 10
1.0
 20
0.0
 30
0.0
  9
$UCSYDIR
 10
0.0
 20
1.0
 30
0.0
  9
$PUCSNAME
  2

  9
$PUCSORG
 10
0.0
 20
0.0
 30
0.0
  9
$PUCSXDIR
 10
1.0
 20
0.0
 30
0.0
  9
$PUCSYDIR
 10
0.0
 20
1.0
 30
0.0
  9
$USERI1
 70
     0
  9
$USERI2
 70
     0
  9
$USERI3
 70
     0
  9
$USERI4
 70
     0
  9
$USERI5
 70
     0
  9
$USERR1
 40
0.0
  9
$USERR2
 40
0.0
  9
$USERR3
 40
0.0
  9
$USERR4
 40
0.0
  9
$USERR5
 40
0.0
  9
$WORLDVIEW
 70
     1
  9
$SHADEDGE
 70
     3
  9
$SHADEDIF
 70
    70
  9
$TILEMODE
 70
     1
  9
$MAXACTVP
 70
    64
  9
$PLIMCHECK
 70
     0
  9
$PEXTMIN
 10
0.0
 20
0.0
 30
0.0
  9
$PEXTMAX
 10
0.0
 20
0.0
 30
0.0
  9
$PLIMMIN
 10
0.0
 20
0.0
  9
$PLIMMAX
 10
12.0
 20
9.0
  9
$UNITMODE
 70
     0
  9
$VISRETAIN
 70
     1
  9
$PLINEGEN
 70
     0
  9
$PSLTSCALE
 70
     1
  0
ENDSEC
  0
SECTION
  2
TABLES
  0
TABLE
  2
VPORT
 70
     1
  0
VPORT
  2
*ACTIVE
 70
     0
 10
0.0
 20
0.0
 11
1.0
 21
1.0
 12
315.5921891070387915
 22
170.6181425889448064
 13
0.0
 23
0.0
 14
10.0
 24
10.0
 15
10.0
 25
10.0
 16
0.0
 26
0.0
 36
1.0
 17
0.0
 27
0.0
 37
0.0
 40
370.100031244465697
 41
2.3864059590316571
 42
50.0
 43
0.0
 44
0.0
 50
0.0
 51
0.0
 71
     0
 72
  1000
 73
     1
 74
     3
 75
     0
 76
     0
 77
     0
 78
     0
  0
ENDTAB
  0
TABLE
  2
LTYPE
 70
     6
  0
LTYPE
  2
CONTINUOUS
 70
     0
  3
Solid line
 72
    65
 73
     0
 40
0.0
  0
LTYPE
  2
CENTER
 70
     0
  3
Center ____ _ ____ _ ____ _ ____ _ ____ _ ____
 72
    65
 73
     4
 40
50.7999999999999972
 49
31.75
 49
-6.3499999999999988
 49
6.3499999999999988
 49
-6.3499999999999988
  0
LTYPE
  2
DASHED
 70
     0
  3
Dashed __ __ __ __ __ __ __ __ __ __ __ __ __ _
 72
    65
 73
     2
 40
19.0500000000000007
 49
12.6999999999999993
 49
-6.3499999999999988
  0
LTYPE
  2
PHANTOM
 70
     0
  3
Phantom ______  __  __  ______  __  __  ______
 72
    65
 73
     6
 40
12.6999999999999993
 49
6.3499999999999988
 49
-1.27
 49
1.27
 49
-1.27
 49
1.27
 49
-1.27
  0
LTYPE
  2
CENTERX2
 70
     0
  3
Center (2x) ________  __  ________  __  _____
 72
    65
 73
     4
 40
20.3200000000000003
 49
12.6999999999999993
 49
-2.54
 49
2.54
 49
-2.54
  0
ENDTAB
  0
TABLE
  2
LAYER
 70
     9
  0
LAYER
  2
0
 70
     0
 62
     7
  6
CONTINUOUS
  0
LAYER
  2
点画线
 70
     0
 62
     1
  6
CENTER
  0
LAYER
  2
粗实线
 70
     0
 62
     7
  6
CONTINUOUS
  0
LAYER
  2
剖面线
 70
     0
 62
     3
  6
CONTINUOUS
  0
LAYER
  2
虚线
 70
     0
 62
    10
  6
DASHED
  0
LAYER
  2
细实线
 70
     0
 62
     3
  6
CONTINUOUS
  0
LAYER
  2
尺寸标注
 70
     0
 62
     7
  6
CONTINUOUS
  0
LAYER
  2
文字标注
 70
     0
 62
     7
  6
CONTINUOUS
  0
LAYER
  2
DEFPOINTS
 70
     0
 62
     7
  6
CONTINUOUS
  0
ENDTAB
  0
TABLE
  2
STYLE
 70
    12
  0
STYLE
  2
STANDARD
 70
     0
 40
0.0
 41
1.0
 50
0.0
 71
     0
 42
2.5
  3
txt
  4

  0
STYLE
  2
ANNOTATIVE
 70
     0
 40
0.0
 41
1.0
 50
0.0
 71
     0
 42
2.5
  3
txt
  4

  0
STYLE
  2

 70
     1
 40
0.0
 41
1.0
 50
0.0
 71
     0
 42
2.5
  3
ltypeshp.shx
  4

  0
STYLE
  2
国标汉字3_5
 70
     0
 40
3.5
 41
1.0
 50
0.0
 71
     0
 42
3.5
  3
gbeitc.shx
  4
gbcbig.shx
  0
STYLE
  2
SLDTEXTSTYLE0
 70
     0
 40
0.0
 41
0.75
 50
0.0
 71
     0
 42
3.5
  3
TXT
  4

  0
STYLE
  2
SLDTEXTSTYLE1
 70
     0
 40
0.0
 41
0.75
 50
0.0
 71
     0
 42
3.5
  3
TXT
  4
bigfont
  0
STYLE
  2
SLDTEXTSTYLE2
 70
     0
 40
0.0
 41
0.6944444444444445
 50
0.0
 71
     0
 42
3.5
  3
TXT
  4
bigfont
  0
STYLE
  2
SLDTEXTSTYLE3
 70
     0
 40
0.0
 41
0.7
 50
0.0
 71
     0
 42
3.5
  3
TXT
  4

  0
STYLE
  2
SLDTEXTSTYLE4
 70
     0
 40
0.0
 41
0.7
 50
0.0
 71
     0
 42
3.5
  3
TXT
  4
bigfont
  0
STYLE
  2
SLDTEXTSTYLE5
 70
     0
 40
0.0
 41
0.62
 50
0.0
 71
     0
 42
3.5
  3
TXT
  4

  0
STYLE
  2
MtXpl_MS_PGothic
 70
     0
 40
0.0
 41
1.0
 50
0.0
 71
     0
 42
3.5
  3
txt
  4

  0
STYLE
  2
MtXpl_
 70
     0
 40
0.0
 41
1.0
 50
0.0
 71
     0
 42
3.5
  3
txt
  4

  0
ENDTAB
  0
TABLE
  2
VIEW
 70
     4
  0
ENDTAB
  0
TABLE
  2
UCS
 70
     0
  0
ENDTAB
  0
TABLE
  2
APPID
 70
    16
  0
APPID
  2
ACAD
 70
     0
  0
APPID
  2
ACAD_PSEXT
 70
     0
  0
APPID
  2
ACADANNOPO
 70
     0
  0
APPID
  2
ACADANNOTATIVE
 70
     0
  0
APPID
  2
ACAD_DSTYLE_DIMJAG
 70
     0
  0
APPID
  2
ACAD_DSTYLE_DIMTALN
 70
     0
  0
APPID
  2
ACAD_MLEADERVER
 70
     0
  0
APPID
  2
ACAD_NAV_VCDISPLAY
 70
     0
  0
APPID
  2
ACAECLAYERSTANDARD
 70
     0
  0
APPID
  2
ACCMTRANSPARENCY
 70
     0
  0
APPID
  2
ACAD_DSTYLE_DIMBREAK
 70
     0
  0
APPID
  2
ACAD_EXEMPT_FROM_CAD_STANDARDS
 70
     0
  0
APPID
  2
GRADIENTCOLOR1ACI
 70
     0
  0
APPID
  2
GRADIENTCOLOR2ACI
 70
     0
  0
APPID
  2
ACAD_DSTYLE_DIMRADIAL_EXTENSION
 70
     0
  0
APPID
  2
ACAD_TC
 70
     0
  0
ENDTAB
  0
TABLE
  2
DIMSTYLE
 70
     5
  0
DIMSTYLE
  2
STANDARD
 70
     0
  3

  4

  5

  6

  7

 40
1.0
 41
0.18
 42
0.0625
 43
0.38
 44
0.18
 45
0.0
 46
0.0
 47
0.0
 48
0.0
140
0.18
141
0.09
142
0.0
143
25.3999999999999986
144
1.0
145
0.0
146
1.0
147
0.09
 71
     0
 72
     0
 73
     1
 74
     1
 75
     0
 76
     0
 77
     0
 78
     0
170
     0
171
     2
172
     0
173
     0
174
     0
175
     0
176
     0
177
     0
178
     0
  0
DIMSTYLE
  2
ANNOTATIVE
 70
     0
  3

  4

  5

  6

  7

 40
0.0
 41
2.5
 42
0.625
 43
3.75
 44
1.25
 45
0.0
 46
0.0
 47
0.0
 48
0.0
140
2.5
141
2.5
142
0.0
143
0.03937007874016
144
1.0
145
0.0
146
1.0
147
0.625
 71
     0
 72
     0
 73
     0
 74
     0
 75
     0
 76
     0
 77
     1
 78
     8
170
     0
171
     3
172
     1
173
     0
174
     0
175
     0
176
     0
177
     0
178
     0
  0
DIMSTYLE
  2
ISO-25
 70
     0
  3

  4

  5

  6

  7

 40
1.0
 41
2.5
 42
0.625
 43
3.75
 44
1.25
 45
0.0
 46
0.0
 47
0.0
 48
0.0
140
2.5
141
2.5
142
0.0
143
0.03937007874016
144
1.0
145
0.0
146
1.0
147
0.625
 71
     0
 72
     0
 73
     0
 74
     0
 75
     0
 76
     0
 77
     1
 78
     8
170
     0
171
     3
172
     1
173
     0
174
     0
175
     0
176
     0
177
     0
178
     0
  0
DIMSTYLE
  2
国标尺寸
 70
     0
  3

  4

  5

  6

  7

 40
1.0
 41
4.0
 42
0.0
 43
6.0
 44
2.0
 45
0.0
 46
0.0
 47
0.0
 48
0.0
140
3.5
141
3.5
142
0.0
143
0.03937007874016
144
1.0
145
0.0
146
1.0
147
1.0
 71
     0
 72
     0
 73
     0
 74
     1
 75
     0
 76
     0
 77
     1
 78
     8
170
     0
171
     3
172
     1
173
     0
174
     0
175
     0
176
     0
177
     0
178
     0
  0
ENDTAB
  0
ENDSEC
  0
SECTION
  2
BLOCKS
  0
BLOCK
  8
0
  2
$MODEL_SPACE
 70
     0
 10
0.0
 20
0.0
 30
0.0
  3
$MODEL_SPACE
  1

  0
ENDBLK
  5
21
  8
0
  0
BLOCK
 67
     1
  8
0
  2
$PAPER_SPACE
 70
     0
 10
0.0
 20
0.0
 30
0.0
  3
$PAPER_SPACE
  1

  0
ENDBLK
  5
D5
 67
     1
  8
0
  0
BLOCK
  8
0
  2
SW_NOTE_0
 70
     0
 10
0.0
 20
0.0
 30
0.0
  3
SW_NOTE_0
  1

  0
INSERT
  5
D40
  8
虚线
  2
*U32
 10
0.0
 20
0.0
 30
0.0
  0
INSERT
  5
D41
  8
虚线
  2
*U33
 10
0.0
 20
0.0
 30
0.0
  0
INSERT
  5
D42
  8
虚线
  2
*U34
 10
0.0
 20
0.0
 30
0.0
  0
INSERT
  5
D43
  8
虚线
  2
*U35
 10
0.0
 20
0.0
 30
0.0
  0
INSERT
  5
D44
  8
虚线
  2
*U36
 10
0.0
 20
0.0
 30
0.0
  0
INSERT
  5
D45
  8
虚线
  2
*U37
 10
0.0
 20
0.0
 30
0.0
  0
ENDBLK
  5
D46
  8
0
  0
BLOCK
  8
0
  2
SW_NOTE_0_1
 70
     0
 10
0.0
 20
0.0
 30
0.0
  3
SW_NOTE_0_1
  1

  0
INSERT
  5
D49
  8
虚线
  2
*U38
 10
0.0
 20
0.0
 30
0.0
  0
INSERT
  5
D4A
  8
虚线
  2
*U39
 10
0.0
 20
0.0
 30
0.0
  0
ENDBLK
  5
D4B
  8
0
  0
BLOCK
  8
0
  2
SW_CENTERMARKSYMBOL_0
 70
     0
 10
0.0
 20
0.0
 30
0.0
  3
SW_CENTERMARKSYMBOL_0
  1

  0
LINE
  5
D4E
  8
0
  6
CONTINUOUS
 62
     0
 10
0.0
 20
0.0
 30
0.0
 11
0.0
 21
2.5000000000000022
 31
0.0
  0
LINE
  5
D4F
  8
0
  6
CONTINUOUS
 62
     0
 10
0.0
 20
0.0
 30
0.0
 11
-2.5000000000000022
 21
0.0
 31
0.0
  0
LINE
  5
D50
  8
0
  6
CONTINUOUS
 62
     0
 10
0.0
 20
0.0
 30
0.0
 11
0.0
 21
-2.5000000000000022
 31
0.0
  0
LINE
  5
D51
  8
0
  6
CONTINUOUS
 62
     0
 10
0.0
 20
0.0
 30
0.0
 11
2.5000000000000022
 21
0.0
 31
0.0
  0
LINE
  5
D52
  8
0
  6
CONTINUOUS
 62
     0
 10
0.0
 20
5.0000000000000044
 30
0.0
 11
0.0
 21
27.5
 31
0.0
  0
LINE
  5
D53
  8
0
  6
CONTINUOUS
 62
     0
 10
-5.0000000000000044
 20
0.0
 30
0.0
 11
-27.5
 21
0.0
 31
0.0
  0
LINE
  5
D54
  8
0
  6
CONTINUOUS
 62
     0
 10
0.0
 20
-5.0000000000000044
 30
0.0
 11
0.0
 21
-27.5
 31
0.0
  0
LINE
  5
D55
  8
0
  6
CONTINUOUS
 62
     0
 10
5.0000000000000044
 20
0.0
 30
0.0
 11
27.5
 21
0.0
 31
0.0
  0
ENDBLK
  5
D56
  8
0
  0
BLOCK
  8
0
  2
SW_CENTERMARKSYMBOL_1
 70
     0
 10
0.0
 20
0.0
 30
0.0
  3
SW_CENTERMARKSYMBOL_1
  1

  0
LINE
  5
D59
  8
0
  6
CONTINUOUS
 62
     0
 10
0.0
 20
0.0
 30
0.0
 11
0.0
 21
2.4999999999999738
 31
0.0
  0
LINE
  5
D5A
  8
0
  6
CONTINUOUS
 62
     0
 10
0.0
 20
0.0
 30
0.0
 11
-2.5000000000000022
 21
0.0
 31
0.0
  0
LINE
  5
D5B
  8
0
  6
CONTINUOUS
 62
     0
 10
0.0
 20
0.0
 30
0.0
 11
0.0
 21
-2.5000000000000022
 31
0.0
  0
LINE
  5
D5C
  8
0
  6
CONTINUOUS
 62
     0
 10
0.0
 20
0.0
 30
0.0
 11
2.5000000000000022
 21
0.0
 31
0.0
  0
LINE
  5
D5D
  8
0
  6
CONTINUOUS
 62
     0
 10
0.0
 20
2.4999999999999738
 30
0.0
 11
0.0
 21
4.599999999999965
 31
0.0
  0
LINE
  5
D5E
  8
0
  6
CONTINUOUS
 62
     0
 10
-2.5000000000000022
 20
0.0
 30
0.0
 11
-4.5999999999999917
 21
0.0
 31
0.0
  0
LINE
  5
D5F
  8
0
  6
CONTINUOUS
 62
     0
 10
0.0
 20
-2.5000000000000022
 30
0.0
 11
0.0
 21
-4.5999999999999917
 31
0.0
  0
LINE
  5
D60
  8
0
  6
CONTINUOUS
 62
     0
 10
2.5000000000000022
 20
0.0
 30
0.0
 11
4.5999999999999917
 21
0.0
 31
0.0
  0
ENDBLK
  5
D61
  8
0
  0
BLOCK
  8
0
  2
SW_CENTERMARKSYMBOL_2
 70
     0
 10
0.0
 20
0.0
 30
0.0
  3
SW_CENTERMARKSYMBOL_2
  1

  0
LINE
  5
D64
  8
0
  6
CONTINUOUS
 62
     0
 10
0.0
 20
0.0
 30
0.0
 11
0.0
 21
2.5000000000000022
 31
0.0
  0
LINE
  5
D65
  8
0
  6
CONTINUOUS
 62
     0
 10
0.0
 20
0.0
 30
0.0
 11
-2.5000000000000022
 21
0.0
 31
0.0
  0
LINE
  5
D66
  8
0
  6
CONTINUOUS
 62
     0
 10
0.0
 20
0.0
 30
0.0
 11
0.0
 21
-2.5000000000000022
 31
0.0
  0
LINE
  5
D67
  8
0
  6
CONTINUOUS
 62
     0
 10
0.0
 20
0.0
 30
0.0
 11
2.5000000000000022
 21
0.0
 31
0.0
  0
LINE
  5
D68
  8
0
  6
CONTINUOUS
 62
     0
 10
0.0
 20
2.5000000000000022
 30
0.0
 11
0.0
 21
4.5999999999999917
 31
0.0
  0
LINE
  5
D69
  8
0
  6
CONTINUOUS
 62
     0
 10
-2.5000000000000022
 20
0.0
 30
0.0
 11
-4.599999999999965
 21
0.0
 31
0.0
  0
LINE
  5
D6A
  8
0
  6
CONTINUOUS
 62
     0
 10
0.0
 20
-2.5000000000000022
 30
0.0
 11
0.0
 21
-4.5999999999999917
 31
0.0
  0
LINE
  5
D6B
  8
0
  6
CONTINUOUS
 62
     0
 10
2.5000000000000022
 20
0.0
 30
0.0
 11
4.5999999999999917
 21
0.0
 31
0.0
  0
ENDBLK
  5
D6C
  8
0
  0
BLOCK
  8
0
  2
SW_CENTERMARKSYMBOL_3
 70
     0
 10
0.0
 20
0.0
 30
0.0
  3
SW_CENTERMARKSYMBOL_3
  1

  0
LINE
  5
D6F
  8
0
  6
CONTINUOUS
 62
     0
 10
0.0
 20
0.0
 30
0.0
 11
0.0
 21
2.5000000000000022
 31
0.0
  0
LINE
  5
D70
  8
0
  6
CONTINUOUS
 62
     0
 10
0.0
 20
0.0
 30
0.0
 11
-2.5000000000000022
 21
0.0
 31
0.0
  0
LINE
  5
D71
  8
0
  6
CONTINUOUS
 62
     0
 10
0.0
 20
0.0
 30
0.0
 11
0.0
 21
-2.5000000000000022
 31
0.0
  0
LINE
  5
D72
  8
0
  6
CONTINUOUS
 62
     0
 10
0.0
 20
0.0
 30
0.0
 11
2.5000000000000022
 21
0.0
 31
0.0
  0
LINE
  5
D73
  8
0
  6
CONTINUOUS
 62
     0
 10
0.0
 20
2.5000000000000022
 30
0.0
 11
0.0
 21
4.599999999999965
 31
0.0
  0
LINE
  5
D74
  8
0
  6
CONTINUOUS
 62
     0
 10
-2.5000000000000022
 20
0.0
 30
0.0
 11
-4.5999999999999917
 21
0.0
 31
0.0
  0
LINE
  5
D75
  8
0
  6
CONTINUOUS
 62
     0
 10
0.0
 20
-2.5000000000000022
 30
0.0
 11
0.0
 21
-4.5999999999999917
 31
0.0
  0
LINE
  5
D76
  8
0
  6
CONTINUOUS
 62
     0
 10
2.5000000000000022
 20
0.0
 30
0.0
 11
4.5999999999999917
 21
0.0
 31
0.0
  0
ENDBLK
  5
D77
  8
0
  0
BLOCK
  8
0
  2
_CLOSED
 70
     0
 10
0.0
 20
0.0
 30
0.0
  3
_CLOSED
  1

  0
LINE
  5
D7A
  8
0
  6
BYBLOCK
 62
     0
 10
-1.0
 20
0.166667
 30
0.0
 11
0.0
 21
0.0
 31
0.0
  0
LINE
  5
D7B
  8
0
  6
BYBLOCK
 62
     0
 10
0.0
 20
0.0
 30
0.0
 11
-1.0
 21
-0.166667
 31
0.0
  0
LINE
  5
D7C
  8
0
  6
BYBLOCK
 62
     0
 10
-1.0
 20
0.166667
 30
0.0
 11
-1.0
 21
-0.166667
 31
0.0
  0
LINE
  5
D7D
  8
0
  6
BYBLOCK
 62
     0
 10
0.0
 20
0.0
 30
0.0
 11
-1.0
 21
0.0
 31
0.0
  0
ENDBLK
  5
D7E
  8
0
  0
BLOCK
  8
0
  2
SW_CENTERMARKSYMBOL_4
 70
     0
 10
0.0
 20
0.0
 30
0.0
  3
SW_CENTERMARKSYMBOL_4
  1

  0
LINE
  5
D81
  8
0
  6
CONTINUOUS
 62
     0
 10
0.0
 20
0.0
 30
0.0
 11
0.0
 21
2.5000000000000022
 31
0.0
  0
LINE
  5
D82
  8
0
  6
CONTINUOUS
 62
     0
 10
0.0
 20
0.0
 30
0.0
 11
-2.5000000000000022
 21
0.0
 31
0.0
  0
LINE
  5
D83
  8
0
  6
CONTINUOUS
 62
     0
 10
0.0
 20
0.0
 30
0.0
 11
0.0
 21
-2.4999999999999458
 31
0.0
  0
LINE
  5
D84
  8
0
  6
CONTINUOUS
 62
     0
 10
0.0
 20
0.0
 30
0.0
 11
2.5000000000000022
 21
0.0
 31
0.0
  0
LINE
  5
D85
  8
0
  6
CONTINUOUS
 62
     0
 10
0.0
 20
5.0000000000000044
 30
0.0
 11
0.0
 21
48.4999999999999787
 31
0.0
  0
LINE
  5
D86
  8
0
  6
CONTINUOUS
 62
     0
 10
-5.0000000000000044
 20
0.0
 30
0.0
 11
-48.4999999999999787
 21
0.0
 31
0.0
  0
LINE
  5
D87
  8
0
  6
CONTINUOUS
 62
     0
 10
0.0
 20
-4.9999999999999476
 30
0.0
 11
0.0
 21
-48.4999999999999787
 31
0.0
  0
LINE
  5
D88
  8
0
  6
CONTINUOUS
 62
     0
 10
5.0000000000000044
 20
0.0
 30
0.0
 11
48.4999999999999787
 21
0.0
 31
0.0
  0
ENDBLK
  5
D89
  8
0
  0
BLOCK
  8
0
  2
SW_CENTERMARKSYMBOL_5
 70
     0
 10
0.0
 20
0.0
 30
0.0
  3
SW_CENTERMARKSYMBOL_5
  1

  0
LINE
  5
D8C
  8
0
  6
CONTINUOUS
 62
     0
 10
0.0
 20
0.0
 30
0.0
 11
0.0
 21
2.5000000000000022
 31
0.0
  0
LINE
  5
D8D
  8
0
  6
CONTINUOUS
 62
     0
 10
0.0
 20
0.0
 30
0.0
 11
-2.5000000000000022
 21
0.0
 31
0.0
  0
LINE
  5
D8E
  8
0
  6
CONTINUOUS
 62
     0
 10
0.0
 20
0.0
 30
0.0
 11
0.0
 21
-2.4999999999999458
 31
0.0
  0
LINE
  5
D8F
  8
0
  6
CONTINUOUS
 62
     0
 10
0.0
 20
0.0
 30
0.0
 11
2.5000000000000022
 21
0.0
 31
0.0
  0
LINE
  5
D90
  8
0
  6
CONTINUOUS
 62
     0
 10
0.0
 20
5.0000000000000044
 30
0.0
 11
0.0
 21
10.0000000000000107
 31
0.0
  0
LINE
  5
D91
  8
0
  6
CONTINUOUS
 62
     0
 10
-5.0000000000000044
 20
0.0
 30
0.0
 11
-10.0000000000000107
 21
0.0
 31
0.0
  0
LINE
  5
D92
  8
0
  6
CONTINUOUS
 62
     0
 10
0.0
 20
-4.9999999999999476
 30
0.0
 11
0.0
 21
-9.9999999999999538
 31
0.0
  0
LINE
  5
D93
  8
0
  6
CONTINUOUS
 62
     0
 10
5.0000000000000044
 20
0.0
 30
0.0
 11
10.0000000000000107
 21
0.0
 31
0.0
  0
ENDBLK
  5
D94
  8
0
  0
BLOCK
  8
0
  2
SW_CENTERMARKSYMBOL_6
 70
     0
 10
0.0
 20
0.0
 30
0.0
  3
SW_CENTERMARKSYMBOL_6
  1

  0
LINE
  5
D97
  8
0
  6
CONTINUOUS
 62
     0
 10
0.0
 20
0.0
 30
0.0
 11
0.0
 21
2.5000000000000022
 31
0.0
  0
LINE
  5
D98
  8
0
  6
CONTINUOUS
 62
     0
 10
0.0
 20
0.0
 30
0.0
 11
-2.5000000000000022
 21
0.0
 31
0.0
  0
LINE
  5
D99
  8
0
  6
CONTINUOUS
 62
     0
 10
0.0
 20
0.0
 30
0.0
 11
0.0
 21
-2.4999999999999458
 31
0.0
  0
LINE
  5
D9A
  8
0
  6
CONTINUOUS
 62
     0
 10
0.0
 20
0.0
 30
0.0
 11
2.5000000000000022
 21
0.0
 31
0.0
  0
LINE
  5
D9B
  8
0
  6
CONTINUOUS
 62
     0
 10
0.0
 20
5.0000000000000044
 30
0.0
 11
0.0
 21
10.0000000000000107
 31
0.0
  0
LINE
  5
D9C
  8
0
  6
CONTINUOUS
 62
     0
 10
-4.9999999999999902
 20
0.0
 30
0.0
 11
-9.9999999999999947
 21
0.0
 31
0.0
  0
LINE
  5
D9D
  8
0
  6
CONTINUOUS
 62
     0
 10
0.0
 20
-4.9999999999999476
 30
0.0
 11
0.0
 21
-9.9999999999999538
 31
0.0
  0
LINE
  5
D9E
  8
0
  6
CONTINUOUS
 62
     0
 10
4.9999999999999902
 20
0.0
 30
0.0
 11
9.9999999999999947
 21
0.0
 31
0.0
  0
ENDBLK
  5
D9F
  8
0
  0
BLOCK
  8
0
  2
SW_NOTE_0_2
 70
     0
 10
0.0
 20
0.0
 30
0.0
  3
SW_NOTE_0_2
  1

  0
INSERT
  5
DA2
  8
虚线
  2
*U40
 10
0.0
 20
0.0
 30
0.0
  0
INSERT
  5
DA3
  8
虚线
  2
*U41
 10
0.0
 20
0.0
 30
0.0
  0
INSERT
  5
DA4
  8
虚线
  2
*U42
 10
0.0
 20
0.0
 30
0.0
  0
INSERT
  5
DA5
  8
虚线
  2
*U43
 10
0.0
 20
0.0
 30
0.0
  0
ENDBLK
  5
DA6
  8
0
  0
BLOCK
  8
0
  2
*D14
 70
     1
 10
0.0
 20
0.0
 30
0.0
  3
*D14
  1

  0
LINE
  5
16CB
  8
0
 62
     0
 10
149.0857219029421117
 20
146.7637161337740963
 30
0.0
 11
131.2283885696087964
 21
146.7637161337740963
 31
0.0
  0
LINE
  5
16CC
  8
0
 62
     0
 10
131.2283885696087964
 20
146.7637161337740963
 30
0.0
 11
111.6795530566586052
 21
127.5633327109215003
 31
0.0
  0
LINE
  5
16CD
  8
0
 62
     0
 10
77.3204469433413948
 20
93.816667289078552
 30
0.0
 11
74.4096256613161842
 21
90.9577305174606181
 31
0.0
  0
INSERT
  5
16CE
  8
虚线
  2
*U46
 10
0.0
 20
0.0
 30
0.0
  0
LINE
  5
16CF
  8
0
 62
     0
 10
80.2312682253666054
 20
96.6756040606964717
 30
0.0
 11
108.7687317746333946
 21
124.7043959393034953
 31
0.0
  0
SOLID
  5
16D0
  8
0
 62
     0
 10
76.8439574814050701
 20
94.3018041694160729
 30
0.0
 11
77.7969364052777053
 21
93.3315304087410169
 31
0.0
 12
80.2312682253666054
 22
96.6756040606964717
 32
0.0
 13
80.2312682253666054
 23
96.6756040606964717
 33
0.0
  0
SOLID
  5
16D1
  8
0
 62
     0
 10
111.2030635947222947
 20
128.0484695912589928
 30
0.0
 11
112.1560425185949015
 21
127.0781958305838941
 31
0.0
 12
108.7687317746333946
 22
124.7043959393034953
 32
0.0
 13
108.7687317746333946
 23
124.7043959393034953
 33
0.0
  0
POINT
  5
16D2
  8
DEFPOINTS
 62
     0
 10
108.7687317746333946
 20
124.7043959393034953
 30
0.0
  0
POINT
  5
16D3
  8
DEFPOINTS
 62
     0
 10
80.2312682253666054
 20
96.6756040606964717
 30
0.0
  0
ENDBLK
  5
16D4
  8
0
  0
BLOCK
  8
0
  2
*D15
 70
     1
 10
0.0
 20
0.0
 30
0.0
  3
*D15
  1

  0
LINE
  5
16D7
  8
0
 62
     0
 10
88.5000000000000284
 20
214.4900000000000944
 30
0.0
 11
58.0091929196890135
 21
214.4900000000000944
 31
0.0
  0
LINE
  5
16D8
  8
0
 62
     0
 10
88.5000000000000284
 20
254.4900000000000944
 30
0.0
 11
58.0091929196889993
 21
254.4900000000000944
 31
0.0
  0
LINE
  5
16D9
  8
0
 62
     0
 10
60.0091929196890206
 20
218.5700000000001069
 30
0.0
 11
60.0091929196890206
 21
230.9243333333334078
 31
0.0
  0
LINE
  5
16DA
  8
0
 62
     0
 10
60.0091929196890135
 20
250.4100000000001103
 30
0.0
 11
60.0091929196890206
 21
238.0556666666666956
 31
0.0
  0
SOLID
  5
16DB
  8
0
 62
     0
 10
59.3291929196890067
 20
218.5700000000001069
 30
0.0
 11
60.6891929196890132
 21
218.5700000000001069
 31
0.0
 12
60.0091929196890206
 22
214.4900000000000944
 32
0.0
 13
60.0091929196890206
 23
214.4900000000000944
 33
0.0
  0
SOLID
  5
16DC
  8
0
 62
     0
 10
59.3291929196889996
 20
250.4100000000001103
 30
0.0
 11
60.689192919688999
 21
250.4100000000001103
 31
0.0
 12
60.0091929196890135
 22
254.4900000000000944
 32
0.0
 13
60.0091929196890135
 23
254.4900000000000944
 33
0.0
  0
INSERT
  5
16DD
  8
虚线
  2
*U47
 10
0.0
 20
0.0
 30
0.0
  0
POINT
  5
16DE
  8
DEFPOINTS
 62
     0
 10
88.5000000000000284
 20
214.4900000000000944
 30
0.0
  0
POINT
  5
16DF
  8
DEFPOINTS
 62
     0
 10
88.5000000000000284
 20
254.4900000000000944
 30
0.0
  0
POINT
  5
16E0
  8
DEFPOINTS
 62
     0
 10
60.0091929196890135
 20
254.4900000000000944
 30
0.0
  0
ENDBLK
  5
16E1
  8
0
  0
BLOCK
  8
0
  2
*D16
 70
     1
 10
0.0
 20
0.0
 30
0.0
  3
*D16
  1

  0
LINE
  5
16E4
  8
0
 62
     0
 10
88.4999999999999858
 20
254.4900000000000091
 30
0.0
 11
88.4999999999999858
 21
269.2118942766576879
 31
0.0
  0
LINE
  5
16E5
  8
0
 62
     0
 10
100.5
 20
254.4900000000000091
 30
0.0
 11
100.5
 21
269.2118942766576879
 31
0.0
  0
LINE
  5
16E6
  8
0
 62
     0
 10
92.5799999999999983
 20
267.2118942766576879
 30
0.0
 11
96.4200000000000159
 21
267.2118942766576879
 31
0.0
  0
LINE
  5
16E7
  8
0
 62
     0
 10
100.5
 20
267.2118942766576879
 30
0.0
 11
119.8780000000000001
 21
267.2118942766576879
 31
0.0
  0
SOLID
  5
16E8
  8
0
 62
     0
 10
92.5799999999999983
 20
267.8918942766578084
 30
0.0
 11
92.5799999999999983
 21
266.5318942766576811
 31
0.0
 12
88.4999999999999858
 22
267.2118942766576879
 32
0.0
 13
88.4999999999999858
 23
267.2118942766576879
 33
0.0
  0
SOLID
  5
16E9
  8
0
 62
     0
 10
96.4200000000000159
 20
267.8918942766578084
 30
0.0
 11
96.4200000000000159
 21
266.5318942766576811
 31
0.0
 12
100.5
 22
267.2118942766576879
 32
0.0
 13
100.5
 23
267.2118942766576879
 33
0.0
  0
INSERT
  5
16EA
  8
虚线
  2
*U48
 10
0.0
 20
0.0
 30
0.0
  0
POINT
  5
16EB
  8
DEFPOINTS
 62
     0
 10
88.4999999999999858
 20
254.4900000000000091
 30
0.0
  0
POINT
  5
16EC
  8
DEFPOINTS
 62
     0
 10
100.5
 20
254.4900000000000091
 30
0.0
  0
POINT
  5
16ED
  8
DEFPOINTS
 62
     0
 10
100.5
 20
267.2118942766576879
 30
0.0
  0
ENDBLK
  5
16EE
  8
0
  0
BLOCK
  8
0
  2
*D17
 70
     1
 10
0.0
 20
0.0
 30
0.0
  3
*D17
  1

  0
LINE
  5
16F1
  8
0
 62
     0
 10
94.5000000000000142
 20
214.4900000000000944
 30
0.0
 11
142.713775629325994
 21
214.4900000000000944
 31
0.0
  0
LINE
  5
16F2
  8
0
 62
     0
 10
94.5000000000000142
 20
199.4900000000000944
 30
0.0
 11
142.713775629325994
 21
199.4900000000000944
 31
0.0
  0
LINE
  5
16F3
  8
0
 62
     0
 10
140.713775629325994
 20
210.4100000000001103
 30
0.0
 11
140.713775629325994
 21
203.5700000000001069
 31
0.0
  0
LINE
  5
16F4
  8
0
 62
     0
 10
140.713775629325994
 20
199.4900000000000944
 30
0.0
 11
140.713775629325994
 21
195.4100000000001103
 31
0.0
  0
LINE
  5
16F5
  8
0
 62
     0
 10
140.713775629325994
 20
195.4100000000001103
 30
0.0
 11
126.9397756293259931
 21
195.4100000000001103
 31
0.0
  0
SOLID
  5
16F6
  8
0
 62
     0
 10
140.0337756293259872
 20
210.4100000000001103
 30
0.0
 11
141.3937756293260009
 21
210.4100000000001103
 31
0.0
 12
140.713775629325994
 22
214.4900000000000944
 32
0.0
 13
140.713775629325994
 23
214.4900000000000944
 33
0.0
  0
SOLID
  5
16F7
  8
0
 62
     0
 10
140.0337756293259872
 20
203.5700000000001069
 30
0.0
 11
141.3937756293260009
 21
203.5700000000001069
 31
0.0
 12
140.713775629325994
 22
199.4900000000000944
 32
0.0
 13
140.713775629325994
 23
199.4900000000000944
 33
0.0
  0
INSERT
  5
16F8
  8
虚线
  2
*U49
 10
0.0
 20
0.0
 30
0.0
  0
POINT
  5
16F9
  8
DEFPOINTS
 62
     0
 10
94.5000000000000142
 20
214.4900000000000944
 30
0.0
  0
POINT
  5
16FA
  8
DEFPOINTS
 62
     0
 10
94.5000000000000142
 20
199.4900000000000944
 30
0.0
  0
POINT
  5
16FB
  8
DEFPOINTS
 62
     0
 10
140.713775629325994
 20
199.4900000000000944
 30
0.0
  0
ENDBLK
  5
16FC
  8
0
  0
BLOCK
  8
0
  2
*D18
 70
     1
 10
0.0
 20
0.0
 30
0.0
  3
*D18
  1

  0
LINE
  5
16FF
  8
0
 62
     0
 10
114.5
 20
199.4900000000000944
 30
0.0
 11
156.857878096898105
 21
199.4900000000000944
 31
0.0
  0
LINE
  5
1700
  8
0
 62
     0
 10
114.5
 20
259.4900000000001228
 30
0.0
 11
156.857878096898105
 21
259.4900000000001796
 31
0.0
  0
LINE
  5
1701
  8
0
 62
     0
 10
154.857878096898105
 20
203.5700000000001069
 30
0.0
 11
154.857878096898105
 21
225.9243333333334931
 31
0.0
  0
LINE
  5
1702
  8
0
 62
     0
 10
154.857878096898105
 20
255.4100000000001103
 30
0.0
 11
154.857878096898105
 21
233.0556666666668093
 31
0.0
  0
SOLID
  5
1703
  8
0
 62
     0
 10
154.1778780968980982
 20
203.5700000000001069
 30
0.0
 11
155.5378780968981118
 21
203.5700000000001069
 31
0.0
 12
154.857878096898105
 22
199.4900000000000944
 32
0.0
 13
154.857878096898105
 23
199.4900000000000944
 33
0.0
  0
SOLID
  5
1704
  8
0
 62
     0
 10
154.1778780968980982
 20
255.4100000000001103
 30
0.0
 11
155.5378780968981118
 21
255.4100000000001103
 31
0.0
 12
154.857878096898105
 22
259.4900000000001796
 32
0.0
 13
154.857878096898105
 23
259.4900000000001796
 33
0.0
  0
INSERT
  5
1705
  8
虚线
  2
*U50
 10
0.0
 20
0.0
 30
0.0
  0
POINT
  5
1706
  8
DEFPOINTS
 62
     0
 10
114.5
 20
199.4900000000000944
 30
0.0
  0
POINT
  5
1707
  8
DEFPOINTS
 62
     0
 10
114.5
 20
259.4900000000001228
 30
0.0
  0
POINT
  5
1708
  8
DEFPOINTS
 62
     0
 10
154.857878096898105
 20
259.4900000000001796
 30
0.0
  0
ENDBLK
  5
1709
  8
0
  0
BLOCK
  8
0
  2
*D20
 70
     1
 10
0.0
 20
0.0
 30
0.0
  3
*D20
  1

  0
LINE
  5
185E
  8
0
 62
     0
 10
229.0101281329285996
 20
228.0957514340786076
 30
0.0
 11
212.016388840563593
 21
228.0957514340786929
 31
0.0
  0
LINE
  5
185F
  8
0
 62
     0
 10
212.016388840563593
 20
228.0957514340786929
 30
0.0
 11
192.4675533276133876
 21
208.8953680112259974
 31
0.0
  0
LINE
  5
1860
  8
0
 62
     0
 10
158.1084472142962056
 20
175.148702589383106
 30
0.0
 11
155.197625932270995
 21
172.2897658177651863
 31
0.0
  0
INSERT
  5
1861
  8
虚线
  2
*U145
 10
0.0
 20
0.0
 30
0.0
  0
LINE
  5
1862
  8
0
 62
     0
 10
161.0192684963213878
 20
178.0076393610009973
 30
0.0
 11
189.5567320455882054
 21
206.0364312396081061
 31
0.0
  0
SOLID
  5
1863
  8
0
 62
     0
 10
157.6319577523599094
 20
175.6338394697206127
 30
0.0
 11
158.5849366762325019
 21
174.6635657090455993
 31
0.0
 12
161.0192684963213878
 22
178.0076393610009973
 32
0.0
 13
161.0192684963213878
 23
178.0076393610009973
 33
0.0
  0
SOLID
  5
1864
  8
0
 62
     0
 10
191.9910638656770914
 20
209.3805048915635894
 30
0.0
 11
192.9440427895497976
 21
208.4102311308884907
 31
0.0
 12
189.5567320455882054
 22
206.0364312396081061
 32
0.0
 13
189.5567320455882054
 23
206.0364312396081061
 33
0.0
  0
POINT
  5
1865
  8
DEFPOINTS
 62
     0
 10
189.5567320455882054
 20
206.0364312396081061
 30
0.0
  0
POINT
  5
1866
  8
DEFPOINTS
 62
     0
 10
161.0192684963213878
 20
178.0076393610009973
 30
0.0
  0
ENDBLK
  5
181F
  8
0
  0
BLOCK
  8
0
  2
*D21
 70
     1
 10
0.0
 20
0.0
 30
0.0
  3
*D21
  1

  0
LINE
  5
1867
  8
0
 62
     0
 10
169.2880002709549103
 20
295.8220353003047194
 30
0.0
 11
138.7971931906438954
 21
295.8220353003047194
 31
0.0
  0
LINE
  5
1868
  8
0
 62
     0
 10
169.2880002709549103
 20
335.8220353003047194
 30
0.0
 11
138.7971931906438954
 21
335.8220353003047194
 31
0.0
  0
LINE
  5
1869
  8
0
 62
     0
 10
140.7971931906438954
 20
299.9020353003047035
 30
0.0
 11
140.7971931906438954
 21
312.254739210919297
 31
0.0
  0
LINE
  5
186A
  8
0
 62
     0
 10
140.7971931906438954
 20
331.7420353003046785
 30
0.0
 11
140.7971931906438954
 21
319.3893313896901986
 31
0.0
  0
SOLID
  5
186B
  8
0
 62
     0
 10
140.1171931906438886
 20
299.9020353003047035
 30
0.0
 11
141.4771931906439022
 21
299.9020353003047035
 31
0.0
 12
140.7971931906438954
 22
295.8220353003047194
 32
0.0
 13
140.7971931906438954
 23
295.8220353003047194
 33
0.0
  0
SOLID
  5
186C
  8
0
 62
     0
 10
140.1171931906438886
 20
331.7420353003046785
 30
0.0
 11
141.4771931906439022
 21
331.7420353003046785
 31
0.0
 12
140.7971931906438954
 22
335.8220353003047194
 32
0.0
 13
140.7971931906438954
 23
335.8220353003047194
 33
0.0
  0
INSERT
  5
186D
  8
虚线
  2
*U146
 10
0.0
 20
0.0
 30
0.0
  0
POINT
  5
186E
  8
DEFPOINTS
 62
     0
 10
169.2880002709549103
 20
295.8220353003047194
 30
0.0
  0
POINT
  5
186F
  8
DEFPOINTS
 62
     0
 10
169.2880002709549103
 20
335.8220353003047194
 30
0.0
  0
POINT
  5
1870
  8
DEFPOINTS
 62
     0
 10
140.7971931906438954
 20
335.8220353003047194
 30
0.0
  0
ENDBLK
  5
182B
  8
0
  0
BLOCK
  8
0
  2
*D22
 70
     1
 10
0.0
 20
0.0
 30
0.0
  3
*D22
  1

  0
LINE
  5
1871
  8
0
 62
     0
 10
169.2880002709547966
 20
335.8220353003046057
 30
0.0
 11
169.2880002709547966
 21
350.5439295769622845
 31
0.0
  0
LINE
  5
1872
  8
0
 62
     0
 10
181.2880002709547966
 20
335.8220353003046057
 30
0.0
 11
181.2880002709547966
 21
350.5439295769622845
 31
0.0
  0
LINE
  5
1873
  8
0
 62
     0
 10
173.3680002709548091
 20
348.5439295769622845
 30
0.0
 11
177.2080002709548125
 21
348.5439295769622845
 31
0.0
  0
LINE
  5
1874
  8
0
 62
     0
 10
181.2880002709547966
 20
348.5439295769622845
 30
0.0
 11
200.1087377011224078
 21
348.5439295769622845
 31
0.0
  0
SOLID
  5
1875
  8
0
 62
     0
 10
173.3680002709548091
 20
349.2239295769622913
 30
0.0
 11
173.3680002709548091
 21
347.8639295769622777
 31
0.0
 12
169.2880002709547966
 22
348.5439295769622845
 32
0.0
 13
169.2880002709547966
 23
348.5439295769622845
 33
0.0
  0
SOLID
  5
1876
  8
0
 62
     0
 10
177.2080002709548125
 20
349.2239295769622913
 30
0.0
 11
177.2080002709548125
 21
347.8639295769622777
 31
0.0
 12
181.2880002709547966
 22
348.5439295769622845
 32
0.0
 13
181.2880002709547966
 23
348.5439295769622845
 33
0.0
  0
INSERT
  5
1877
  8
虚线
  2
*U147
 10
0.0
 20
0.0
 30
0.0
  0
POINT
  5
1878
  8
DEFPOINTS
 62
     0
 10
169.2880002709547966
 20
335.8220353003046057
 30
0.0
  0
POINT
  5
1879
  8
DEFPOINTS
 62
     0
 10
181.2880002709547966
 20
335.8220353003046057
 30
0.0
  0
POINT
  5
187A
  8
DEFPOINTS
 62
     0
 10
181.2880002709547966
 20
348.5439295769622845
 30
0.0
  0
ENDBLK
  5
1838
  8
0
  0
BLOCK
  8
0
  2
*D23
 70
     1
 10
0.0
 20
0.0
 30
0.0
  3
*D23
  1

  0
LINE
  5
187B
  8
0
 62
     0
 10
175.2880002709549103
 20
295.8220353003047194
 30
0.0
 11
223.5017759002809896
 21
295.8220353003047194
 31
0.0
  0
LINE
  5
187C
  8
0
 62
     0
 10
175.2880002709549103
 20
280.8220353003047194
 30
0.0
 11
223.5017759002809896
 21
280.8220353003047194
 31
0.0
  0
LINE
  5
187D
  8
0
 62
     0
 10
221.5017759002809896
 20
291.7420353003047921
 30
0.0
 11
221.5017759002809896
 21
284.9020353003047035
 31
0.0
  0
LINE
  5
187E
  8
0
 62
     0
 10
221.5017759002809896
 20
280.8220353003047194
 30
0.0
 11
221.5017759002809896
 21
276.7420353003046785
 31
0.0
  0
LINE
  5
187F
  8
0
 62
     0
 10
221.5017759002809896
 20
276.7420353003046785
 30
0.0
 11
208.2850384701133919
 21
276.7420353003046785
 31
0.0
  0
SOLID
  5
1880
  8
0
 62
     0
 10
220.8217759002810112
 20
291.7420353003047921
 30
0.0
 11
222.1817759002809964
 21
291.7420353003047921
 31
0.0
 12
221.5017759002809896
 22
295.8220353003047194
 32
0.0
 13
221.5017759002809896
 23
295.8220353003047194
 33
0.0
  0
SOLID
  5
1881
  8
0
 62
     0
 10
220.8217759002810112
 20
284.9020353003047035
 30
0.0
 11
222.1817759002809964
 21
284.9020353003047035
 31
0.0
 12
221.5017759002809896
 22
280.8220353003047194
 32
0.0
 13
221.5017759002809896
 23
280.8220353003047194
 33
0.0
  0
INSERT
  5
1882
  8
虚线
  2
*U148
 10
0.0
 20
0.0
 30
0.0
  0
POINT
  5
1883
  8
DEFPOINTS
 62
     0
 10
175.2880002709549103
 20
295.8220353003047194
 30
0.0
  0
POINT
  5
1884
  8
DEFPOINTS
 62
     0
 10
175.2880002709549103
 20
280.8220353003047194
 30
0.0
  0
POINT
  5
1885
  8
DEFPOINTS
 62
     0
 10
221.5017759002809896
 20
280.8220353003047194
 30
0.0
  0
ENDBLK
  5
1845
  8
0
  0
BLOCK
  8
0
  2
*D24
 70
     1
 10
0.0
 20
0.0
 30
0.0
  3
*D24
  1

  0
LINE
  5
1886
  8
0
 62
     0
 10
195.2880002709549103
 20
280.8220353003047194
 30
0.0
 11
237.6458783678531859
 21
280.8220353003047194
 31
0.0
  0
LINE
  5
1887
  8
0
 62
     0
 10
195.2880002709549103
 20
340.8220353003047194
 30
0.0
 11
237.6458783678531006
 21
340.8220353003047194
 31
0.0
  0
LINE
  5
1888
  8
0
 62
     0
 10
235.6458783678531859
 20
284.9020353003047035
 30
0.0
 11
235.6458783678531859
 21
307.2547392109191833
 31
0.0
  0
LINE
  5
1889
  8
0
 62
     0
 10
235.6458783678531006
 20
336.7420353003046785
 30
0.0
 11
235.6458783678531859
 21
314.3893313896901986
 31
0.0
  0
SOLID
  5
188A
  8
0
 62
     0
 10
234.9658783678532075
 20
284.9020353003047035
 30
0.0
 11
236.3258783678531074
 21
284.9020353003047035
 31
0.0
 12
235.6458783678531859
 22
280.8220353003047194
 32
0.0
 13
235.6458783678531859
 23
280.8220353003047194
 33
0.0
  0
SOLID
  5
188B
  8
0
 62
     0
 10
234.9658783678530938
 20
336.7420353003046785
 30
0.0
 11
236.3258783678531074
 21
336.7420353003046785
 31
0.0
 12
235.6458783678531006
 22
340.8220353003047194
 32
0.0
 13
235.6458783678531006
 23
340.8220353003047194
 33
0.0
  0
INSERT
  5
188C
  8
虚线
  2
*U149
 10
0.0
 20
0.0
 30
0.0
  0
POINT
  5
188D
  8
DEFPOINTS
 62
     0
 10
195.2880002709549103
 20
280.8220353003047194
 30
0.0
  0
POINT
  5
188E
  8
DEFPOINTS
 62
     0
 10
195.2880002709549103
 20
340.8220353003047194
 30
0.0
  0
POINT
  5
188F
  8
DEFPOINTS
 62
     0
 10
235.6458783678531006
 20
340.8220353003047194
 30
0.0
  0
ENDBLK
  5
1853
  8
0
  0
BLOCK
  8
0
  2
*D26
 70
     1
 10
0.0
 20
0.0
 30
0.0
  3
*D26
  1

  0
LINE
  5
18B4
  8
尺寸标注
 62
     0
 10
169.2880002708309917
 20
207.000819328604706
 30
0.0
 11
138.9320259601178122
 21
207.000819328604706
 31
0.0
  0
LINE
  5
18B5
  8
尺寸标注
 62
     0
 10
169.2880002708309917
 20
192.022035300304708
 30
0.0
 11
138.9320259601178122
 21
192.022035300304708
 31
0.0
  0
LINE
  5
18B6
  8
尺寸标注
 62
     0
 10
140.9320259601178122
 20
203.000819328604706
 30
0.0
 11
140.9320259601178122
 21
196.022035300304708
 31
0.0
  0
SOLID
  5
18B7
  8
尺寸标注
 62
     0
 10
140.2653592934510982
 20
203.000819328604706
 30
0.0
 11
141.5986926267844126
 21
203.000819328604706
 31
0.0
 12
140.9320259601178122
 22
207.000819328604706
 32
0.0
 13
140.9320259601178122
 23
207.000819328604706
 33
0.0
  0
SOLID
  5
18B8
  8
尺寸标注
 62
     0
 10
140.2653592934510982
 20
196.022035300304708
 30
0.0
 11
141.5986926267844126
 21
196.022035300304708
 31
0.0
 12
140.9320259601178122
 22
192.022035300304708
 32
0.0
 13
140.9320259601178122
 23
192.022035300304708
 33
0.0
  0
INSERT
  5
18B9
  8
虚线
  2
*U150
 10
0.0
 20
0.0
 30
0.0
  0
POINT
  5
18BA
  8
DEFPOINTS
 62
     0
 10
169.2880002708309917
 20
207.000819328604706
 30
0.0
  0
POINT
  5
18BB
  8
DEFPOINTS
 62
     0
 10
169.2880002708309917
 20
192.022035300304708
 30
0.0
  0
POINT
  5
18BC
  8
DEFPOINTS
 62
     0
 10
140.9320259601178122
 20
192.022035300304708
 30
0.0
  0
ENDBLK
  5
18A9
  8
0
  0
BLOCK
  8
0
  2
*D27
 70
     1
 10
0.0
 20
0.0
 30
0.0
  3
*D27
  1

  0
LINE
  5
18CC
  8
尺寸标注
 62
     0
 10
215.5400255868169097
 20
221.9006462937759068
 30
0.0
 11
208.2691922534835101
 21
221.9006462937759068
 31
0.0
  0
LINE
  5
18CD
  8
尺寸标注
 62
     0
 10
208.2691922534835101
 20
221.9006462937759068
 30
0.0
 11
193.074529743537596
 21
208.1353642338596046
 31
0.0
  0
LINE
  5
18CE
  8
尺寸标注
 62
     0
 10
157.5014707983719973
 20
175.9087063667494988
 30
0.0
 11
154.5370492196082068
 21
173.2231515444902925
 31
0.0
  0
INSERT
  5
18CF
  8
虚线
  2
*U151
 10
0.0
 20
0.0
 30
0.0
  0
LINE
  5
18D0
  8
尺寸标注
 62
     0
 10
160.4658923771357877
 20
178.5942611890085914
 30
0.0
 11
190.1101081647738056
 21
205.449809411600512
 31
0.0
  0
SOLID
  5
18D1
  8
尺寸标注
 62
     0
 10
157.0538783279955055
 20
176.4027766298767972
 30
0.0
 11
157.949063268748489
 21
175.4146361036222004
 31
0.0
 12
160.4658923771357877
 22
178.5942611890085914
 32
0.0
 13
160.4658923771357877
 23
178.5942611890085914
 33
0.0
  0
SOLID
  5
18D2
  8
尺寸标注
 62
     0
 10
192.6269372731609906
 20
208.6294344969869883
 30
0.0
 11
193.5221222139140878
 21
207.6412939707323915
 31
0.0
 12
190.1101081647738056
 22
205.449809411600512
 32
0.0
 13
190.1101081647738056
 23
205.449809411600512
 33
0.0
  0
POINT
  5
18D3
  8
DEFPOINTS
 62
     0
 10
190.1101081647738056
 20
205.449809411600512
 30
0.0
  0
POINT
  5
18D4
  8
DEFPOINTS
 62
     0
 10
160.4658923771357877
 20
178.5942611890085914
 30
0.0
  0
ENDBLK
  5
18C1
  8
0
  0
BLOCK
  8
0
  2
*D28
 70
     1
 10
0.0
 20
0.0
 30
0.0
  3
*D28
  1

  0
LINE
  5
18E4
  8
尺寸标注
 62
     0
 10
169.2880002709547966
 20
295.8220353003046057
 30
0.0
 11
169.2880002709547966
 21
286.2081992980254199
 31
0.0
  0
LINE
  5
18E5
  8
尺寸标注
 62
     0
 10
181.2880002709547966
 20
295.8220353003046057
 30
0.0
 11
181.2880002709547966
 21
286.2081992980254199
 31
0.0
  0
LINE
  5
18E6
  8
尺寸标注
 62
     0
 10
173.2880002709547966
 20
288.2081992980254199
 30
0.0
 11
177.2880002709547966
 21
288.2081992980254199
 31
0.0
  0
SOLID
  5
18E7
  8
尺寸标注
 62
     0
 10
173.2880002709547966
 20
288.8748659646921055
 30
0.0
 11
173.2880002709547966
 21
287.5415326313586775
 31
0.0
 12
169.2880002709547966
 22
288.2081992980254199
 32
0.0
 13
169.2880002709547966
 23
288.2081992980254199
 33
0.0
  0
SOLID
  5
18E8
  8
尺寸标注
 62
     0
 10
177.2880002709547966
 20
288.8748659646921055
 30
0.0
 11
177.2880002709547966
 21
287.5415326313586775
 31
0.0
 12
181.2880002709547966
 22
288.2081992980254199
 32
0.0
 13
181.2880002709547966
 23
288.2081992980254199
 33
0.0
  0
INSERT
  5
18E9
  8
虚线
  2
*U152
 10
0.0
 20
0.0
 30
0.0
  0
POINT
  5
18EA
  8
DEFPOINTS
 62
     0
 10
169.2880002709547966
 20
295.8220353003046057
 30
0.0
  0
POINT
  5
18EB
  8
DEFPOINTS
 62
     0
 10
181.2880002709547966
 20
295.8220353003046057
 30
0.0
  0
POINT
  5
18EC
  8
DEFPOINTS
 62
     0
 10
181.2880002709547966
 20
288.2081992980254199
 30
0.0
  0
ENDBLK
  5
18D9
  8
0
  0
BLOCK
  8
0
  2
*D29
 70
     1
 10
0.0
 20
0.0
 30
0.0
  3
*D29
  1

  0
LINE
  5
18FC
  8
尺寸标注
 62
     0
 10
181.2880002709549103
 20
335.8220353003047194
 30
0.0
 11
189.1594746100296049
 21
335.8220353003047194
 31
0.0
  0
LINE
  5
18FD
  8
尺寸标注
 62
     0
 10
181.2880002709549103
 20
295.8220353003047194
 30
0.0
 11
189.1594746100296049
 21
295.8220353003047194
 31
0.0
  0
LINE
  5
18FE
  8
尺寸标注
 62
     0
 10
187.1594746100296049
 20
331.8220353003047194
 30
0.0
 11
187.1594746100296049
 21
299.8220353003047194
 31
0.0
  0
SOLID
  5
18FF
  8
尺寸标注
 62
     0
 10
186.4928079433628909
 20
331.8220353003047194
 30
0.0
 11
187.8261412766962053
 21
331.8220353003047194
 31
0.0
 12
187.1594746100296049
 22
335.8220353003047194
 32
0.0
 13
187.1594746100296049
 23
335.8220353003047194
 33
0.0
  0
SOLID
  5
1900
  8
尺寸标注
 62
     0
 10
186.4928079433630046
 20
299.8220353003047194
 30
0.0
 11
187.8261412766962906
 21
299.8220353003047194
 31
0.0
 12
187.1594746100296049
 22
295.8220353003047194
 32
0.0
 13
187.1594746100296049
 23
295.8220353003047194
 33
0.0
  0
INSERT
  5
1901
  8
虚线
  2
*U153
 10
0.0
 20
0.0
 30
0.0
  0
POINT
  5
1902
  8
DEFPOINTS
 62
     0
 10
181.2880002709549103
 20
335.8220353003047194
 30
0.0
  0
POINT
  5
1903
  8
DEFPOINTS
 62
     0
 10
181.2880002709549103
 20
295.8220353003047194
 30
0.0
  0
POINT
  5
1904
  8
DEFPOINTS
 62
     0
 10
187.1594746100296049
 20
295.8220353003047194
 30
0.0
  0
ENDBLK
  5
18F1
  8
0
  0
BLOCK
  8
0
  2
*D30
 70
     1
 10
0.0
 20
0.0
 30
0.0
  3
*D30
  1

  0
LINE
  5
190A
  8
尺寸标注
 62
     0
 10
181.2880002709549103
 20
295.8220353003047762
 30
0.0
 11
209.4633578217346042
 21
295.8220353003047762
 31
0.0
  0
LINE
  5
190B
  8
尺寸标注
 62
     0
 10
181.2880002709549103
 20
280.8220353003047194
 30
0.0
 11
209.4633578217346042
 21
280.8220353003047194
 31
0.0
  0
LINE
  5
190C
  8
尺寸标注
 62
     0
 10
207.4633578217346042
 20
291.8220353003047762
 30
0.0
 11
207.4633578217346042
 21
284.8220353003047194
 31
0.0
  0
SOLID
  5
190D
  8
尺寸标注
 62
     0
 10
206.7966911550678901
 20
291.8220353003047762
 30
0.0
 11
208.1300244884012045
 21
291.8220353003047762
 31
0.0
 12
207.4633578217346042
 22
295.8220353003047762
 32
0.0
 13
207.4633578217346042
 23
295.8220353003047762
 33
0.0
  0
SOLID
  5
190E
  8
尺寸标注
 62
     0
 10
206.7966911550678901
 20
284.8220353003047194
 30
0.0
 11
208.1300244884012045
 21
284.8220353003047194
 31
0.0
 12
207.4633578217346042
 22
280.8220353003047194
 32
0.0
 13
207.4633578217346042
 23
280.8220353003047194
 33
0.0
  0
INSERT
  5
190F
  8
虚线
  2
*U154
 10
0.0
 20
0.0
 30
0.0
  0
POINT
  5
1910
  8
DEFPOINTS
 62
     0
 10
181.2880002709549103
 20
295.8220353003047762
 30
0.0
  0
POINT
  5
1911
  8
DEFPOINTS
 62
     0
 10
181.2880002709549103
 20
280.8220353003047194
 30
0.0
  0
POINT
  5
1912
  8
DEFPOINTS
 62
     0
 10
207.4633578217346042
 20
280.8220353003047194
 30
0.0
  0
ENDBLK
  5
1909
  8
0
  0
BLOCK
  8
0
  2
*D31
 70
     1
 10
0.0
 20
0.0
 30
0.0
  3
*D31
  1

  0
LINE
  5
1921
  8
尺寸标注
 62
     0
 10
195.2880002709549103
 20
280.8220353003047194
 30
0.0
 11
217.9345171579836915
 21
280.8220353003047194
 31
0.0
  0
LINE
  5
1922
  8
尺寸标注
 62
     0
 10
195.2880002709549103
 20
340.8220353003047194
 30
0.0
 11
217.9345171579836915
 21
340.8220353003047194
 31
0.0
  0
LINE
  5
1923
  8
尺寸标注
 62
     0
 10
215.9345171579836915
 20
284.8220353003047194
 30
0.0
 11
215.9345171579836915
 21
336.8220353003047194
 31
0.0
  0
SOLID
  5
1924
  8
尺寸标注
 62
     0
 10
215.2678504913170059
 20
284.8220353003047194
 30
0.0
 11
216.6011838246502919
 21
284.8220353003047194
 31
0.0
 12
215.9345171579836915
 22
280.8220353003047194
 32
0.0
 13
215.9345171579836915
 23
280.8220353003047194
 33
0.0
  0
SOLID
  5
1925
  8
尺寸标注
 62
     0
 10
215.2678504913170059
 20
336.8220353003047194
 30
0.0
 11
216.6011838246502919
 21
336.8220353003047194
 31
0.0
 12
215.9345171579836915
 22
340.8220353003047194
 32
0.0
 13
215.9345171579836915
 23
340.8220353003047194
 33
0.0
  0
INSERT
  5
1926
  8
虚线
  2
*U155
 10
0.0
 20
0.0
 30
0.0
  0
POINT
  5
1927
  8
DEFPOINTS
 62
     0
 10
195.2880002709549103
 20
280.8220353003047194
 30
0.0
  0
POINT
  5
1928
  8
DEFPOINTS
 62
     0
 10
195.2880002709549103
 20
340.8220353003047194
 30
0.0
  0
POINT
  5
1929
  8
DEFPOINTS
 62
     0
 10
215.9345171579836915
 20
340.8220353003047194
 30
0.0
  0
ENDBLK
  5
1916
  8
0
  0
BLOCK
  8
0
  2
*U32
 70
     1
 10
0.0
 20
0.0
 30
0.0
  3
*U32
  1

  0
TEXT
  5
19A0
  8
0
 62
     0
 10
0.0
 20
0.2290561551124879
 30
0.0
 40
1.5
  1
除非
 41
0.75
  7
SLDTEXTSTYLE1
  0
TEXT
  5
19A1
  8
0
 62
     0
 10
2.7000000000000002
 20
0.2290561551124879
 30
0.0
 40
1.5
  1
另
 41
0.75
  7
MtXpl_MS_PGothic
  0
TEXT
  5
19A3
  8
0
 62
     0
 10
4.3363636363636351
 20
0.2290561551124879
 30
0.0
 40
1.5
  1
外指定:
 41
0.75
  7
SLDTEXTSTYLE1
  0
ENDBLK
  5
19A5
  8
0
  0
BLOCK
  8
0
  2
*U33
 70
     1
 10
0.0
 20
0.0
 30
0.0
  3
*U33
  1

  0
TEXT
  5
19A7
  8
0
 62
     0
 10
0.0
 20
-2.3476483344626962
 30
0.0
 40
1.5
  1
尺寸使用
 41
0.75
  7
SLDTEXTSTYLE1
  0
TEXT
  5
19A8
  8
0
 62
     0
 10
5.4000000000000004
 20
-2.3476483344626962
 30
0.0
 40
1.5
  1
毫
 41
0.75
  7
MtXpl_MS_PGothic
  0
TEXT
  5
19A9
  8
0
 62
     0
 10
7.036363636363637
 20
-2.3476483344626962
 30
0.0
 40
1.5
  1
米
 41
0.75
  7
SLDTEXTSTYLE1
  0
ENDBLK
  5
19AB
  8
0
  0
BLOCK
  8
0
  2
*U34
 70
     1
 10
0.0
 20
0.0
 30
0.0
  3
*U34
  1

  0
TEXT
  5
19AD
  8
0
 62
     0
 10
-0.0000000000000001
 20
-4.82208009676516
 30
0.0
 40
1.5
  1
表面粗
 41
0.75
  7
SLDTEXTSTYLE1
  0
TEXT
  5
19AE
  8
0
 62
     0
 10
4.0499999999999998
 20
-4.82208009676516
 30
0.0
 40
1.5
  1
糙
 41
0.75
  7
MtXpl_MS_PGothic
  0
TEXT
  5
19AF
  8
0
 62
     0
 10
5.6863636363636374
 20
-4.82208009676516
 30
0.0
 40
1.5
  1
度:
 41
0.75
  7
SLDTEXTSTYLE1
  0
ENDBLK
  5
19B1
  8
0
  0
BLOCK
  8
0
  2
*U35
 70
     1
 10
0.0
 20
0.0
 30
0.0
  3
*U35
  1

  0
TEXT
  5
19B3
  8
0
 62
     0
 10
0.0
 20
-7.0663982227039872
 30
0.0
 40
1.5
  1
公差:
 41
0.75
  7
SLDTEXTSTYLE1
  0
ENDBLK
  5
19B5
  8
0
  0
BLOCK
  8
0
  2
*U36
 70
     1
 10
0.0
 20
0.0
 30
0.0
  3
*U36
  1

  0
TEXT
  5
19B8
  8
0
 62
     0
 10
1.605796089385483
 20
-9.8261747031374824
 30
0.0
 40
1.5
  1
线
 41
0.75
  7
MtXpl_
  0
TEXT
  5
19BA
  8
0
 62
     0
 10
3.2147346368715159
 20
-9.8261747031374824
 30
0.0
 40
1.5
  1
性:
 41
0.75
  7
SLDTEXTSTYLE1
  0
ENDBLK
  5
19BC
  8
0
  0
BLOCK
  8
0
  2
*U37
 70
     1
 10
0.0
 20
0.0
 30
0.0
  3
*U37
  1

  0
TEXT
  5
19BE
  8
0
 62
     0
 10
1.612500000000008
 20
-12.0663981109452791
 30
0.0
 40
1.5
  1
角度:
 41
0.75
  7
SLDTEXTSTYLE1
  0
ENDBLK
  5
19C0
  8
0
  0
BLOCK
  8
0
  2
*U38
 70
     1
 10
0.0
 20
0.0
 30
0.0
  3
*U38
  1

  0
TEXT
  5
19C2
  8
0
 62
     0
 10
0.0
 20
0.1738250733450932
 30
0.0
 40
1.5
  1
将
 41
0.75
  7
SLDTEXTSTYLE1
  0
TEXT
  5
19C3
  8
0
 62
     0
 10
1.349999999999999
 20
0.1738250733450932
 30
0.0
 40
1.5
  1
锐边
 41
0.75
  7
MtXpl_
  0
TEXT
  5
19C4
  8
0
 62
     0
 10
4.567877094972066
 20
0.1738250733450932
 30
0.0
 40
1.5
  1
清除
 41
0.75
  7
SLDTEXTSTYLE1
  0
ENDBLK
  5
19C6
  8
0
  0
BLOCK
  8
0
  2
*U39
 70
     1
 10
0.0
 20
0.0
 30
0.0
  3
*U39
  1

  0
TEXT
  5
19C8
  8
0
 62
     0
 10
0.0
 20
-2.3220801526445141
 30
0.0
 40
1.5
  1
毛刺
 41
0.75
  7
SLDTEXTSTYLE1
  0
TEXT
  5
19C9
  8
0
 62
     0
 10
2.7000000000000002
 20
-2.3220801526445141
 30
0.0
 40
1.5
  1
并
 41
0.75
  7
MtXpl_MS_PGothic
  0
TEXT
  5
19CA
  8
0
 62
     0
 10
4.3363636363636351
 20
-2.3220801526445141
 30
0.0
 40
1.5
  1
折断
 41
0.75
  7
SLDTEXTSTYLE1
  0
ENDBLK
  5
19CC
  8
0
  0
BLOCK
  8
0
  2
*U40
 70
     1
 10
0.0
 20
0.0
 30
0.0
  3
*U40
  1

  0
TEXT
  5
19CE
  8
0
 62
     0
 10
3.254375000000004
 20
1.8355801475519831
 30
0.0
 40
6.3499999999999988
  1
剖面
 41
0.75
  7
SLDTEXTSTYLE1
  0
ENDBLK
  5
19D0
  8
0
  0
BLOCK
  8
0
  2
*U41
 70
     1
 10
0.0
 20
0.0
 30
0.0
  3
*U41
  1

  0
TEXT
  5
19D2
  8
0
 62
     0
 10
19.1298257251580601
 20
2.2990293126256018
 30
0.0
 40
3.5
  1
A-A
 41
0.7
  7
SLDTEXTSTYLE3
  0
ENDBLK
  5
19D4
  8
0
  0
BLOCK
  8
0
  2
*U42
 70
     1
 10
0.0
 20
0.0
 30
0.0
  3
*U42
  1

  0
TEXT
  5
19D6
  8
0
 62
     0
 10
3.7897915057341311
 20
-5.911873720988563
 30
0.0
 40
3.5
  1
比例
 41
0.7
  7
SLDTEXTSTYLE4
  0
ENDBLK
  5
19D8
  8
0
  0
BLOCK
  8
0
  2
*U43
 70
     1
 10
0.0
 20
0.0
 30
0.0
  3
*U43
  1

  0
TEXT
  5
19DA
  8
0
 62
     0
 10
14.42809035678704
 20
-5.911873720988563
 30
0.0
 40
3.5
  1
1 : 1
 41
0.62
  7
SLDTEXTSTYLE5
  0
ENDBLK
  5
19DC
  8
0
  0
BLOCK
  8
0
  2
*U44
 70
     1
 10
0.0
 20
0.0
 30
0.0
  3
*U44
  1

  0
TEXT
  5
19DE
  8
粗实线
 62
     0
 10
213.241056073882703
 20
73.0938907343902144
 30
0.0
 40
3.5
  1
50
 50
90.0
  7
国标汉字3_5
  0
ENDBLK
  5
19E0
  8
0
  0
BLOCK
  8
0
  2
*U45
 70
     1
 10
0.0
 20
0.0
 30
0.0
  3
*U45
  1

  0
TEXT
  5
19E2
  8
粗实线
 62
     0
 10
224.6681394072161879
 20
49.5261824010563529
 30
0.0
 40
3.5
  1
3
  7
国标汉字3_5
  0
ENDBLK
  5
19E4
  8
0
  0
BLOCK
  8
0
  2
*U46
 70
     1
 10
0.0
 20
0.0
 30
0.0
  3
*U46
  1

  0
TEXT
  5
19E6
  8
0
 62
     0
 10
133.4595580295714967
 20
148.8726788898262043
 30
0.0
 40
3.5
  1
\U+00D840,00
  0
ENDBLK
  5
19E8
  8
0
  0
BLOCK
  8
0
  2
*U47
 70
     1
 10
0.0
 20
0.0
 30
0.0
  3
*U47
  1

  0
TEXT
  5
19EA
  8
0
 62
     0
 10
53.7913158247170031
 20
233.0332960893854874
 30
0.0
 40
3.5
  1
40,00
  0
ENDBLK
  5
19EC
  8
0
  0
BLOCK
  8
0
  2
*U48
 70
     1
 10
0.0
 20
0.0
 30
0.0
  3
*U48
  1

  0
TEXT
  5
19EE
  8
0
 62
     0
 10
105.8155921787708991
 20
269.3208570327099096
 30
0.0
 40
3.5
  1
12,00
  0
ENDBLK
  5
19F0
  8
0
  0
BLOCK
  8
0
  2
*U49
 70
     1
 10
0.0
 20
0.0
 30
0.0
  3
*U49
  1

  0
TEXT
  5
19F2
  8
0
 62
     0
 10
126.6513678080970067
 20
197.5189627560521046
 30
0.0
 40
3.5
  1
15,00
  0
ENDBLK
  5
19F4
  8
0
  0
BLOCK
  8
0
  2
*U50
 70
     1
 10
0.0
 20
0.0
 30
0.0
  3
*U50
  1

  0
TEXT
  5
19F6
  8
0
 62
     0
 10
148.6106713929875127
 20
228.0332960893856011
 30
0.0
 40
3.5
  1
60,00
  0
ENDBLK
  5
19F8
  8
0
  0
BLOCK
  8
0
  2
*U51
 70
     1
 10
0.0
 20
0.0
 30
0.0
  3
*U51
  1

  0
TEXT
  5
19FA
  8
0
 62
     7
 10
1.3475006428
 20
22.2452884839000014
 30
0.0
 40
3.96875
  1
A
 41
0.75
  7
SLDTEXTSTYLE0
  0
ENDBLK
  5
19FC
  8
0
  0
BLOCK
  8
0
  2
*U52
 70
     1
 10
0.0
 20
0.0
 30
0.0
  3
*U52
  1

  0
TEXT
  5
19FE
  8
0
 62
     7
 10
396.3475006428000142
 20
22.2452884839000014
 30
0.0
 40
3.96875
  1
A
 41
0.75
  7
SLDTEXTSTYLE0
  0
ENDBLK
  5
1A00
  8
0
  0
BLOCK
  8
0
  2
*U53
 70
     1
 10
0.0
 20
0.0
 30
0.0
  3
*U53
  1

  0
TEXT
  5
1A02
  8
0
 62
     7
 10
1.4784143241000001
 20
66.4952884838999978
 30
0.0
 40
3.96875
  1
B
 41
0.75
  7
SLDTEXTSTYLE0
  0
ENDBLK
  5
1A04
  8
0
  0
BLOCK
  8
0
  2
*U54
 70
     1
 10
0.0
 20
0.0
 30
0.0
  3
*U54
  1

  0
TEXT
  5
1A06
  8
0
 62
     7
 10
396.4784143241000152
 20
66.4952884838999978
 30
0.0
 40
3.96875
  1
B
 41
0.75
  7
SLDTEXTSTYLE0
  0
ENDBLK
  5
1A08
  8
0
  0
BLOCK
  8
0
  2
*U55
 70
     1
 10
0.0
 20
0.0
 30
0.0
  3
*U55
  1

  0
TEXT
  5
1A0A
  8
0
 62
     7
 10
1.4664714019999989
 20
116.4952884838999978
 30
0.0
 40
3.96875
  1
C
 41
0.75
  7
SLDTEXTSTYLE0
  0
ENDBLK
  5
1A0C
  8
0
  0
BLOCK
  8
0
  2
*U56
 70
     1
 10
0.0
 20
0.0
 30
0.0
  3
*U56
  1

  0
TEXT
  5
1A0E
  8
0
 62
     7
 10
396.4664714020000247
 20
116.4952884838999978
 30
0.0
 40
3.96875
  1
C
 41
0.75
  7
SLDTEXTSTYLE0
  0
ENDBLK
  5
1A10
  8
0
  0
BLOCK
  8
0
  2
*U57
 70
     1
 10
0.0
 20
0.0
 30
0.0
  3
*U57
  1

  0
TEXT
  5
1A12
  8
0
 62
     7
 10
1.460499782100001
 20
166.4952884838999978
 30
0.0
 40
3.96875
  1
D
 41
0.75
  7
SLDTEXTSTYLE0
  0
ENDBLK
  5
1A14
  8
0
  0
BLOCK
  8
0
  2
*U58
 70
     1
 10
0.0
 20
0.0
 30
0.0
  3
*U58
  1

  0
TEXT
  5
1A16
  8
0
 62
     7
 10
396.460499782099987
 20
166.4952884838999978
 30
0.0
 40
3.96875
  1
D
 41
0.75
  7
SLDTEXTSTYLE0
  0
ENDBLK
  5
1A18
  8
0
  0
BLOCK
  8
0
  2
*U59
 70
     1
 10
0.0
 20
0.0
 30
0.0
  3
*U59
  1

  0
TEXT
  5
1A1A
  8
0
 62
     7
 10
1.515621405099999
 20
216.4952884838999978
 30
0.0
 40
3.96875
  1
E
 41
0.75
  7
SLDTEXTSTYLE0
  0
ENDBLK
  5
1A1C
  8
0
  0
BLOCK
  8
0
  2
*U60
 70
     1
 10
0.0
 20
0.0
 30
0.0
  3
*U60
  1

  0
TEXT
  5
1A1E
  8
0
 62
     7
 10
396.5156214050999779
 20
216.4952884838999978
 30
0.0
 40
3.96875
  1
E
 41
0.75
  7
SLDTEXTSTYLE0
  0
ENDBLK
  5
1A20
  8
0
  0
BLOCK
  8
0
  2
*U61
 70
     1
 10
0.0
 20
0.0
 30
0.0
  3
*U61
  1

  0
TEXT
  5
1A22
  8
0
 62
     7
 10
1.465552709100002
 20
260.7452884839000262
 30
0.0
 40
3.96875
  1
F
 41
0.75
  7
SLDTEXTSTYLE0
  0
ENDBLK
  5
1A24
  8
0
  0
BLOCK
  8
0
  2
*U62
 70
     1
 10
0.0
 20
0.0
 30
0.0
  3
*U62
  1

  0
TEXT
  5
1A26
  8
0
 62
     7
 10
396.465552709100109
 20
260.7452884839000262
 30
0.0
 40
3.96875
  1
F
 41
0.75
  7
SLDTEXTSTYLE0
  0
ENDBLK
  5
1A28
  8
0
  0
BLOCK
  8
0
  2
*U63
 70
     1
 10
0.0
 20
0.0
 30
0.0
  3
*U63
  1

  0
TEXT
  5
1A2A
  8
0
 62
     7
 10
26.4678494465000114
 20
0.4952884838999996
 30
0.0
 40
3.96875
  1
8
 41
0.75
  7
SLDTEXTSTYLE0
  0
ENDBLK
  5
1A2C
  8
0
  0
BLOCK
  8
0
  2
*U64
 70
     1
 10
0.0
 20
0.0
 30
0.0
  3
*U64
  1

  0
TEXT
  5
1A2E
  8
0
 62
     7
 10
26.4678494465000114
 20
282.4952884838999125
 30
0.0
 40
3.96875
  1
8
 41
0.75
  7
SLDTEXTSTYLE0
  0
ENDBLK
  5
1A30
  8
0
  0
BLOCK
  8
0
  2
*U65
 70
     1
 10
0.0
 20
0.0
 30
0.0
  3
*U65
  1

  0
TEXT
  5
1A32
  8
0
 62
     7
 10
73.9678494464999972
 20
0.4952884838999996
 30
0.0
 40
3.96875
  1
7
 41
0.75
  7
SLDTEXTSTYLE0
  0
ENDBLK
  5
1A34
  8
0
  0
BLOCK
  8
0
  2
*U66
 70
     1
 10
0.0
 20
0.0
 30
0.0
  3
*U66
  1

  0
TEXT
  5
1A36
  8
0
 62
     7
 10
73.9678494464999972
 20
282.4952884838999125
 30
0.0
 40
3.96875
  1
7
 41
0.75
  7
SLDTEXTSTYLE0
  0
ENDBLK
  5
1A38
  8
0
  0
BLOCK
  8
0
  2
*U67
 70
     1
 10
0.0
 20
0.0
 30
0.0
  3
*U67
  1

  0
TEXT
  5
1A3A
  8
0
 62
     7
 10
123.9678494464999972
 20
0.4952884838999996
 30
0.0
 40
3.96875
  1
6
 41
0.75
  7
SLDTEXTSTYLE0
  0
ENDBLK
  5
1A3C
  8
0
  0
BLOCK
  8
0
  2
*U68
 70
     1
 10
0.0
 20
0.0
 30
0.0
  3
*U68
  1

  0
TEXT
  5
1A3E
  8
0
 62
     7
 10
123.9678494464999972
 20
282.4952884838999125
 30
0.0
 40
3.96875
  1
6
 41
0.75
  7
SLDTEXTSTYLE0
  0
ENDBLK
  5
1A40
  8
0
  0
BLOCK
  8
0
  2
*U69
 70
     1
 10
0.0
 20
0.0
 30
0.0
  3
*U69
  1

  0
TEXT
  5
1A42
  8
0
 62
     7
 10
173.9678494464999972
 20
0.4952884838999996
 30
0.0
 40
3.96875
  1
5
 41
0.75
  7
SLDTEXTSTYLE0
  0
ENDBLK
  5
1A44
  8
0
  0
BLOCK
  8
0
  2
*U70
 70
     1
 10
0.0
 20
0.0
 30
0.0
  3
*U70
  1

  0
TEXT
  5
1A46
  8
0
 62
     7
 10
173.9678494464999972
 20
282.4952884838999125
 30
0.0
 40
3.96875
  1
5
 41
0.75
  7
SLDTEXTSTYLE0
  0
ENDBLK
  5
1A48
  8
0
  0
BLOCK
  8
0
  2
*U71
 70
     1
 10
0.0
 20
0.0
 30
0.0
  3
*U71
  1

  0
TEXT
  5
1A4A
  8
0
 62
     7
 10
223.9678494464999972
 20
0.4952884838999996
 30
0.0
 40
3.96875
  1
4
 41
0.75
  7
SLDTEXTSTYLE0
  0
ENDBLK
  5
1A4C
  8
0
  0
BLOCK
  8
0
  2
*U72
 70
     1
 10
0.0
 20
0.0
 30
0.0
  3
*U72
  1

  0
TEXT
  5
1A4E
  8
0
 62
     7
 10
223.9678494464999972
 20
282.4952884838999125
 30
0.0
 40
3.96875
  1
4
 41
0.75
  7
SLDTEXTSTYLE0
  0
ENDBLK
  5
1A50
  8
0
  0
BLOCK
  8
0
  2
*U73
 70
     1
 10
0.0
 20
0.0
 30
0.0
  3
*U73
  1

  0
TEXT
  5
1A52
  8
0
 62
     7
 10
273.9678494464999972
 20
0.4952884838999996
 30
0.0
 40
3.96875
  1
3
 41
0.75
  7
SLDTEXTSTYLE0
  0
ENDBLK
  5
1A54
  8
0
  0
BLOCK
  8
0
  2
*U74
 70
     1
 10
0.0
 20
0.0
 30
0.0
  3
*U74
  1

  0
TEXT
  5
1A56
  8
0
 62
     7
 10
273.9678494464999972
 20
282.4952884838999125
 30
0.0
 40
3.96875
  1
3
 41
0.75
  7
SLDTEXTSTYLE0
  0
ENDBLK
  5
1A58
  8
0
  0
BLOCK
  8
0
  2
*U75
 70
     1
 10
0.0
 20
0.0
 30
0.0
  3
*U75
  1

  0
TEXT
  5
1A5A
  8
0
 62
     7
 10
323.9678494464999972
 20
0.4952884838999996
 30
0.0
 40
3.96875
  1
2
 41
0.75
  7
SLDTEXTSTYLE0
  0
ENDBLK
  5
1A5C
  8
0
  0
BLOCK
  8
0
  2
*U76
 70
     1
 10
0.0
 20
0.0
 30
0.0
  3
*U76
  1

  0
TEXT
  5
1A5E
  8
0
 62
     7
 10
323.9678494464999972
 20
282.4952884838999125
 30
0.0
 40
3.96875
  1
2
 41
0.75
  7
SLDTEXTSTYLE0
  0
ENDBLK
  5
1A60
  8
0
  0
BLOCK
  8
0
  2
*U77
 70
     1
 10
0.0
 20
0.0
 30
0.0
  3
*U77
  1

  0
TEXT
  5
1A62
  8
0
 62
     7
 10
371.9639431964999972
 20
0.4952884838999996
 30
0.0
 40
3.96875
  1
1
 41
0.75
  7
SLDTEXTSTYLE0
  0
ENDBLK
  5
1A64
  8
0
  0
BLOCK
  8
0
  2
*U78
 70
     1
 10
0.0
 20
0.0
 30
0.0
  3
*U78
  1

  0
TEXT
  5
1A66
  8
0
 62
     7
 10
371.9639431964999972
 20
282.4952884838999125
 30
0.0
 40
3.96875
  1
1
 41
0.75
  7
SLDTEXTSTYLE0
  0
ENDBLK
  5
1A68
  8
0
  0
BLOCK
  8
0
  2
*U79
 70
     1
 10
0.0
 20
0.0
 30
0.0
  3
*U79
  1

  0
TEXT
  5
1A6A
  8
0
 62
     7
 10
215.6029642160854962
 20
35.686698126123467
 30
0.0
 40
1.5
  1
绘
 41
0.75
  7
MtXpl_
  0
TEXT
  5
1A6B
  8
0
 62
     7
 10
217.2119027635714872
 20
35.686698126123467
 30
0.0
 40
1.5
  1
制
 41
0.75
  7
SLDTEXTSTYLE1
  0
ENDBLK
  5
1A6D
  8
0
  0
BLOCK
  8
0
  2
*U80
 70
     1
 10
0.0
 20
0.0
 30
0.0
  3
*U80
  1

  0
TEXT
  5
1A6F
  8
0
 62
     7
 10
215.5607341580887919
 20
31.3862507354189901
 30
0.0
 40
1.5
  1
检查
 41
0.75
  7
MtXpl_
  0
ENDBLK
  5
1A71
  8
0
  0
BLOCK
  8
0
  2
*U81
 70
     1
 10
0.0
 20
0.0
 30
0.0
  3
*U81
  1

  0
TEXT
  5
1A73
  8
0
 62
     7
 10
215.621630336599992
 20
27.6768301530000116
 30
0.0
 40
1.5
  1
批准
 41
0.75
  7
SLDTEXTSTYLE1
  0
ENDBLK
  5
1A75
  8
0
  0
BLOCK
  8
0
  2
*U82
 70
     1
 10
0.0
 20
0.0
 30
0.0
  3
*U82
  1

  0
TEXT
  5
1A77
  8
0
 62
     7
 10
215.6821940682999923
 20
23.2337046506
 30
0.0
 40
1.5
  1
制造
 41
0.75
  7
SLDTEXTSTYLE1
  0
ENDBLK
  5
1A79
  8
0
  0
BLOCK
  8
0
  2
*U83
 70
     1
 10
0.0
 20
0.0
 30
0.0
  3
*U83
  1

  0
TEXT
  5
1A7B
  8
0
 62
     7
 10
215.6202912485898935
 20
18.5814927827189891
 30
0.0
 40
1.5
  1
验检
 41
0.75
  7
MtXpl_
  0
ENDBLK
  5
1A7D
  8
0
  0
BLOCK
  8
0
  2
*U84
 70
     1
 10
0.0
 20
0.0
 30
0.0
  3
*U84
  1

  0
TEXT
  5
1A7F
  8
0
 62
     7
 10
249.3712921668000035
 20
57.1635901769181771
 30
0.0
 40
1.5
  1
表面粗
 41
0.75
  7
SLDTEXTSTYLE1
  0
TEXT
  5
1A80
  8
0
 62
     7
 10
253.4212921667999865
 20
57.1635901769181771
 30
0.0
 40
1.5
  1
糙
 41
0.75
  7
MtXpl_MS_PGothic
  0
TEXT
  5
1A81
  8
0
 62
     7
 10
255.0576558031636125
 20
57.1635901769181771
 30
0.0
 40
1.5
  1
度:
 41
0.75
  7
SLDTEXTSTYLE1
  0
ENDBLK
  5
1A83
  8
0
  0
BLOCK
  8
0
  2
*U85
 70
     1
 10
0.0
 20
0.0
 30
0.0
  3
*U85
  1

  0
TEXT
  5
1A85
  8
0
 62
     7
 10
229.3222392177000017
 20
40.0014826334999967
 30
0.0
 40
1.5
  1
名称
 41
0.75
  7
SLDTEXTSTYLE1
  0
ENDBLK
  5
1A87
  8
0
  0
BLOCK
  8
0
  2
*U86
 70
     1
 10
0.0
 20
0.0
 30
0.0
  3
*U86
  1

  0
TEXT
  5
1A89
  8
0
 62
     7
 10
244.9707384011888962
 20
39.810359731455307
 30
0.0
 40
1.5
  1
签
 41
0.75
  7
MtXpl_
  0
TEXT
  5
1A8A
  8
0
 62
     7
 10
246.5796769486748872
 20
39.810359731455307
 30
0.0
 40
1.5
  1
名
 41
0.75
  7
SLDTEXTSTYLE1
  0
ENDBLK
  5
1A8C
  8
0
  0
BLOCK
  8
0
  2
*U87
 70
     1
 10
0.0
 20
0.0
 30
0.0
  3
*U87
  1

  0
TEXT
  5
1A8E
  8
0
 62
     7
 10
262.0647019657000101
 20
40.0761792212000003
 30
0.0
 40
1.5
  1
日期
 41
0.75
  7
SLDTEXTSTYLE1
  0
ENDBLK
  5
1A90
  8
0
  0
BLOCK
  8
0
  2
*U88
 70
     1
 10
0.0
 20
0.0
 30
0.0
  3
*U88
  1

  0
TEXT
  5
1A92
  8
0
 62
     7
 10
270.6458623088000195
 20
19.4860562892000004
 30
0.0
 40
1.5
  1
材料:
 41
0.75
  7
SLDTEXTSTYLE1
  0
ENDBLK
  5
1A94
  8
0
  0
BLOCK
  8
0
  2
*U89
 70
     1
 10
0.0
 20
0.0
 30
0.0
  3
*U89
  1

  0
TEXT
  5
1A96
  8
0
 62
     7
 10
327.6146405229000038
 20
55.7983567035916224
 30
0.0
 40
1.5
  1
不
 41
0.75
  7
SLDTEXTSTYLE1
  0
TEXT
  5
1A97
  8
0
 62
     7
 10
328.9646405229000266
 20
55.7983567035916224
 30
0.0
 40
1.5
  1
调
 41
0.75
  7
MtXpl_
  0
TEXT
  5
1A98
  8
0
 62
     7
 10
330.5735790703860744
 20
55.7983567035916224
 30
0.0
 40
1.5
  1
整工程
 41
0.75
  7
SLDTEXTSTYLE1
  0
TEXT
  5
1A99
  8
0
 62
     7
 10
334.6235790703860857
 20
55.7983567035916224
 30
0.0
 40
1.5
  1
图
 41
0.75
  7
MtXpl_
  0
TEXT
  5
1A9A
  8
0
 62
     7
 10
336.2325176178721904
 20
55.7983567035916224
 30
0.0
 40
1.5
  1
比例
 41
0.75
  7
SLDTEXTSTYLE1
  0
ENDBLK
  5
1A9C
  8
0
  0
BLOCK
  8
0
  2
*U90
 70
     1
 10
0.0
 20
0.0
 30
0.0
  3
*U90
  1

  0
TEXT
  5
1A9E
  8
0
 62
     7
 10
368.3275816993000262
 20
55.6421712503324031
 30
0.0
 40
1.5
  1
修
 41
0.75
  7
SLDTEXTSTYLE1
  0
TEXT
  5
1A9F
  8
0
 62
     7
 10
369.6775816992999921
 20
55.6421712503324031
 30
0.0
 40
1.5
  1
订
 41
0.75
  7
MtXpl_
  0
ENDBLK
  5
1AA1
  8
0
  0
BLOCK
  8
0
  2
*U91
 70
     1
 10
0.0
 20
0.0
 30
0.0
  3
*U91
  1

  0
TEXT
  5
1AA3
  8
0
 62
     7
 10
314.8870528583876762
 20
39.8080227966189923
 30
0.0
 40
1.5
  1
标题
 41
0.75
  7
MtXpl_
  0
TEXT
  5
1AA4
  8
0
 62
     7
 10
318.1049299533597718
 20
39.8080227966189923
 30
0.0
 40
1.5
  1
:
 41
0.75
  7
SLDTEXTSTYLE1
  0
ENDBLK
  5
1AA6
  8
0
  0
BLOCK
  8
0
  2
*U92
 70
     1
 10
0.0
 20
0.0
 30
0.0
  3
*U92
  1

  0
TEXT
  5
1AA8
  8
0
 62
     7
 10
314.6286535299000207
 20
19.2514194176916185
 30
0.0
 40
1.5
  1
工程
 41
0.75
  7
SLDTEXTSTYLE1
  0
TEXT
  5
1AA9
  8
0
 62
     7
 10
317.3286535299000093
 20
19.2514194176916185
 30
0.0
 40
1.5
  1
图
 41
0.75
  7
MtXpl_
  0
TEXT
  5
1AAA
  8
0
 62
     7
 10
318.9375920773861139
 20
19.2514194176916185
 30
0.0
 40
1.5
  1
号
 41
0.75
  7
SLDTEXTSTYLE1
  0
ENDBLK
  5
1AAC
  8
0
  0
BLOCK
  8
0
  2
*U93
 70
     1
 10
0.0
 20
0.0
 30
0.0
  3
*U93
  1

  0
TEXT
  5
1AAE
  8
0
 62
     7
 10
315.0739661174999924
 20
6.4000872744999997
 30
0.0
 40
1.5
  1
比例:1:1
 41
0.75
  7
SLDTEXTSTYLE1
  0
ENDBLK
  5
1AB0
  8
0
  0
BLOCK
  8
0
  2
*U94
 70
     1
 10
0.0
 20
0.0
 30
0.0
  3
*U94
  1

  0
TEXT
  5
1AB2
  8
0
 62
     7
 10
359.2746165879490263
 20
6.1654504029916204
 30
0.0
 40
1.5
  1
图纸 
 41
0.6944444444444445
  7
MtXpl_
  0
TEXT
  5
1AB3
  8
0
 62
     7
 10
362.9990113737962929
 20
6.1654504029916204
 30
0.0
 40
1.5
  1
1 (共1)
 41
0.6944444444444445
  7
SLDTEXTSTYLE2
  0
ENDBLK
  5
1AB5
  8
0
  0
BLOCK
  8
0
  2
*U95
 70
     1
 10
0.0
 20
0.0
 30
0.0
  3
*U95
  1

  0
TEXT
  5
1AB7
  8
0
 62
     7
 10
385.8711564345999818
 20
16.4959719022999991
 30
0.0
 40
2.9104166667000002
  1
A3
 41
0.75
  7
SLDTEXTSTYLE0
  0
ENDBLK
  5
1AB9
  8
0
  0
BLOCK
  8
0
  2
*U96
 70
     1
 10
0.0
 20
0.0
 30
0.0
  3
*U96
  1

  0
TEXT
  5
1ABB
  8
0
 62
     7
 10
270.6178111281000156
 20
6.4507119035999976
 30
0.0
 40
1.498599999999999
  1
重量:
 41
0.75
  7
SLDTEXTSTYLE1
  0
ENDBLK
  5
1ABD
  8
0
  0
BLOCK
  8
0
  2
*U97
 70
     1
 10
0.0
 20
0.0
 30
0.0
  3
*U97
  1

  0
TEXT
  5
1ABF
  8
0
 62
     7
 10
336.0706306739999718
 20
12.2569109672999996
 30
0.0
 40
6.3499999999999988
  1
keyway
 41
0.75
  7
SLDTEXTSTYLE0
  0
ENDBLK
  5
1AC1
  8
0
  0
BLOCK
  8
0
  2
*U98
 70
     1
 10
0.0
 20
0.0
 30
0.0
  3
*U98
  1

  0
TEXT
  5
1AC3
  8
0
 62
     7
 10
97.1355009137548535
 20
108.5773237842045944
 30
0.0
 40
3.96875
  1
A
 41
0.75
  7
SLDTEXTSTYLE0
  0
ENDBLK
  5
1AC5
  8
0
  0
BLOCK
  8
0
  2
*U99
 70
     1
 10
0.0
 20
0.0
 30
0.0
  3
*U99
  1

  0
TEXT
  5
1AC7
  8
0
 62
     7
 10
492.1355009137548109
 20
108.5773237842045944
 30
0.0
 40
3.96875
  1
A
 41
0.75
  7
SLDTEXTSTYLE0
  0
ENDBLK
  5
1AC9
  8
0
  0
BLOCK
  8
0
  2
*U100
 70
     1
 10
0.0
 20
0.0
 30
0.0
  3
*U100
  1

  0
TEXT
  5
1ACB
  8
0
 62
     7
 10
97.2664145950548544
 20
152.8273237842045944
 30
0.0
 40
3.96875
  1
B
 41
0.75
  7
SLDTEXTSTYLE0
  0
ENDBLK
  5
1ACD
  8
0
  0
BLOCK
  8
0
  2
*U101
 70
     1
 10
0.0
 20
0.0
 30
0.0
  3
*U101
  1

  0
TEXT
  5
1ACF
  8
0
 62
     7
 10
492.2664145950548118
 20
152.8273237842045944
 30
0.0
 40
3.96875
  1
B
 41
0.75
  7
SLDTEXTSTYLE0
  0
ENDBLK
  5
1AD1
  8
0
  0
BLOCK
  8
0
  2
*U102
 70
     1
 10
0.0
 20
0.0
 30
0.0
  3
*U102
  1

  0
TEXT
  5
1AD3
  8
0
 62
     7
 10
97.2544716729548355
 20
202.8273237842045944
 30
0.0
 40
3.96875
  1
C
 41
0.75
  7
SLDTEXTSTYLE0
  0
ENDBLK
  5
1AD5
  8
0
  0
BLOCK
  8
0
  2
*U103
 70
     1
 10
0.0
 20
0.0
 30
0.0
  3
*U103
  1

  0
TEXT
  5
1AD7
  8
0
 62
     7
 10
492.2544716729547076
 20
202.8273237842045944
 30
0.0
 40
3.96875
  1
C
 41
0.75
  7
SLDTEXTSTYLE0
  0
ENDBLK
  5
1AD9
  8
0
  0
BLOCK
  8
0
  2
*U104
 70
     1
 10
0.0
 20
0.0
 30
0.0
  3
*U104
  1

  0
TEXT
  5
1ADB
  8
0
 62
     7
 10
97.2485000530548547
 20
252.8273237842045944
 30
0.0
 40
3.96875
  1
D
 41
0.75
  7
SLDTEXTSTYLE0
  0
ENDBLK
  5
1ADD
  8
0
  0
BLOCK
  8
0
  2
*U105
 70
     1
 10
0.0
 20
0.0
 30
0.0
  3
*U105
  1

  0
TEXT
  5
1ADF
  8
0
 62
     7
 10
492.2485000530547836
 20
252.8273237842045944
 30
0.0
 40
3.96875
  1
D
 41
0.75
  7
SLDTEXTSTYLE0
  0
ENDBLK
  5
1AE1
  8
0
  0
BLOCK
  8
0
  2
*U106
 70
     1
 10
0.0
 20
0.0
 30
0.0
  3
*U106
  1

  0
TEXT
  5
1AE3
  8
0
 62
     7
 10
97.3036216760548598
 20
302.8273237842046228
 30
0.0
 40
3.96875
  1
E
 41
0.75
  7
SLDTEXTSTYLE0
  0
ENDBLK
  5
1AE5
  8
0
  0
BLOCK
  8
0
  2
*U107
 70
     1
 10
0.0
 20
0.0
 30
0.0
  3
*U107
  1

  0
TEXT
  5
1AE7
  8
0
 62
     7
 10
492.3036216760547745
 20
302.8273237842046228
 30
0.0
 40
3.96875
  1
E
 41
0.75
  7
SLDTEXTSTYLE0
  0
ENDBLK
  5
1AE9
  8
0
  0
BLOCK
  8
0
  2
*U108
 70
     1
 10
0.0
 20
0.0
 30
0.0
  3
*U108
  1

  0
TEXT
  5
1AEB
  8
0
 62
     7
 10
97.2535529800548488
 20
347.0773237842046228
 30
0.0
 40
3.96875
  1
F
 41
0.75
  7
SLDTEXTSTYLE0
  0
ENDBLK
  5
1AED
  8
0
  0
BLOCK
  8
0
  2
*U109
 70
     1
 10
0.0
 20
0.0
 30
0.0
  3
*U109
  1

  0
TEXT
  5
1AEF
  8
0
 62
     7
 10
492.2535529800549057
 20
347.0773237842046228
 30
0.0
 40
3.96875
  1
F
 41
0.75
  7
SLDTEXTSTYLE0
  0
ENDBLK
  5
1AF1
  8
0
  0
BLOCK
  8
0
  2
*U110
 70
     1
 10
0.0
 20
0.0
 30
0.0
  3
*U110
  1

  0
TEXT
  5
1AF3
  8
0
 62
     7
 10
122.2558497174547938
 20
86.8273237842045944
 30
0.0
 40
3.96875
  1
8
 41
0.75
  7
SLDTEXTSTYLE0
  0
ENDBLK
  5
1AF5
  8
0
  0
BLOCK
  8
0
  2
*U111
 70
     1
 10
0.0
 20
0.0
 30
0.0
  3
*U111
  1

  0
TEXT
  5
1AF7
  8
0
 62
     7
 10
122.2558497174547938
 20
368.8273237842046228
 30
0.0
 40
3.96875
  1
8
 41
0.75
  7
SLDTEXTSTYLE0
  0
ENDBLK
  5
1AF9
  8
0
  0
BLOCK
  8
0
  2
*U112
 70
     1
 10
0.0
 20
0.0
 30
0.0
  3
*U112
  1

  0
TEXT
  5
1AFB
  8
0
 62
     7
 10
169.7558497174547938
 20
86.8273237842045944
 30
0.0
 40
3.96875
  1
7
 41
0.75
  7
SLDTEXTSTYLE0
  0
ENDBLK
  5
1AFD
  8
0
  0
BLOCK
  8
0
  2
*U113
 70
     1
 10
0.0
 20
0.0
 30
0.0
  3
*U113
  1

  0
TEXT
  5
1AFF
  8
0
 62
     7
 10
169.7558497174547938
 20
368.8273237842046228
 30
0.0
 40
3.96875
  1
7
 41
0.75
  7
SLDTEXTSTYLE0
  0
ENDBLK
  5
1B01
  8
0
  0
BLOCK
  8
0
  2
*U114
 70
     1
 10
0.0
 20
0.0
 30
0.0
  3
*U114
  1

  0
TEXT
  5
1B03
  8
0
 62
     7
 10
219.7558497174547938
 20
86.8273237842045944
 30
0.0
 40
3.96875
  1
6
 41
0.75
  7
SLDTEXTSTYLE0
  0
ENDBLK
  5
1B05
  8
0
  0
BLOCK
  8
0
  2
*U115
 70
     1
 10
0.0
 20
0.0
 30
0.0
  3
*U115
  1

  0
TEXT
  5
1B07
  8
0
 62
     7
 10
219.7558497174547938
 20
368.8273237842046228
 30
0.0
 40
3.96875
  1
6
 41
0.75
  7
SLDTEXTSTYLE0
  0
ENDBLK
  5
1B09
  8
0
  0
BLOCK
  8
0
  2
*U116
 70
     1
 10
0.0
 20
0.0
 30
0.0
  3
*U116
  1

  0
TEXT
  5
1B0B
  8
0
 62
     7
 10
269.7558497174549075
 20
86.8273237842045944
 30
0.0
 40
3.96875
  1
5
 41
0.75
  7
SLDTEXTSTYLE0
  0
ENDBLK
  5
1B0D
  8
0
  0
BLOCK
  8
0
  2
*U117
 70
     1
 10
0.0
 20
0.0
 30
0.0
  3
*U117
  1

  0
TEXT
  5
1B0F
  8
0
 62
     7
 10
269.7558497174549075
 20
368.8273237842046228
 30
0.0
 40
3.96875
  1
5
 41
0.75
  7
SLDTEXTSTYLE0
  0
ENDBLK
  5
1B11
  8
0
  0
BLOCK
  8
0
  2
*U118
 70
     1
 10
0.0
 20
0.0
 30
0.0
  3
*U118
  1

  0
TEXT
  5
1B13
  8
0
 62
     7
 10
319.7558497174549075
 20
86.8273237842045944
 30
0.0
 40
3.96875
  1
4
 41
0.75
  7
SLDTEXTSTYLE0
  0
ENDBLK
  5
1B15
  8
0
  0
BLOCK
  8
0
  2
*U119
 70
     1
 10
0.0
 20
0.0
 30
0.0
  3
*U119
  1

  0
TEXT
  5
1B17
  8
0
 62
     7
 10
319.7558497174549075
 20
368.8273237842046228
 30
0.0
 40
3.96875
  1
4
 41
0.75
  7
SLDTEXTSTYLE0
  0
ENDBLK
  5
1B19
  8
0
  0
BLOCK
  8
0
  2
*U120
 70
     1
 10
0.0
 20
0.0
 30
0.0
  3
*U120
  1

  0
TEXT
  5
1B1B
  8
0
 62
     7
 10
369.7558497174547938
 20
86.8273237842045944
 30
0.0
 40
3.96875
  1
3
 41
0.75
  7
SLDTEXTSTYLE0
  0
ENDBLK
  5
1B1D
  8
0
  0
BLOCK
  8
0
  2
*U121
 70
     1
 10
0.0
 20
0.0
 30
0.0
  3
*U121
  1

  0
TEXT
  5
1B1F
  8
0
 62
     7
 10
369.7558497174547938
 20
368.8273237842046228
 30
0.0
 40
3.96875
  1
3
 41
0.75
  7
SLDTEXTSTYLE0
  0
ENDBLK
  5
1B21
  8
0
  0
BLOCK
  8
0
  2
*U122
 70
     1
 10
0.0
 20
0.0
 30
0.0
  3
*U122
  1

  0
TEXT
  5
1B23
  8
0
 62
     7
 10
419.7558497174547938
 20
86.8273237842045944
 30
0.0
 40
3.96875
  1
2
 41
0.75
  7
SLDTEXTSTYLE0
  0
ENDBLK
  5
1B25
  8
0
  0
BLOCK
  8
0
  2
*U123
 70
     1
 10
0.0
 20
0.0
 30
0.0
  3
*U123
  1

  0
TEXT
  5
1B27
  8
0
 62
     7
 10
419.7558497174547938
 20
368.8273237842046228
 30
0.0
 40
3.96875
  1
2
 41
0.75
  7
SLDTEXTSTYLE0
  0
ENDBLK
  5
1B29
  8
0
  0
BLOCK
  8
0
  2
*U124
 70
     1
 10
0.0
 20
0.0
 30
0.0
  3
*U124
  1

  0
TEXT
  5
1B2B
  8
0
 62
     7
 10
467.7519434674549075
 20
86.8273237842045944
 30
0.0
 40
3.96875
  1
1
 41
0.75
  7
SLDTEXTSTYLE0
  0
ENDBLK
  5
1B2D
  8
0
  0
BLOCK
  8
0
  2
*U125
 70
     1
 10
0.0
 20
0.0
 30
0.0
  3
*U125
  1

  0
TEXT
  5
1B2F
  8
0
 62
     7
 10
467.7519434674549075
 20
368.8273237842046228
 30
0.0
 40
3.96875
  1
1
 41
0.75
  7
SLDTEXTSTYLE0
  0
ENDBLK
  5
1B31
  8
0
  0
BLOCK
  8
0
  2
*U126
 70
     1
 10
0.0
 20
0.0
 30
0.0
  3
*U126
  1

  0
TEXT
  5
1B33
  8
0
 62
     7
 10
311.3909644870403213
 20
122.0187334264280992
 30
0.0
 40
1.5
  1
绘
 41
0.75
  7
MtXpl_
  0
TEXT
  5
1B34
  8
0
 62
     7
 10
312.9999030345264259
 20
122.0187334264280992
 30
0.0
 40
1.5
  1
制
 41
0.75
  7
SLDTEXTSTYLE1
  0
ENDBLK
  5
1B36
  8
0
  0
BLOCK
  8
0
  2
*U127
 70
     1
 10
0.0
 20
0.0
 30
0.0
  3
*U127
  1

  0
TEXT
  5
1B38
  8
0
 62
     7
 10
311.3487344290437022
 20
117.7182860357235938
 30
0.0
 40
1.5
  1
检查
 41
0.75
  7
MtXpl_
  0
ENDBLK
  5
1B3A
  8
0
  0
BLOCK
  8
0
  2
*U128
 70
     1
 10
0.0
 20
0.0
 30
0.0
  3
*U128
  1

  0
TEXT
  5
1B3C
  8
0
 62
     7
 10
311.4096306075547886
 20
114.008865453304594
 30
0.0
 40
1.5
  1
批准
 41
0.75
  7
SLDTEXTSTYLE1
  0
ENDBLK
  5
1B3E
  8
0
  0
BLOCK
  8
0
  2
*U129
 70
     1
 10
0.0
 20
0.0
 30
0.0
  3
*U129
  1

  0
TEXT
  5
1B40
  8
0
 62
     7
 10
311.4701943392548742
 20
109.5657399509046002
 30
0.0
 40
1.5
  1
制造
 41
0.75
  7
SLDTEXTSTYLE1
  0
ENDBLK
  5
1B42
  8
0
  0
BLOCK
  8
0
  2
*U130
 70
     1
 10
0.0
 20
0.0
 30
0.0
  3
*U130
  1

  0
TEXT
  5
1B44
  8
0
 62
     7
 10
311.4082915195447754
 20
104.913528083023607
 30
0.0
 40
1.5
  1
验检
 41
0.75
  7
MtXpl_
  0
ENDBLK
  5
1B46
  8
0
  0
BLOCK
  8
0
  2
*U131
 70
     1
 10
0.0
 20
0.0
 30
0.0
  3
*U131
  1

  0
TEXT
  5
1B48
  8
0
 62
     7
 10
345.1592924377548002
 20
143.4956254772228021
 30
0.0
 40
1.5
  1
表面粗
 41
0.75
  7
SLDTEXTSTYLE1
  0
TEXT
  5
1B49
  8
0
 62
     7
 10
349.2092924377549252
 20
143.4956254772228021
 30
0.0
 40
1.5
  1
糙
 41
0.75
  7
MtXpl_MS_PGothic
  0
TEXT
  5
1B4A
  8
0
 62
     7
 10
350.8456560741184944
 20
143.4956254772228021
 30
0.0
 40
1.5
  1
度:
 41
0.75
  7
SLDTEXTSTYLE1
  0
ENDBLK
  5
1B4C
  8
0
  0
BLOCK
  8
0
  2
*U132
 70
     1
 10
0.0
 20
0.0
 30
0.0
  3
*U132
  1

  0
TEXT
  5
1B4E
  8
0
 62
     7
 10
325.1102394886548836
 20
126.3335179338046004
 30
0.0
 40
1.5
  1
名称
 41
0.75
  7
SLDTEXTSTYLE1
  0
ENDBLK
  5
1B50
  8
0
  0
BLOCK
  8
0
  2
*U133
 70
     1
 10
0.0
 20
0.0
 30
0.0
  3
*U133
  1

  0
TEXT
  5
1B52
  8
0
 62
     7
 10
340.7587386721436928
 20
126.1423950317599036
 30
0.0
 40
1.5
  1
签
 41
0.75
  7
MtXpl_
  0
TEXT
  5
1B53
  8
0
 62
     7
 10
342.3676772196296838
 20
126.1423950317599036
 30
0.0
 40
1.5
  1
名
 41
0.75
  7
SLDTEXTSTYLE1
  0
ENDBLK
  5
1B55
  8
0
  0
BLOCK
  8
0
  2
*U134
 70
     1
 10
0.0
 20
0.0
 30
0.0
  3
*U134
  1

  0
TEXT
  5
1B57
  8
0
 62
     7
 10
357.8527022366549204
 20
126.408214521504604
 30
0.0
 40
1.5
  1
日期
 41
0.75
  7
SLDTEXTSTYLE1
  0
ENDBLK
  5
1B59
  8
0
  0
BLOCK
  8
0
  2
*U135
 70
     1
 10
0.0
 20
0.0
 30
0.0
  3
*U135
  1

  0
TEXT
  5
1B5B
  8
0
 62
     7
 10
366.433862579754873
 20
105.8180915895046041
 30
0.0
 40
1.5
  1
材料:
 41
0.75
  7
SLDTEXTSTYLE1
  0
ENDBLK
  5
1B5D
  8
0
  0
BLOCK
  8
0
  2
*U136
 70
     1
 10
0.0
 20
0.0
 30
0.0
  3
*U136
  1

  0
TEXT
  5
1B5F
  8
0
 62
     7
 10
423.4026407938548004
 20
142.1303920038961905
 30
0.0
 40
1.5
  1
不
 41
0.75
  7
SLDTEXTSTYLE1
  0
TEXT
  5
1B60
  8
0
 62
     7
 10
424.75264079385488
 20
142.1303920038961905
 30
0.0
 40
1.5
  1
调
 41
0.75
  7
MtXpl_
  0
TEXT
  5
1B61
  8
0
 62
     7
 10
426.3615793413409278
 20
142.1303920038961905
 30
0.0
 40
1.5
  1
整工程
 41
0.75
  7
SLDTEXTSTYLE1
  0
TEXT
  5
1B62
  8
0
 62
     7
 10
430.4115793413408824
 20
142.1303920038961905
 30
0.0
 40
1.5
  1
图
 41
0.75
  7
MtXpl_
  0
TEXT
  5
1B63
  8
0
 62
     7
 10
432.020517888826987
 20
142.1303920038961905
 30
0.0
 40
1.5
  1
比例
 41
0.75
  7
SLDTEXTSTYLE1
  0
ENDBLK
  5
1B65
  8
0
  0
BLOCK
  8
0
  2
*U137
 70
     1
 10
0.0
 20
0.0
 30
0.0
  3
*U137
  1

  0
TEXT
  5
1B67
  8
0
 62
     7
 10
464.1155819702548229
 20
141.9742065506370068
 30
0.0
 40
1.5
  1
修
 41
0.75
  7
SLDTEXTSTYLE1
  0
TEXT
  5
1B68
  8
0
 62
     7
 10
465.4655819702549024
 20
141.9742065506370068
 30
0.0
 40
1.5
  1
订
 41
0.75
  7
MtXpl_
  0
ENDBLK
  5
1B6A
  8
0
  0
BLOCK
  8
0
  2
*U138
 70
     1
 10
0.0
 20
0.0
 30
0.0
  3
*U138
  1

  0
TEXT
  5
1B6C
  8
0
 62
     7
 10
410.6750531293424729
 20
126.1400580969235961
 30
0.0
 40
1.5
  1
标题
 41
0.75
  7
MtXpl_
  0
TEXT
  5
1B6D
  8
0
 62
     7
 10
413.8929302243146253
 20
126.1400580969235961
 30
0.0
 40
1.5
  1
:
 41
0.75
  7
SLDTEXTSTYLE1
  0
ENDBLK
  5
1B6F
  8
0
  0
BLOCK
  8
0
  2
*U139
 70
     1
 10
0.0
 20
0.0
 30
0.0
  3
*U139
  1

  0
TEXT
  5
1B71
  8
0
 62
     7
 10
410.4166538008548741
 20
105.5834547179962044
 30
0.0
 40
1.5
  1
工程
 41
0.75
  7
SLDTEXTSTYLE1
  0
TEXT
  5
1B72
  8
0
 62
     7
 10
413.1166538008548059
 20
105.5834547179962044
 30
0.0
 40
1.5
  1
图
 41
0.75
  7
MtXpl_
  0
TEXT
  5
1B73
  8
0
 62
     7
 10
414.7255923483409106
 20
105.5834547179962044
 30
0.0
 40
1.5
  1
号
 41
0.75
  7
SLDTEXTSTYLE1
  0
ENDBLK
  5
1B75
  8
0
  0
BLOCK
  8
0
  2
*U140
 70
     1
 10
0.0
 20
0.0
 30
0.0
  3
*U140
  1

  0
TEXT
  5
1B77
  8
0
 62
     7
 10
410.861966388454789
 20
92.7321225748045919
 30
0.0
 40
1.5
  1
比例:1:1
 41
0.75
  7
SLDTEXTSTYLE1
  0
ENDBLK
  5
1B79
  8
0
  0
BLOCK
  8
0
  2
*U141
 70
     1
 10
0.0
 20
0.0
 30
0.0
  3
*U141
  1

  0
TEXT
  5
1B7B
  8
0
 62
     7
 10
455.062616858903823
 20
92.4974857032962063
 30
0.0
 40
1.5
  1
图纸 
 41
0.6944444444444445
  7
MtXpl_
  0
TEXT
  5
1B7C
  8
0
 62
     7
 10
458.7870116447510895
 20
92.4974857032962063
 30
0.0
 40
1.5
  1
1 (共1)
 41
0.6944444444444445
  7
SLDTEXTSTYLE2
  0
ENDBLK
  5
1B7E
  8
0
  0
BLOCK
  8
0
  2
*U142
 70
     1
 10
0.0
 20
0.0
 30
0.0
  3
*U142
  1

  0
TEXT
  5
1B80
  8
0
 62
     7
 10
481.6591567055547785
 20
102.8280072026045957
 30
0.0
 40
2.9104166667000002
  1
A3
 41
0.75
  7
SLDTEXTSTYLE0
  0
ENDBLK
  5
1B82
  8
0
  0
BLOCK
  8
0
  2
*U143
 70
     1
 10
0.0
 20
0.0
 30
0.0
  3
*U143
  1

  0
TEXT
  5
1B84
  8
0
 62
     7
 10
366.4058113990549259
 20
92.7827472039046057
 30
0.0
 40
1.498599999999999
  1
重量:
 41
0.75
  7
SLDTEXTSTYLE1
  0
ENDBLK
  5
1B86
  8
0
  0
BLOCK
  8
0
  2
*U144
 70
     1
 10
0.0
 20
0.0
 30
0.0
  3
*U144
  1

  0
TEXT
  5
1B88
  8
0
 62
     7
 10
431.8586309449548821
 20
98.5889462676045838
 30
0.0
 40
6.3499999999999988
  1
keyway
 41
0.75
  7
SLDTEXTSTYLE0
  0
ENDBLK
  5
1B8A
  8
0
  0
BLOCK
  8
0
  2
*U145
 70
     1
 10
0.0
 20
0.0
 30
0.0
  3
*U145
  1

  0
TEXT
  5
1B8C
  8
0
 62
     0
 10
214.247558300526407
 20
230.2063436128495937
 30
0.0
 40
3.5
  1
\U+00D840,00
  0
ENDBLK
  5
1B8E
  8
0
  0
BLOCK
  8
0
  2
*U146
 70
     1
 10
0.0
 20
0.0
 30
0.0
  3
*U146
  1

  0
TEXT
  5
1B90
  8
0
 62
     0
 10
134.5793160956719134
 20
314.3653313896900841
 30
0.0
 40
3.5
  1
40,00
  0
ENDBLK
  5
1B92
  8
0
  0
BLOCK
  8
0
  2
*U147
 70
     1
 10
0.0
 20
0.0
 30
0.0
  3
*U147
  1

  0
TEXT
  5
1B94
  8
0
 62
     0
 10
186.3249611648095936
 20
350.654521755733299
 30
0.0
 40
3.5
  1
12,00
  0
ENDBLK
  5
1B96
  8
0
  0
BLOCK
  8
0
  2
*U148
 70
     1
 10
0.0
 20
0.0
 30
0.0
  3
*U148
  1

  0
TEXT
  5
1B98
  8
0
 62
     0
 10
207.7179993639682039
 20
278.8526274790755792
 30
0.0
 40
3.5
  1
15,00
  0
ENDBLK
  5
1B9A
  8
0
  0
BLOCK
  8
0
  2
*U149
 70
     1
 10
0.0
 20
0.0
 30
0.0
  3
*U149
  1

  0
TEXT
  5
1B9C
  8
0
 62
     0
 10
229.3986716639425936
 20
309.3653313896900841
 30
0.0
 40
3.5
  1
60,00
  0
ENDBLK
  5
1B9E
  8
0
  0
BLOCK
  8
0
  2
*U150
 70
     1
 10
0.0
 20
0.0
 30
0.0
  3
*U150
  1

  0
TEXT
  5
1BA3
  8
尺寸标注
 62
     0
 10
139.9320259601178122
 20
197.4697606477878935
 30
0.0
 40
3.5
  1
15
 50
90.0
  7
国标汉字3_5
  0
ENDBLK
  5
1BA5
  8
0
  0
BLOCK
  8
0
  2
*U151
 70
     1
 10
0.0
 20
0.0
 30
0.0
  3
*U151
  1

  0
TEXT
  5
1BA7
  8
尺寸标注
 62
     0
 10
208.8316922534835101
 20
222.9006462937759068
 30
0.0
 40
3.5
  1
\U+220540
  7
国标汉字3_5
  0
ENDBLK
  5
1BA9
  8
0
  0
BLOCK
  8
0
  2
*U152
 70
     1
 10
0.0
 20
0.0
 30
0.0
  3
*U152
  1

  0
TEXT
  5
1BAB
  8
尺寸标注
 62
     0
 10
173.2463336042881963
 20
289.2081992980254199
 30
0.0
 40
3.5
  1
12
  7
国标汉字3_5
  0
ENDBLK
  5
1BAD
  8
0
  0
BLOCK
  8
0
  2
*U153
 70
     1
 10
0.0
 20
0.0
 30
0.0
  3
*U153
  1

  0
TEXT
  5
1BAF
  8
尺寸标注
 62
     0
 10
186.1594746100296902
 20
313.6345353003046057
 30
0.0
 40
3.5
  1
40
 50
90.0
  7
国标汉字3_5
  0
ENDBLK
  5
1BB1
  8
0
  0
BLOCK
  8
0
  2
*U154
 70
     1
 10
0.0
 20
0.0
 30
0.0
  3
*U154
  1

  0
TEXT
  5
1BB3
  8
尺寸标注
 62
     0
 10
206.4633578217346042
 20
286.2803686336379769
 30
0.0
 40
3.5
  1
15
 50
90.0
  7
国标汉字3_5
  0
ENDBLK
  5
1BB5
  8
0
  0
BLOCK
  8
0
  2
*U155
 70
     1
 10
0.0
 20
0.0
 30
0.0
  3
*U155
  1

  0
TEXT
  5
1BB7
  8
尺寸标注
 62
     0
 10
214.9345171579836915
 20
308.8168269669712913
 30
0.0
 40
3.5
  1
60
 50
90.0
  7
国标汉字3_5
  0
ENDBLK
  5
1BB9
  8
0
  0
ENDSEC
  0
SECTION
  2
ENTITIES
  0
LINE
  5
1796
  8
0
  6
CONTINUOUS
 62
     7
 10
310.7880002709549103
 20
95.5820353003045966
 30
0.0
 11
490.7880002709547966
 21
95.5820353003045966
 31
0.0
  0
LINE
  5
1797
  8
0
  6
CONTINUOUS
 62
     7
 10
490.7880002709547966
 20
129.5820353003045966
 30
0.0
 11
310.7880002709549103
 21
129.5820353003045966
 31
0.0
  0
LINE
  5
1798
  8
0
  6
CONTINUOUS
 62
     7
 10
310.7880002709549103
 20
146.5820353003045966
 30
0.0
 11
490.7880002709547966
 21
146.5820353003045966
 31
0.0
  0
LINE
  5
1799
  8
0
  6
CONTINUOUS
 62
     7
 10
337.7789527047548859
 20
129.5820353003045966
 30
0.0
 11
337.7789527047548859
 21
91.3320353003045966
 31
0.0
  0
LINE
  5
179A
  8
0
  6
CONTINUOUS
 62
     7
 10
409.588000270954808
 20
112.5820353003045966
 30
0.0
 11
310.7880002709549103
 21
112.5820353003045966
 31
0.0
  0
LINE
  5
179B
  8
0
  6
CONTINUOUS
 62
     7
 10
409.588000270954808
 20
116.8320353003045966
 30
0.0
 11
310.7880002709549103
 21
116.8320353003045966
 31
0.0
  0
LINE
  5
179C
  8
0
  6
CONTINUOUS
 62
     7
 10
409.588000270954808
 20
121.0820353003045966
 30
0.0
 11
310.7880002709549103
 21
121.0820353003045966
 31
0.0
  0
LINE
  5
179D
  8
0
  6
CONTINUOUS
 62
     7
 10
409.588000270954808
 20
125.3320353003045966
 30
0.0
 11
310.7880002709549103
 21
125.3320353003045966
 31
0.0
  0
LINE
  5
179E
  8
0
  6
CONTINUOUS
 62
     7
 10
365.3880002709548762
 20
91.3320353003045966
 30
0.0
 11
365.3880002709548762
 21
129.5820353003045966
 31
0.0
  0
LINE
  5
179F
  8
0
  6
CONTINUOUS
 62
     7
 10
310.7880002709549103
 20
146.5820353003045966
 30
0.0
 11
310.7880002709549103
 21
91.3320353003045966
 31
0.0
  0
LINE
  5
17A0
  8
0
  6
CONTINUOUS
 62
     7
 10
318.5880002709549217
 20
129.5820353003045966
 30
0.0
 11
318.5880002709549217
 21
91.3320353003045966
 31
0.0
  0
LINE
  5
17A1
  8
0
  6
CONTINUOUS
 62
     7
 10
344.5880002709549217
 20
129.5820353003045966
 30
0.0
 11
344.5880002709549217
 21
146.5820353003045966
 31
0.0
  0
LINE
  5
17A2
  8
0
  6
CONTINUOUS
 62
     7
 10
355.1869264344547901
 20
129.5820353003045966
 30
0.0
 11
355.1869264344547901
 21
91.3320353003045966
 31
0.0
  0
LINE
  5
17A3
  8
0
  6
CONTINUOUS
 62
     7
 10
375.7880002709549103
 20
112.5820353003045966
 30
0.0
 11
375.7880002709549103
 21
129.5820353003045966
 31
0.0
  0
LINE
  5
17A4
  8
0
  6
CONTINUOUS
 62
     7
 10
365.3880002709548762
 20
99.8320353003045966
 30
0.0
 11
310.7880002709549103
 21
99.8320353003045966
 31
0.0
  0
LINE
  5
17A5
  8
0
  6
CONTINUOUS
 62
     7
 10
391.3880002709548762
 20
146.5820353003045966
 30
0.0
 11
391.3880002709548762
 21
108.3320353003045966
 31
0.0
  0
LINE
  5
17A6
  8
0
  6
CONTINUOUS
 62
     7
 10
365.3880002709548762
 20
104.0819633003045936
 30
0.0
 11
310.7880002709549103
 21
104.0819633003045936
 31
0.0
  0
LINE
  5
17A7
  8
0
  6
CONTINUOUS
 62
     7
 10
365.3880002709548762
 20
108.3320353003045966
 30
0.0
 11
310.7880002709549103
 21
108.3320353003045966
 31
0.0
  0
LINE
  5
17A8
  8
0
  6
CONTINUOUS
 62
     7
 10
365.3880002709548762
 20
108.3320353003045966
 30
0.0
 11
490.7880002709547966
 21
108.3320353003045966
 31
0.0
  0
LINE
  5
17A9
  8
0
  6
CONTINUOUS
 62
     7
 10
409.588000270954808
 20
146.5820353003045966
 30
0.0
 11
409.588000270954808
 21
91.3320353003045966
 31
0.0
  0
LINE
  5
17AA
  8
0
  6
CONTINUOUS
 62
     7
 10
453.7880002709547966
 20
91.3320353003045966
 30
0.0
 11
453.7880002709547966
 21
95.5820353003045966
 31
0.0
  0
LINE
  5
17AB
  8
0
  6
CONTINUOUS
 62
     7
 10
461.588000270954808
 20
140.2070353003045966
 30
0.0
 11
461.588000270954808
 21
146.5820353003045966
 31
0.0
  0
LINE
  5
17AC
  8
0
  6
CONTINUOUS
 62
     7
 10
477.7880002709547966
 20
95.5820353003045966
 30
0.0
 11
477.7880002709547966
 21
108.3320353003045966
 31
0.0
  0
LINE
  5
17AD
  8
0
  6
CONTINUOUS
 62
     7
 10
490.7880002709547966
 20
140.2070353003045966
 30
0.0
 11
409.588000270954808
 21
140.2070353003045966
 31
0.0
  0
LINE
  5
17AE
  8
0
  6
CONTINUOUS
 62
     7
 10
490.7880002709547966
 20
99.8320353003045966
 30
0.0
 11
477.7880002709547966
 21
99.8320353003045966
 31
0.0
  0
LINE
  5
17AF
  8
0
  6
CONTINUOUS
 62
     7
 10
100.7880002709547966
 20
91.3320353003045966
 30
0.0
 11
100.7880002709547966
 21
368.3320353003045966
 31
0.0
  0
LINE
  5
17B0
  8
0
  6
CONTINUOUS
 62
     7
 10
100.7880002709547966
 20
368.3320353003045966
 30
0.0
 11
490.7880002709547966
 21
368.3320353003045966
 31
0.0
  0
LINE
  5
17B1
  8
0
  6
CONTINUOUS
 62
     7
 10
490.7880002709547966
 20
368.3320353003045966
 30
0.0
 11
490.7880002709547966
 21
91.3320353003045966
 31
0.0
  0
LINE
  5
17B2
  8
0
  6
CONTINUOUS
 62
     7
 10
490.7880002709547966
 20
91.3320353003045966
 30
0.0
 11
100.7880002709547966
 21
91.3320353003045966
 31
0.0
  0
LINE
  5
17B3
  8
0
  6
CONTINUOUS
 62
     7
 10
95.7880002709548535
 20
86.3320353003045966
 30
0.0
 11
95.7880002709548535
 21
373.3320353003045966
 31
0.0
  0
LINE
  5
17B4
  8
0
  6
CONTINUOUS
 62
     7
 10
95.7880002709548535
 20
373.3320353003045966
 30
0.0
 11
495.7880002709547966
 21
373.3320353003045966
 31
0.0
  0
LINE
  5
17B5
  8
0
  6
CONTINUOUS
 62
     7
 10
495.7880002709547966
 20
373.3320353003045966
 30
0.0
 11
495.7880002709547966
 21
86.3320353003045966
 31
0.0
  0
LINE
  5
17B6
  8
0
  6
CONTINUOUS
 62
     7
 10
495.7880002709547966
 20
86.3320353003045966
 30
0.0
 11
95.7880002709548535
 21
86.3320353003045966
 31
0.0
  0
LINE
  5
17B7
  8
0
  6
CONTINUOUS
 62
     7
 10
95.7880002709548535
 20
229.8320353003045966
 30
0.0
 11
105.7880002709547966
 21
229.8320353003045966
 31
0.0
  0
LINE
  5
17B8
  8
0
  6
CONTINUOUS
 62
     7
 10
295.7880002709547966
 20
373.3320353003045966
 30
0.0
 11
295.7880002709547966
 21
363.3320353003045966
 31
0.0
  0
LINE
  5
17B9
  8
0
  6
CONTINUOUS
 62
     7
 10
495.7880002709547966
 20
229.8320353003045966
 30
0.0
 11
485.7880002709547966
 21
229.8320353003045966
 31
0.0
  0
LINE
  5
17BA
  8
0
  6
CONTINUOUS
 62
     7
 10
295.7880002709547966
 20
86.3320353003045966
 30
0.0
 11
295.7880002709547966
 21
96.3320353003045966
 31
0.0
  0
LINE
  5
17BB
  8
0
  6
CONTINUOUS
 62
     7
 10
100.7880002709547966
 20
129.8320353003045966
 30
0.0
 11
95.7880002709548535
 21
129.8320353003045966
 31
0.0
  0
LINE
  5
17BC
  8
0
  6
CONTINUOUS
 62
     7
 10
490.7880002709547966
 20
129.8320353003045966
 30
0.0
 11
495.7880002709547966
 21
129.8320353003045966
 31
0.0
  0
LINE
  5
17BD
  8
0
  6
CONTINUOUS
 62
     7
 10
100.7880002709547966
 20
179.8320353003045966
 30
0.0
 11
95.7880002709548535
 21
179.8320353003045966
 31
0.0
  0
LINE
  5
17BE
  8
0
  6
CONTINUOUS
 62
     7
 10
490.7880002709547966
 20
179.8320353003045966
 30
0.0
 11
495.7880002709547966
 21
179.8320353003045966
 31
0.0
  0
LINE
  5
17BF
  8
0
  6
CONTINUOUS
 62
     7
 10
100.7880002709547966
 20
229.8320353003045966
 30
0.0
 11
95.7880002709548535
 21
229.8320353003045966
 31
0.0
  0
LINE
  5
17C0
  8
0
  6
CONTINUOUS
 62
     7
 10
490.7880002709547966
 20
229.8320353003045966
 30
0.0
 11
495.7880002709547966
 21
229.8320353003045966
 31
0.0
  0
LINE
  5
17C1
  8
0
  6
CONTINUOUS
 62
     7
 10
100.7880002709547966
 20
279.8320353003045966
 30
0.0
 11
95.7880002709548535
 21
279.8320353003045966
 31
0.0
  0
LINE
  5
17C2
  8
0
  6
CONTINUOUS
 62
     7
 10
490.7880002709547966
 20
279.8320353003045966
 30
0.0
 11
495.7880002709547966
 21
279.8320353003045966
 31
0.0
  0
LINE
  5
17C3
  8
0
  6
CONTINUOUS
 62
     7
 10
100.7880002709547966
 20
329.8320353003045966
 30
0.0
 11
95.7880002709548535
 21
329.8320353003045966
 31
0.0
  0
LINE
  5
17C4
  8
0
  6
CONTINUOUS
 62
     7
 10
490.7880002709547966
 20
329.8320353003045966
 30
0.0
 11
495.7880002709547966
 21
329.8320353003045966
 31
0.0
  0
LINE
  5
17C5
  8
0
  6
CONTINUOUS
 62
     7
 10
145.7880002709547966
 20
368.3320353003045966
 30
0.0
 11
145.7880002709547966
 21
373.3320353003045966
 31
0.0
  0
LINE
  5
17C6
  8
0
  6
CONTINUOUS
 62
     7
 10
145.7880002709547966
 20
91.3320353003045966
 30
0.0
 11
145.7880002709547966
 21
86.3320353003045966
 31
0.0
  0
LINE
  5
17C7
  8
0
  6
CONTINUOUS
 62
     7
 10
195.7880002709547966
 20
368.3320353003045966
 30
0.0
 11
195.7880002709547966
 21
373.3320353003045966
 31
0.0
  0
LINE
  5
17C8
  8
0
  6
CONTINUOUS
 62
     7
 10
195.7880002709547966
 20
91.3320353003045966
 30
0.0
 11
195.7880002709547966
 21
86.3320353003045966
 31
0.0
  0
LINE
  5
17C9
  8
0
  6
CONTINUOUS
 62
     7
 10
245.7880002709547966
 20
368.3320353003045966
 30
0.0
 11
245.7880002709547966
 21
373.3320353003045966
 31
0.0
  0
LINE
  5
17CA
  8
0
  6
CONTINUOUS
 62
     7
 10
245.7880002709547966
 20
91.3320353003045966
 30
0.0
 11
245.7880002709547966
 21
86.3320353003045966
 31
0.0
  0
LINE
  5
17CB
  8
0
  6
CONTINUOUS
 62
     7
 10
295.7880002709547966
 20
368.3320353003045966
 30
0.0
 11
295.7880002709547966
 21
373.3320353003045966
 31
0.0
  0
LINE
  5
17CC
  8
0
  6
CONTINUOUS
 62
     7
 10
295.7880002709547966
 20
91.3320353003045966
 30
0.0
 11
295.7880002709547966
 21
86.3320353003045966
 31
0.0
  0
LINE
  5
17CD
  8
0
  6
CONTINUOUS
 62
     7
 10
345.7880002709547966
 20
368.3320353003045966
 30
0.0
 11
345.7880002709547966
 21
373.3320353003045966
 31
0.0
  0
LINE
  5
17CE
  8
0
  6
CONTINUOUS
 62
     7
 10
345.7880002709547966
 20
91.3320353003045966
 30
0.0
 11
345.7880002709547966
 21
86.3320353003045966
 31
0.0
  0
LINE
  5
17CF
  8
0
  6
CONTINUOUS
 62
     7
 10
395.7880002709547966
 20
368.3320353003045966
 30
0.0
 11
395.7880002709547966
 21
373.3320353003045966
 31
0.0
  0
LINE
  5
17D0
  8
0
  6
CONTINUOUS
 62
     7
 10
395.7880002709547966
 20
91.3320353003045966
 30
0.0
 11
395.7880002709547966
 21
86.3320353003045966
 31
0.0
  0
LINE
  5
17D1
  8
0
  6
CONTINUOUS
 62
     7
 10
445.7880002709547966
 20
368.3320353003045966
 30
0.0
 11
445.7880002709547966
 21
373.3320353003045966
 31
0.0
  0
LINE
  5
17D2
  8
0
  6
CONTINUOUS
 62
     7
 10
445.7880002709547966
 20
91.3320353003045966
 30
0.0
 11
445.7880002709547966
 21
86.3320353003045966
 31
0.0
  0
INSERT
  5
17D3
  8
虚线
  2
*U98
 10
0.0
 20
0.0
 30
0.0
  0
INSERT
  5
17D4
  8
虚线
  2
*U99
 10
0.0
 20
0.0
 30
0.0
  0
INSERT
  5
17D5
  8
虚线
  2
*U100
 10
0.0
 20
0.0
 30
0.0
  0
INSERT
  5
17D6
  8
虚线
  2
*U101
 10
0.0
 20
0.0
 30
0.0
  0
INSERT
  5
17D7
  8
虚线
  2
*U102
 10
0.0
 20
0.0
 30
0.0
  0
INSERT
  5
17D8
  8
虚线
  2
*U103
 10
0.0
 20
0.0
 30
0.0
  0
INSERT
  5
17D9
  8
虚线
  2
*U104
 10
0.0
 20
0.0
 30
0.0
  0
INSERT
  5
17DA
  8
虚线
  2
*U105
 10
0.0
 20
0.0
 30
0.0
  0
INSERT
  5
17DB
  8
虚线
  2
*U106
 10
0.0
 20
0.0
 30
0.0
  0
INSERT
  5
17DC
  8
虚线
  2
*U107
 10
0.0
 20
0.0
 30
0.0
  0
INSERT
  5
17DD
  8
虚线
  2
*U108
 10
0.0
 20
0.0
 30
0.0
  0
INSERT
  5
17DE
  8
虚线
  2
*U109
 10
0.0
 20
0.0
 30
0.0
  0
INSERT
  5
17DF
  8
虚线
  2
*U110
 10
0.0
 20
0.0
 30
0.0
  0
INSERT
  5
17E0
  8
虚线
  2
*U111
 10
0.0
 20
0.0
 30
0.0
  0
INSERT
  5
17E1
  8
虚线
  2
*U112
 10
0.0
 20
0.0
 30
0.0
  0
INSERT
  5
17E2
  8
虚线
  2
*U113
 10
0.0
 20
0.0
 30
0.0
  0
INSERT
  5
17E3
  8
虚线
  2
*U114
 10
0.0
 20
0.0
 30
0.0
  0
INSERT
  5
17E4
  8
虚线
  2
*U115
 10
0.0
 20
0.0
 30
0.0
  0
INSERT
  5
17E5
  8
虚线
  2
*U116
 10
0.0
 20
0.0
 30
0.0
  0
INSERT
  5
17E6
  8
虚线
  2
*U117
 10
0.0
 20
0.0
 30
0.0
  0
INSERT
  5
17E7
  8
虚线
  2
*U118
 10
0.0
 20
0.0
 30
0.0
  0
INSERT
  5
17E8
  8
虚线
  2
*U119
 10
0.0
 20
0.0
 30
0.0
  0
INSERT
  5
17E9
  8
虚线
  2
*U120
 10
0.0
 20
0.0
 30
0.0
  0
INSERT
  5
17EA
  8
虚线
  2
*U121
 10
0.0
 20
0.0
 30
0.0
  0
INSERT
  5
17EB
  8
虚线
  2
*U122
 10
0.0
 20
0.0
 30
0.0
  0
INSERT
  5
17EC
  8
虚线
  2
*U123
 10
0.0
 20
0.0
 30
0.0
  0
INSERT
  5
17ED
  8
虚线
  2
*U124
 10
0.0
 20
0.0
 30
0.0
  0
INSERT
  5
17EE
  8
虚线
  2
*U125
 10
0.0
 20
0.0
 30
0.0
  0
INSERT
  5
17EF
  8
虚线
  2
*U126
 10
0.0
 20
0.0
 30
0.0
  0
INSERT
  5
17F0
  8
虚线
  2
*U127
 10
0.0
 20
0.0
 30
0.0
  0
INSERT
  5
17F1
  8
虚线
  2
*U128
 10
0.0
 20
0.0
 30
0.0
  0
INSERT
  5
17F2
  8
虚线
  2
*U129
 10
0.0
 20
0.0
 30
0.0
  0
INSERT
  5
17F3
  8
虚线
  2
*U130
 10
0.0
 20
0.0
 30
0.0
  0
INSERT
  5
17F4
  8
0
  6
CONTINUOUS
 62
     7
  2
SW_NOTE_0
 10
311.3816690165548948
 20
143.3194051746044977
 30
0.0
  0
INSERT
  5
17F5
  8
虚线
  2
*U131
 10
0.0
 20
0.0
 30
0.0
  0
INSERT
  5
17F6
  8
0
  6
CONTINUOUS
 62
     7
  2
SW_NOTE_0_1
 10
392.097215957254889
 20
143.4015249433045938
 30
0.0
  0
INSERT
  5
17F7
  8
虚线
  2
*U132
 10
0.0
 20
0.0
 30
0.0
  0
INSERT
  5
17F8
  8
虚线
  2
*U133
 10
0.0
 20
0.0
 30
0.0
  0
INSERT
  5
17F9
  8
虚线
  2
*U134
 10
0.0
 20
0.0
 30
0.0
  0
INSERT
  5
17FA
  8
虚线
  2
*U135
 10
0.0
 20
0.0
 30
0.0
  0
INSERT
  5
17FB
  8
虚线
  2
*U136
 10
0.0
 20
0.0
 30
0.0
  0
INSERT
  5
17FC
  8
虚线
  2
*U137
 10
0.0
 20
0.0
 30
0.0
  0
INSERT
  5
17FD
  8
虚线
  2
*U138
 10
0.0
 20
0.0
 30
0.0
  0
INSERT
  5
17FE
  8
虚线
  2
*U139
 10
0.0
 20
0.0
 30
0.0
  0
INSERT
  5
17FF
  8
虚线
  2
*U140
 10
0.0
 20
0.0
 30
0.0
  0
INSERT
  5
1800
  8
虚线
  2
*U141
 10
0.0
 20
0.0
 30
0.0
  0
INSERT
  5
1801
  8
虚线
  2
*U142
 10
0.0
 20
0.0
 30
0.0
  0
INSERT
  5
1802
  8
虚线
  2
*U143
 10
0.0
 20
0.0
 30
0.0
  0
INSERT
  5
1803
  8
虚线
  2
*U144
 10
0.0
 20
0.0
 30
0.0
  0
CIRCLE
  5
1804
  8
0
  6
CONTINUOUS
 62
     7
 10
175.2880002709547966
 20
192.0220353003045943
 30
0.0
 40
20.0
  0
INSERT
  5
1805
  8
0
  6
CONTINUOUS
 62
     7
  2
SW_CENTERMARKSYMBOL_0
 10
175.2880002709547966
 20
192.0220353003045943
 30
0.0
  0
LINE
  5
1806
  8
0
  6
CONTINUOUS
 62
     7
 10
155.2880002709547966
 20
340.8220353003046057
 30
0.0
 11
155.2880002709547966
 21
280.8220353003046057
 31
0.0
  0
LINE
  5
1807
  8
0
  6
CONTINUOUS
 62
     7
 10
195.2880002709547966
 20
280.8220353003046057
 30
0.0
 11
195.2880002709547966
 21
340.8220353003046057
 31
0.0
  0
LINE
  5
1808
  8
0
  6
CONTINUOUS
 62
     7
 10
181.2880002709547966
 20
335.8220353003046057
 30
0.0
 11
181.2880002709547966
 21
295.8220353003046057
 31
0.0
  0
LINE
  5
1809
  8
0
  6
CONTINUOUS
 62
     7
 10
169.2880002709547966
 20
335.8220353003046057
 30
0.0
 11
181.2880002709547966
 21
335.8220353003046057
 31
0.0
  0
LINE
  5
180A
  8
0
  6
CONTINUOUS
 62
     7
 10
169.2880002709547966
 20
295.8220353003046057
 30
0.0
 11
169.2880002709547966
 21
335.8220353003046057
 31
0.0
  0
LINE
  5
180B
  8
0
  6
CONTINUOUS
 62
     7
 10
169.2880002709547966
 20
295.8220353003046057
 30
0.0
 11
181.2880002709547966
 21
295.8220353003046057
 31
0.0
  0
LINE
  5
180C
  8
0
  6
CONTINUOUS
 62
     7
 10
195.2880002709547966
 20
280.8220353003046057
 30
0.0
 11
155.2880002709547966
 21
280.8220353003046057
 31
0.0
  0
LINE
  5
180D
  8
0
  6
CONTINUOUS
 62
     7
 10
195.2880002709547966
 20
340.8220353003046057
 30
0.0
 11
155.2880002709547966
 21
340.8220353003046057
 31
0.0
  0
LINE
  5
180E
  8
0
  6
CONTINUOUS
 62
     7
 10
307.2880002709549103
 20
212.0220353003045943
 30
0.0
 11
292.2880002709549103
 21
212.0220353003045943
 31
0.0
  0
LINE
  5
180F
  8
0
  6
CONTINUOUS
 62
     7
 10
352.2880002709549103
 20
212.0220353003045943
 30
0.0
 11
347.2880002709547966
 21
212.0220353003045943
 31
0.0
  0
LINE
  5
1810
  8
0
  6
CONTINUOUS
 62
     7
 10
292.2880002709549103
 20
172.0220353003045943
 30
0.0
 11
352.2880002709549103
 21
172.0220353003045943
 31
0.0
  0
LINE
  5
1811
  8
0
  6
CONTINUOUS
 62
     7
 10
347.2880002709547966
 20
211.1008193286045866
 30
0.0
 11
307.2880002709549103
 21
211.1008193286045866
 31
0.0
  0
LINE
  5
1812
  8
0
  6
CONTINUOUS
 62
     7
 10
347.2880002709547966
 20
212.0220353003045943
 30
0.0
 11
347.2880002709547966
 21
211.1008193286045866
 31
0.0
  0
LINE
  5
1813
  8
0
  6
CONTINUOUS
 62
     7
 10
307.2880002709549103
 20
212.0220353003045943
 30
0.0
 11
307.2880002709549103
 21
211.1008193286045866
 31
0.0
  0
LINE
  5
1814
  8
0
  6
CONTINUOUS
 62
     7
 10
292.2880002709549103
 20
192.0220353003045943
 30
0.0
 11
292.2880002709549103
 21
212.0220353003045943
 31
0.0
  0
LINE
  5
1815
  8
0
  6
CONTINUOUS
 62
     7
 10
292.2880002709549103
 20
172.0220353003045943
 30
0.0
 11
292.2880002709549103
 21
192.0220353003045943
 31
0.0
  0
LINE
  5
1816
  8
0
  6
CONTINUOUS
 62
     7
 10
352.2880002709549103
 20
192.0220353003045943
 30
0.0
 11
352.2880002709549103
 21
212.0220353003045943
 31
0.0
  0
LINE
  5
1817
  8
0
  6
CONTINUOUS
 62
     7
 10
352.2880002709549103
 20
172.0220353003045943
 30
0.0
 11
352.2880002709549103
 21
192.0220353003045943
 31
0.0
  0
LINE
  5
18A0
  8
虚线
 10
169.2880002708309917
 20
211.1008193286045866
 30
0.0
 11
169.2880002708309917
 21
207.0008193286045071
 31
0.0
  0
LINE
  5
18A3
  8
虚线
 10
169.2880002708309917
 20
207.0008193286045071
 30
0.0
 11
181.2880002710786869
 21
206.9975583372811059
 31
0.0
  0
LINE
  5
18A4
  8
虚线
 10
181.2880002710786869
 20
206.9975583372811059
 30
0.0
 11
181.2880002710786869
 21
211.1008193286045866
 31
0.0
  0
DIMENSION
  5
18A6
  8
尺寸标注
  2
*D26
 10
140.9320259601178122
 20
192.022035300304708
 30
0.0
 11
138.1820259601178122
 21
199.5114273144546075
 31
0.0
 70
     0
 13
169.2880002708309917
 23
207.0008193286045071
 33
0.0
 14
169.2880002708309917
 24
192.0220353003045943
 34
0.0
 50
90.0
  0
DIMENSION
  5
18BE
  8
尺寸标注
  2
*D27
 10
160.4658923771357877
 20
178.5942611890085914
 30
0.0
 11
212.4046089201501957
 21
221.9006462937759068
 31
0.0
 70
   131
 15
190.1101081647738056
 25
205.449809411600512
 35
0.0
 40
0.0
1001
ACAD_DSTYLE_DIMRADIAL_EXTENSION
1070
   387
1070
     1
1070
   388
1040
0.0
1070
   390
1040
0.0
  0
DIMENSION
  5
18D6
  8
尺寸标注
  2
*D28
 10
181.2880002709547966
 20
288.2081992980254199
 30
0.0
 11
175.2880002709547966
 21
290.9581992980254199
 31
0.0
 70
     0
 13
169.2880002709547966
 23
295.8220353003046057
 33
0.0
 14
181.2880002709547966
 24
295.8220353003046057
 34
0.0
  0
DIMENSION
  5
18EE
  8
尺寸标注
  2
*D29
 10
187.1594746100296049
 20
295.8220353003047194
 30
0.0
 11
184.4094746100296902
 21
315.8220353003046057
 31
0.0
 70
     0
 13
181.2880002709547966
 23
335.8220353003046057
 33
0.0
 14
181.2880002709547966
 24
295.8220353003046057
 34
0.0
 50
90.0
  0
DIMENSION
  5
1906
  8
尺寸标注
  2
*D30
 10
207.4633578217346042
 20
280.8220353003047194
 30
0.0
 11
204.7133578217346042
 21
288.3220353003046057
 31
0.0
 70
     0
 13
181.2880002709547966
 23
295.8220353003047194
 33
0.0
 14
181.2880002709547966
 24
280.8220353003046057
 34
0.0
 50
90.0
  0
DIMENSION
  5
1913
  8
尺寸标注
  2
*D31
 10
215.9345171579836915
 20
340.8220353003047194
 30
0.0
 11
213.1845171579836915
 21
310.8220353003046057
 31
0.0
 70
     0
 13
195.2880002709547966
 23
280.8220353003046057
 33
0.0
 14
195.2880002709547966
 24
340.8220353003046057
 34
0.0
 50
90.0
  0
ENDSEC
  0
EOF
